M48
; DRILL file {KiCad (5.1.6)-1} date 08/11/20 23:01:29
; FORMAT={-:-/ absolute / inch / decimal}
; #@! TF.CreationDate,2020-08-11T23:01:29-04:00
; #@! TF.GenerationSoftware,Kicad,Pcbnew,(5.1.6)-1
; #@! TF.FileFunction,NonPlated,1,2,NPTH
FMAT,2
INCH
T1C0.0264
T2C0.0670
T3C0.1200
T4C0.1570
%
G90
G05
T1
X6.8501Y-2.0272
X7.0776Y-2.0272
T2
X5.2639Y-3.2139
X5.6639Y-3.2139
X3.9514Y-3.9639
X4.3514Y-3.9639
X7.7014Y-3.9639
X8.1014Y-3.9639
X6.9514Y-3.9639
X7.3514Y-3.9639
X11.6389Y-2.4639
X12.0389Y-2.4639
X6.5764Y-4.7139
X6.9764Y-4.7139
X11.1701Y-3.9639
X11.5701Y-3.9639
X9.3889Y-5.4639
X9.7889Y-5.4639
X1.6076Y-4.7139
X2.0076Y-4.7139
X3.3889Y-2.4639
X3.7889Y-2.4639
X4.7014Y-3.9639
X5.1014Y-3.9639
X9.2014Y-3.9639
X9.6014Y-3.9639
X3.7639Y-3.2139
X4.1639Y-3.2139
X8.4514Y-3.9639
X8.8514Y-3.9639
X4.3264Y-4.7139
X4.7264Y-4.7139
X1.3264Y-5.4639
X1.7264Y-5.4639
X1.4201Y-3.9639
X1.8201Y-3.9639
X10.6076Y-4.7139
X11.0076Y-4.7139
X12.3889Y-5.4639
X12.7889Y-5.4639
X4.8889Y-2.4639
X5.2889Y-2.4639
X5.6389Y-2.4639
X6.0389Y-2.4639
X7.5139Y-3.2139
X7.9139Y-3.2139
X9.7639Y-3.2139
X10.1639Y-3.2139
X6.7639Y-3.2139
X7.1639Y-3.2139
X2.8264Y-4.7139
X3.2264Y-4.7139
X8.0764Y-4.7139
X8.4764Y-4.7139
X1.3264Y-3.2139
X1.7264Y-3.2139
X11.6389Y-4.7139
X12.0389Y-4.7139
X9.9514Y-3.9639
X10.3514Y-3.9639
X11.2639Y-2.4639
X11.6639Y-2.4639
X10.5139Y-3.2139
X10.9139Y-3.2139
X12.3889Y-2.4639
X12.7889Y-2.4639
X3.2014Y-3.9639
X3.6014Y-3.9639
X5.0764Y-4.7139
X5.4764Y-4.7139
X12.3889Y-3.9639
X12.7889Y-3.9639
X11.4514Y-3.2139
X11.8514Y-3.2139
X1.8889Y-2.4639
X2.2889Y-2.4639
X3.5764Y-4.7139
X3.9764Y-4.7139
X1.2326Y-3.9639
X1.6326Y-3.9639
X7.8889Y-2.4639
X8.2889Y-2.4639
X6.3889Y-2.4639
X6.7889Y-2.4639
X2.4514Y-3.9639
X2.8514Y-3.9639
X5.4514Y-3.9639
X5.8514Y-3.9639
X6.0139Y-3.2139
X6.4139Y-3.2139
X7.3264Y-4.7139
X7.7264Y-4.7139
X6.2014Y-5.4639
X6.6014Y-5.4639
X5.8264Y-4.7139
X6.2264Y-4.7139
X9.0139Y-3.2139
X9.4139Y-3.2139
X9.5764Y-4.7139
X9.9764Y-4.7139
X4.1389Y-2.4639
X4.5389Y-2.4639
X7.1389Y-2.4639
X7.5389Y-2.4639
X8.6389Y-2.4639
X9.0389Y-2.4639
X4.5139Y-3.2139
X4.9139Y-3.2139
X2.2639Y-3.2139
X2.6639Y-3.2139
X8.2639Y-3.2139
X8.6639Y-3.2139
X12.3889Y-4.7139
X12.7889Y-4.7139
X8.8264Y-4.7139
X9.2264Y-4.7139
X10.8889Y-2.4639
X11.2889Y-2.4639
X10.1389Y-2.4639
X10.5389Y-2.4639
X9.3889Y-2.4639
X9.7889Y-2.4639
X3.0139Y-3.2139
X3.4139Y-3.2139
X12.3889Y-3.2139
X12.7889Y-3.2139
X3.0139Y-5.4639
X3.4139Y-5.4639
X10.8889Y-5.4639
X11.2889Y-5.4639
X6.2014Y-3.9639
X6.6014Y-3.9639
X11.6389Y-5.4639
X12.0389Y-5.4639
X2.6389Y-2.4639
X3.0389Y-2.4639
X1.1389Y-2.4639
X1.5389Y-2.4639
T3
X2.2776Y-4.4389
X10.9939Y-2.1889
X11.9339Y-2.1889
X4.1514Y-5.7389
X8.6514Y-5.7389
X10.9001Y-3.6889
X11.8401Y-3.6889
X1.3376Y-4.4389
T4
X12.5889Y-3.9639
X11.6514Y-3.2139
X2.0889Y-2.4639
X3.7764Y-4.7139
X1.4326Y-3.9639
X8.0889Y-2.4639
X6.5889Y-2.4639
X2.6514Y-3.9639
X5.6514Y-3.9639
X6.2139Y-3.2139
X7.5264Y-4.7139
X4.1514Y-5.1389
X6.4014Y-5.4639
X8.6514Y-5.1389
X6.0264Y-4.7139
X9.2139Y-3.2139
X9.7764Y-4.7139
X4.3389Y-2.4639
X7.3389Y-2.4639
X8.8389Y-2.4639
X4.7139Y-3.2139
X2.4639Y-3.2139
X8.4639Y-3.2139
X12.5889Y-4.7139
X9.0264Y-4.7139
X11.0889Y-2.4639
X10.3389Y-2.4639
X9.5889Y-2.4639
X3.2139Y-3.2139
X12.5889Y-3.2139
X3.2139Y-5.4639
X11.0889Y-5.4639
X6.4014Y-3.9639
X11.8389Y-5.4639
X2.8389Y-2.4639
X1.3389Y-2.4639
X5.4639Y-3.2139
X4.1514Y-3.9639
X7.9014Y-3.9639
X7.1514Y-3.9639
X11.8389Y-2.4639
X6.7764Y-4.7139
X10.9001Y-4.2889
X11.3701Y-3.9639
X11.8401Y-4.2889
X9.5889Y-5.4639
X1.3376Y-5.0389
X1.8076Y-4.7139
X2.2776Y-5.0389
X3.5889Y-2.4639
X4.9014Y-3.9639
X9.4014Y-3.9639
X3.9639Y-3.2139
X8.6514Y-3.9639
X4.5264Y-4.7139
X1.5264Y-5.4639
X1.6201Y-3.9639
X10.8076Y-4.7139
X12.5889Y-5.4639
X5.0889Y-2.4639
X5.8389Y-2.4639
X7.7139Y-3.2139
X9.9639Y-3.2139
X6.9639Y-3.2139
X3.0264Y-4.7139
X8.2764Y-4.7139
X1.5264Y-3.2139
X11.8389Y-4.7139
X10.1514Y-3.9639
X10.9939Y-2.7889
X11.4639Y-2.4639
X11.9339Y-2.7889
X10.7139Y-3.2139
X12.5889Y-2.4639
X3.4014Y-3.9639
X5.2764Y-4.7139
T0
M30
