G04 #@! TF.GenerationSoftware,KiCad,Pcbnew,(5.1.6)-1*
G04 #@! TF.CreationDate,2020-07-19T13:42:40-04:00*
G04 #@! TF.ProjectId,pcb-01,7063622d-3031-42e6-9b69-6361645f7063,01*
G04 #@! TF.SameCoordinates,Original*
G04 #@! TF.FileFunction,Legend,Bot*
G04 #@! TF.FilePolarity,Positive*
%FSLAX46Y46*%
G04 Gerber Fmt 4.6, Leading zero omitted, Abs format (unit mm)*
G04 Created by KiCad (PCBNEW (5.1.6)-1) date 2020-07-19 13:42:40*
%MOMM*%
%LPD*%
G01*
G04 APERTURE LIST*
%ADD10C,0.150000*%
%ADD11C,0.120000*%
%ADD12C,0.010000*%
%ADD13R,1.202000X1.902000*%
%ADD14C,2.642000*%
%ADD15C,1.803800*%
%ADD16C,4.089800*%
%ADD17R,0.702000X1.552000*%
%ADD18R,0.402000X1.552000*%
%ADD19O,1.102000X2.202000*%
%ADD20C,0.772000*%
%ADD21O,1.102000X1.702000*%
%ADD22C,3.150000*%
%ADD23R,1.002000X0.902000*%
%ADD24R,0.752000X1.162000*%
%ADD25R,1.302000X1.002000*%
G04 APERTURE END LIST*
D10*
X198994015Y-137662190D02*
X198613062Y-137662190D01*
X198851157Y-137328856D02*
X198851157Y-138185999D01*
X198803538Y-138281237D01*
X198708300Y-138328856D01*
X198613062Y-138328856D01*
X198279729Y-138328856D02*
X198279729Y-137328856D01*
X197851157Y-138328856D02*
X197851157Y-137805047D01*
X197898776Y-137709809D01*
X197994015Y-137662190D01*
X198136872Y-137662190D01*
X198232110Y-137709809D01*
X198279729Y-137757428D01*
X197374967Y-138328856D02*
X197374967Y-137662190D01*
X197374967Y-137328856D02*
X197422586Y-137376476D01*
X197374967Y-137424095D01*
X197327348Y-137376476D01*
X197374967Y-137328856D01*
X197374967Y-137424095D01*
X196898776Y-137662190D02*
X196898776Y-138328856D01*
X196898776Y-137757428D02*
X196851157Y-137709809D01*
X196755919Y-137662190D01*
X196613062Y-137662190D01*
X196517824Y-137709809D01*
X196470205Y-137805047D01*
X196470205Y-138328856D01*
X195565443Y-137662190D02*
X195565443Y-138471714D01*
X195613062Y-138566952D01*
X195660681Y-138614571D01*
X195755919Y-138662190D01*
X195898776Y-138662190D01*
X195994015Y-138614571D01*
X195565443Y-138281237D02*
X195660681Y-138328856D01*
X195851157Y-138328856D01*
X195946396Y-138281237D01*
X195994015Y-138233618D01*
X196041634Y-138138380D01*
X196041634Y-137852666D01*
X195994015Y-137757428D01*
X195946396Y-137709809D01*
X195851157Y-137662190D01*
X195660681Y-137662190D01*
X195565443Y-137709809D01*
X195136872Y-138281237D02*
X195041634Y-138328856D01*
X194851157Y-138328856D01*
X194755919Y-138281237D01*
X194708300Y-138185999D01*
X194708300Y-138138380D01*
X194755919Y-138043142D01*
X194851157Y-137995523D01*
X194994015Y-137995523D01*
X195089253Y-137947904D01*
X195136872Y-137852666D01*
X195136872Y-137805047D01*
X195089253Y-137709809D01*
X194994015Y-137662190D01*
X194851157Y-137662190D01*
X194755919Y-137709809D01*
X193089253Y-138328856D02*
X193089253Y-137805047D01*
X193136872Y-137709809D01*
X193232110Y-137662190D01*
X193422586Y-137662190D01*
X193517824Y-137709809D01*
X193089253Y-138281237D02*
X193184491Y-138328856D01*
X193422586Y-138328856D01*
X193517824Y-138281237D01*
X193565443Y-138185999D01*
X193565443Y-138090761D01*
X193517824Y-137995523D01*
X193422586Y-137947904D01*
X193184491Y-137947904D01*
X193089253Y-137900285D01*
X192613062Y-138328856D02*
X192613062Y-137662190D01*
X192613062Y-137852666D02*
X192565443Y-137757428D01*
X192517824Y-137709809D01*
X192422586Y-137662190D01*
X192327348Y-137662190D01*
X191613062Y-138281237D02*
X191708300Y-138328856D01*
X191898776Y-138328856D01*
X191994015Y-138281237D01*
X192041634Y-138185999D01*
X192041634Y-137805047D01*
X191994015Y-137709809D01*
X191898776Y-137662190D01*
X191708300Y-137662190D01*
X191613062Y-137709809D01*
X191565443Y-137805047D01*
X191565443Y-137900285D01*
X192041634Y-137995523D01*
X189946396Y-137662190D02*
X189946396Y-138471714D01*
X189994015Y-138566952D01*
X190041634Y-138614571D01*
X190136872Y-138662190D01*
X190279729Y-138662190D01*
X190374967Y-138614571D01*
X189946396Y-138281237D02*
X190041634Y-138328856D01*
X190232110Y-138328856D01*
X190327348Y-138281237D01*
X190374967Y-138233618D01*
X190422586Y-138138380D01*
X190422586Y-137852666D01*
X190374967Y-137757428D01*
X190327348Y-137709809D01*
X190232110Y-137662190D01*
X190041634Y-137662190D01*
X189946396Y-137709809D01*
X189327348Y-138328856D02*
X189422586Y-138281237D01*
X189470205Y-138233618D01*
X189517824Y-138138380D01*
X189517824Y-137852666D01*
X189470205Y-137757428D01*
X189422586Y-137709809D01*
X189327348Y-137662190D01*
X189184491Y-137662190D01*
X189089253Y-137709809D01*
X189041634Y-137757428D01*
X188994015Y-137852666D01*
X188994015Y-138138380D01*
X189041634Y-138233618D01*
X189089253Y-138281237D01*
X189184491Y-138328856D01*
X189327348Y-138328856D01*
X188565443Y-138328856D02*
X188565443Y-137662190D01*
X188565443Y-137328856D02*
X188613062Y-137376476D01*
X188565443Y-137424095D01*
X188517824Y-137376476D01*
X188565443Y-137328856D01*
X188565443Y-137424095D01*
X188089253Y-137662190D02*
X188089253Y-138328856D01*
X188089253Y-137757428D02*
X188041634Y-137709809D01*
X187946396Y-137662190D01*
X187803538Y-137662190D01*
X187708300Y-137709809D01*
X187660681Y-137805047D01*
X187660681Y-138328856D01*
X186755919Y-137662190D02*
X186755919Y-138471714D01*
X186803538Y-138566952D01*
X186851157Y-138614571D01*
X186946396Y-138662190D01*
X187089253Y-138662190D01*
X187184491Y-138614571D01*
X186755919Y-138281237D02*
X186851157Y-138328856D01*
X187041634Y-138328856D01*
X187136872Y-138281237D01*
X187184491Y-138233618D01*
X187232110Y-138138380D01*
X187232110Y-137852666D01*
X187184491Y-137757428D01*
X187136872Y-137709809D01*
X187041634Y-137662190D01*
X186851157Y-137662190D01*
X186755919Y-137709809D01*
X185613062Y-137662190D02*
X185422586Y-138328856D01*
X185232110Y-137852666D01*
X185041634Y-138328856D01*
X184851157Y-137662190D01*
X184089253Y-138281237D02*
X184184491Y-138328856D01*
X184374967Y-138328856D01*
X184470205Y-138281237D01*
X184517824Y-138185999D01*
X184517824Y-137805047D01*
X184470205Y-137709809D01*
X184374967Y-137662190D01*
X184184491Y-137662190D01*
X184089253Y-137709809D01*
X184041634Y-137805047D01*
X184041634Y-137900285D01*
X184517824Y-137995523D01*
X183470205Y-138328856D02*
X183565443Y-138281237D01*
X183613062Y-138185999D01*
X183613062Y-137328856D01*
X182946396Y-138328856D02*
X183041634Y-138281237D01*
X183089253Y-138185999D01*
X183089253Y-137328856D01*
X191541634Y-139978856D02*
X191541634Y-138978856D01*
X191541634Y-139359809D02*
X191446396Y-139312190D01*
X191255919Y-139312190D01*
X191160681Y-139359809D01*
X191113062Y-139407428D01*
X191065443Y-139502666D01*
X191065443Y-139788380D01*
X191113062Y-139883618D01*
X191160681Y-139931237D01*
X191255919Y-139978856D01*
X191446396Y-139978856D01*
X191541634Y-139931237D01*
X190732110Y-139312190D02*
X190494015Y-139978856D01*
X190255919Y-139312190D02*
X190494015Y-139978856D01*
X190589253Y-140216952D01*
X190636872Y-140264571D01*
X190732110Y-140312190D01*
X195660681Y-140962190D02*
X195660681Y-141771714D01*
X195708300Y-141866952D01*
X195755919Y-141914571D01*
X195851157Y-141962190D01*
X195994015Y-141962190D01*
X196089253Y-141914571D01*
X195660681Y-141581237D02*
X195755919Y-141628856D01*
X195946396Y-141628856D01*
X196041634Y-141581237D01*
X196089253Y-141533618D01*
X196136872Y-141438380D01*
X196136872Y-141152666D01*
X196089253Y-141057428D01*
X196041634Y-141009809D01*
X195946396Y-140962190D01*
X195755919Y-140962190D01*
X195660681Y-141009809D01*
X194803538Y-141581237D02*
X194898776Y-141628856D01*
X195089253Y-141628856D01*
X195184491Y-141581237D01*
X195232110Y-141485999D01*
X195232110Y-141105047D01*
X195184491Y-141009809D01*
X195089253Y-140962190D01*
X194898776Y-140962190D01*
X194803538Y-141009809D01*
X194755919Y-141105047D01*
X194755919Y-141200285D01*
X195232110Y-141295523D01*
X194327348Y-140962190D02*
X194327348Y-141628856D01*
X194327348Y-141057428D02*
X194279729Y-141009809D01*
X194184491Y-140962190D01*
X194041634Y-140962190D01*
X193946396Y-141009809D01*
X193898776Y-141105047D01*
X193898776Y-141628856D01*
X193041634Y-141581237D02*
X193136872Y-141628856D01*
X193327348Y-141628856D01*
X193422586Y-141581237D01*
X193470205Y-141485999D01*
X193470205Y-141105047D01*
X193422586Y-141009809D01*
X193327348Y-140962190D01*
X193136872Y-140962190D01*
X193041634Y-141009809D01*
X192994015Y-141105047D01*
X192994015Y-141200285D01*
X193470205Y-141295523D01*
X192565443Y-141628856D02*
X192565443Y-140962190D01*
X192565443Y-141152666D02*
X192517824Y-141057428D01*
X192470205Y-141009809D01*
X192374967Y-140962190D01*
X192279729Y-140962190D01*
X191946396Y-141628856D02*
X191946396Y-140962190D01*
X191946396Y-140628856D02*
X191994015Y-140676476D01*
X191946396Y-140724095D01*
X191898776Y-140676476D01*
X191946396Y-140628856D01*
X191946396Y-140724095D01*
X191041634Y-141581237D02*
X191136872Y-141628856D01*
X191327348Y-141628856D01*
X191422586Y-141581237D01*
X191470205Y-141533618D01*
X191517824Y-141438380D01*
X191517824Y-141152666D01*
X191470205Y-141057428D01*
X191422586Y-141009809D01*
X191327348Y-140962190D01*
X191136872Y-140962190D01*
X191041634Y-141009809D01*
X190851157Y-141724095D02*
X190089253Y-141724095D01*
X189851157Y-140962190D02*
X189851157Y-141962190D01*
X189851157Y-141009809D02*
X189755919Y-140962190D01*
X189565443Y-140962190D01*
X189470205Y-141009809D01*
X189422586Y-141057428D01*
X189374967Y-141152666D01*
X189374967Y-141438380D01*
X189422586Y-141533618D01*
X189470205Y-141581237D01*
X189565443Y-141628856D01*
X189755919Y-141628856D01*
X189851157Y-141581237D01*
X188517824Y-141628856D02*
X188517824Y-141105047D01*
X188565443Y-141009809D01*
X188660681Y-140962190D01*
X188851157Y-140962190D01*
X188946396Y-141009809D01*
X188517824Y-141581237D02*
X188613062Y-141628856D01*
X188851157Y-141628856D01*
X188946396Y-141581237D01*
X188994015Y-141485999D01*
X188994015Y-141390761D01*
X188946396Y-141295523D01*
X188851157Y-141247904D01*
X188613062Y-141247904D01*
X188517824Y-141200285D01*
X188041634Y-140962190D02*
X188041634Y-141628856D01*
X188041634Y-141057428D02*
X187994015Y-141009809D01*
X187898776Y-140962190D01*
X187755919Y-140962190D01*
X187660681Y-141009809D01*
X187613062Y-141105047D01*
X187613062Y-141628856D01*
X186708300Y-141628856D02*
X186708300Y-140628856D01*
X186708300Y-141581237D02*
X186803538Y-141628856D01*
X186994015Y-141628856D01*
X187089253Y-141581237D01*
X187136872Y-141533618D01*
X187184491Y-141438380D01*
X187184491Y-141152666D01*
X187136872Y-141057428D01*
X187089253Y-141009809D01*
X186994015Y-140962190D01*
X186803538Y-140962190D01*
X186708300Y-141009809D01*
X185803538Y-141628856D02*
X185803538Y-141105047D01*
X185851157Y-141009809D01*
X185946396Y-140962190D01*
X186136872Y-140962190D01*
X186232110Y-141009809D01*
X185803538Y-141581237D02*
X185898776Y-141628856D01*
X186136872Y-141628856D01*
X186232110Y-141581237D01*
X186279729Y-141485999D01*
X186279729Y-141390761D01*
X186232110Y-141295523D01*
X186136872Y-141247904D01*
X185898776Y-141247904D01*
X185803538Y-141200285D01*
X52941044Y-138856750D02*
G75*
G03*
X52941044Y-138856750I-1000000J0D01*
G01*
X49341044Y-141456750D02*
X54541044Y-141456750D01*
X49341044Y-136256750D02*
X49341044Y-141456750D01*
X54541044Y-136256750D02*
X49341044Y-136256750D01*
X54541044Y-141456750D02*
X54541044Y-136256750D01*
D11*
X54286100Y-99484805D02*
X53950224Y-99148929D01*
X53950224Y-99148929D02*
X53614348Y-99484805D01*
X53614348Y-109023675D02*
X53950224Y-109359551D01*
X53950224Y-109359551D02*
X54286100Y-109023675D01*
X49180789Y-104590116D02*
X48844913Y-104254240D01*
X48844913Y-104254240D02*
X49180789Y-103918364D01*
X58719659Y-103918364D02*
X59055535Y-104254240D01*
X59442886Y-137974557D02*
X59768444Y-137974557D01*
X59442886Y-138994557D02*
X59768444Y-138994557D01*
D12*
G36*
X126377151Y-134169760D02*
G01*
X126112730Y-134273943D01*
X125849841Y-134472744D01*
X125647813Y-134676700D01*
X125427222Y-134976526D01*
X125338413Y-135274108D01*
X125373686Y-135607344D01*
X125425330Y-135771714D01*
X125461013Y-135895738D01*
X125453896Y-136003696D01*
X125389390Y-136132650D01*
X125252907Y-136319660D01*
X125166196Y-136430009D01*
X124954742Y-136731755D01*
X124767658Y-137079345D01*
X124597690Y-137492721D01*
X124437585Y-137991824D01*
X124280091Y-138596595D01*
X124125233Y-139292179D01*
X124056818Y-139698674D01*
X123997787Y-140205802D01*
X123952751Y-140769133D01*
X123933232Y-141142750D01*
X123916559Y-141590725D01*
X123910286Y-141928933D01*
X123916938Y-142192533D01*
X123939041Y-142416689D01*
X123979119Y-142636561D01*
X124039697Y-142887310D01*
X124065662Y-142986791D01*
X124157352Y-143297424D01*
X124254345Y-143565163D01*
X124341694Y-143751071D01*
X124379039Y-143803180D01*
X124471859Y-143866184D01*
X124626513Y-143922793D01*
X124858732Y-143975841D01*
X125184247Y-144028161D01*
X125618787Y-144082586D01*
X126178083Y-144141950D01*
X126359149Y-144159839D01*
X126859154Y-144198574D01*
X127240552Y-144201929D01*
X127526293Y-144166583D01*
X127739327Y-144089215D01*
X127902606Y-143966502D01*
X127935358Y-143931715D01*
X128067589Y-143805036D01*
X128208124Y-143741437D01*
X128414048Y-143720259D01*
X128523037Y-143719036D01*
X128763039Y-143727656D01*
X128921399Y-143772284D01*
X129061406Y-143881077D01*
X129185173Y-144013599D01*
X129338480Y-144166322D01*
X129501251Y-144277367D01*
X129702679Y-144356042D01*
X129971958Y-144411652D01*
X130338281Y-144453503D01*
X130640863Y-144477635D01*
X130949493Y-144496421D01*
X131169753Y-144492125D01*
X131357840Y-144454560D01*
X131569955Y-144373541D01*
X131802006Y-144267173D01*
X132066492Y-144148196D01*
X132277644Y-144073206D01*
X132485726Y-144032051D01*
X132741004Y-144014579D01*
X133072006Y-144010673D01*
X133467618Y-144022212D01*
X133888910Y-144054102D01*
X134262951Y-144100285D01*
X134366533Y-144118191D01*
X134785705Y-144176051D01*
X135295229Y-144210871D01*
X135868236Y-144224067D01*
X136477857Y-144217057D01*
X137097224Y-144191256D01*
X137699470Y-144148081D01*
X138257724Y-144088950D01*
X138745119Y-144015279D01*
X139134787Y-143928483D01*
X139346783Y-143855608D01*
X139604331Y-143728400D01*
X139801438Y-143586407D01*
X139978194Y-143392726D01*
X140174689Y-143110450D01*
X140201604Y-143068708D01*
X140342837Y-142808149D01*
X140496402Y-142459712D01*
X140648429Y-142063147D01*
X140785049Y-141658204D01*
X140892393Y-141284633D01*
X140942136Y-141050276D01*
X140580517Y-141050276D01*
X140553564Y-141316566D01*
X140481387Y-141573901D01*
X140438006Y-141668082D01*
X140346721Y-141861014D01*
X140296331Y-142011454D01*
X140292863Y-142039841D01*
X140257370Y-142172730D01*
X140165262Y-142386584D01*
X140038104Y-142640075D01*
X139897455Y-142891879D01*
X139764878Y-143100668D01*
X139687524Y-143200077D01*
X139416121Y-143415765D01*
X139028519Y-143610629D01*
X138553465Y-143771404D01*
X138329407Y-143826766D01*
X137981844Y-143884242D01*
X137527913Y-143931058D01*
X137004625Y-143966094D01*
X136448988Y-143988229D01*
X135898012Y-143996342D01*
X135388706Y-143989312D01*
X134958079Y-143966019D01*
X134704863Y-143936533D01*
X134404759Y-143897351D01*
X134014902Y-143859907D01*
X133590651Y-143828984D01*
X133266437Y-143812265D01*
X132885573Y-143798886D01*
X132613137Y-143797514D01*
X132412618Y-143812473D01*
X132247505Y-143848088D01*
X132081287Y-143908685D01*
X131943035Y-143969041D01*
X131321463Y-144186488D01*
X130731632Y-144268362D01*
X130179946Y-144214294D01*
X129812028Y-144091906D01*
X129575653Y-143951259D01*
X129342672Y-143757946D01*
X129280132Y-143692310D01*
X129126041Y-143532601D01*
X129017678Y-143472261D01*
X128917337Y-143491893D01*
X128903903Y-143498777D01*
X128761350Y-143537301D01*
X128526317Y-143564396D01*
X128268234Y-143573893D01*
X127991938Y-143580825D01*
X127823367Y-143607604D01*
X127725510Y-143663204D01*
X127684521Y-143715442D01*
X127590114Y-143811213D01*
X127435108Y-143875647D01*
X127202057Y-143910333D01*
X126873514Y-143916854D01*
X126432030Y-143896799D01*
X126026715Y-143866145D01*
X125541538Y-143825346D01*
X125180220Y-143789867D01*
X124922195Y-143750577D01*
X124746900Y-143698345D01*
X124633770Y-143624041D01*
X124562243Y-143518534D01*
X124511753Y-143372692D01*
X124461737Y-143177385D01*
X124459981Y-143170477D01*
X124400321Y-142889480D01*
X124337521Y-142516362D01*
X124279781Y-142103705D01*
X124241846Y-141771568D01*
X124204030Y-141350633D01*
X124188347Y-141019293D01*
X124195748Y-140723555D01*
X124227183Y-140409424D01*
X124271224Y-140102425D01*
X124430399Y-139193866D01*
X124610540Y-138411396D01*
X124817508Y-137736752D01*
X125057164Y-137151668D01*
X125335368Y-136637881D01*
X125430283Y-136490334D01*
X125600269Y-136228184D01*
X125696999Y-136050352D01*
X125733096Y-135924148D01*
X125721187Y-135816884D01*
X125706764Y-135774457D01*
X125639849Y-135474542D01*
X125643404Y-135158339D01*
X125713334Y-134884389D01*
X125776604Y-134775457D01*
X126035356Y-134551735D01*
X126376573Y-134404712D01*
X126714622Y-134357322D01*
X126934588Y-134381768D01*
X127124313Y-134473958D01*
X127292609Y-134610949D01*
X127464039Y-134757491D01*
X127583117Y-134819453D01*
X127701967Y-134813004D01*
X127818961Y-134774235D01*
X128038782Y-134726284D01*
X128367916Y-134695015D01*
X128771558Y-134679851D01*
X129214908Y-134680217D01*
X129663164Y-134695536D01*
X130081524Y-134725231D01*
X130435186Y-134768727D01*
X130677149Y-134821560D01*
X131437400Y-135132858D01*
X132138704Y-135575432D01*
X132329341Y-135727284D01*
X132580412Y-135917832D01*
X132908079Y-136139517D01*
X133259643Y-136357523D01*
X133439971Y-136460964D01*
X134132123Y-136844403D01*
X134327779Y-136656998D01*
X134692865Y-136406388D01*
X135140429Y-136269687D01*
X135469303Y-136244179D01*
X135815556Y-136268383D01*
X136078951Y-136353766D01*
X136315555Y-136519484D01*
X136340644Y-136541886D01*
X136468250Y-136627332D01*
X136615239Y-136635017D01*
X136751848Y-136603657D01*
X137112194Y-136565484D01*
X137468158Y-136633751D01*
X137781909Y-136792772D01*
X138015618Y-137026863D01*
X138086470Y-137156966D01*
X138170036Y-137318754D01*
X138244349Y-137402228D01*
X138255989Y-137405322D01*
X138371226Y-137459239D01*
X138545819Y-137602355D01*
X138753434Y-137806718D01*
X138967743Y-138044376D01*
X139162412Y-138287377D01*
X139311111Y-138507769D01*
X139335474Y-138551256D01*
X139526184Y-138983693D01*
X139674971Y-139466184D01*
X139764903Y-139936159D01*
X139783791Y-140208189D01*
X139792184Y-140397048D01*
X139842479Y-140491200D01*
X139975053Y-140536567D01*
X140089691Y-140556087D01*
X140303248Y-140604487D01*
X140461862Y-140665381D01*
X140488834Y-140683105D01*
X140559768Y-140823099D01*
X140580517Y-141050276D01*
X140942136Y-141050276D01*
X140956590Y-140982184D01*
X140968097Y-140871936D01*
X140942128Y-140628930D01*
X140826717Y-140465414D01*
X140602891Y-140364263D01*
X140355974Y-140319452D01*
X139966292Y-140271893D01*
X139930006Y-139473608D01*
X139898316Y-139014455D01*
X139849915Y-138685838D01*
X139782664Y-138473884D01*
X139773058Y-138455323D01*
X139628526Y-138254731D01*
X139404043Y-138011092D01*
X139139735Y-137762888D01*
X138875731Y-137548600D01*
X138715317Y-137440985D01*
X138532845Y-137284250D01*
X138372261Y-137067430D01*
X138341632Y-137009196D01*
X138192894Y-136734261D01*
X138031770Y-136545753D01*
X137825806Y-136425252D01*
X137542552Y-136354341D01*
X137149554Y-136314601D01*
X137113740Y-136312300D01*
X136710722Y-136276721D01*
X136415513Y-136223642D01*
X136191121Y-136145555D01*
X136122804Y-136111110D01*
X135724203Y-135972003D01*
X135277347Y-135950780D01*
X134816804Y-136046132D01*
X134523435Y-136171608D01*
X134283897Y-136286037D01*
X134076761Y-136364891D01*
X133963130Y-136389322D01*
X133801539Y-136345689D01*
X133559755Y-136227441D01*
X133268522Y-136053549D01*
X132958587Y-135842988D01*
X132660695Y-135614730D01*
X132535126Y-135508088D01*
X132088661Y-135177489D01*
X131551106Y-134880075D01*
X130976402Y-134643328D01*
X130640863Y-134543009D01*
X130191894Y-134456318D01*
X129680191Y-134400831D01*
X129142529Y-134376545D01*
X128615682Y-134383456D01*
X128136424Y-134421560D01*
X127741530Y-134490853D01*
X127570786Y-134543340D01*
X127463987Y-134519801D01*
X127308770Y-134417046D01*
X127244143Y-134359915D01*
X127054141Y-134210845D01*
X126855434Y-134148496D01*
X126682777Y-134139607D01*
X126377151Y-134169760D01*
G37*
X126377151Y-134169760D02*
X126112730Y-134273943D01*
X125849841Y-134472744D01*
X125647813Y-134676700D01*
X125427222Y-134976526D01*
X125338413Y-135274108D01*
X125373686Y-135607344D01*
X125425330Y-135771714D01*
X125461013Y-135895738D01*
X125453896Y-136003696D01*
X125389390Y-136132650D01*
X125252907Y-136319660D01*
X125166196Y-136430009D01*
X124954742Y-136731755D01*
X124767658Y-137079345D01*
X124597690Y-137492721D01*
X124437585Y-137991824D01*
X124280091Y-138596595D01*
X124125233Y-139292179D01*
X124056818Y-139698674D01*
X123997787Y-140205802D01*
X123952751Y-140769133D01*
X123933232Y-141142750D01*
X123916559Y-141590725D01*
X123910286Y-141928933D01*
X123916938Y-142192533D01*
X123939041Y-142416689D01*
X123979119Y-142636561D01*
X124039697Y-142887310D01*
X124065662Y-142986791D01*
X124157352Y-143297424D01*
X124254345Y-143565163D01*
X124341694Y-143751071D01*
X124379039Y-143803180D01*
X124471859Y-143866184D01*
X124626513Y-143922793D01*
X124858732Y-143975841D01*
X125184247Y-144028161D01*
X125618787Y-144082586D01*
X126178083Y-144141950D01*
X126359149Y-144159839D01*
X126859154Y-144198574D01*
X127240552Y-144201929D01*
X127526293Y-144166583D01*
X127739327Y-144089215D01*
X127902606Y-143966502D01*
X127935358Y-143931715D01*
X128067589Y-143805036D01*
X128208124Y-143741437D01*
X128414048Y-143720259D01*
X128523037Y-143719036D01*
X128763039Y-143727656D01*
X128921399Y-143772284D01*
X129061406Y-143881077D01*
X129185173Y-144013599D01*
X129338480Y-144166322D01*
X129501251Y-144277367D01*
X129702679Y-144356042D01*
X129971958Y-144411652D01*
X130338281Y-144453503D01*
X130640863Y-144477635D01*
X130949493Y-144496421D01*
X131169753Y-144492125D01*
X131357840Y-144454560D01*
X131569955Y-144373541D01*
X131802006Y-144267173D01*
X132066492Y-144148196D01*
X132277644Y-144073206D01*
X132485726Y-144032051D01*
X132741004Y-144014579D01*
X133072006Y-144010673D01*
X133467618Y-144022212D01*
X133888910Y-144054102D01*
X134262951Y-144100285D01*
X134366533Y-144118191D01*
X134785705Y-144176051D01*
X135295229Y-144210871D01*
X135868236Y-144224067D01*
X136477857Y-144217057D01*
X137097224Y-144191256D01*
X137699470Y-144148081D01*
X138257724Y-144088950D01*
X138745119Y-144015279D01*
X139134787Y-143928483D01*
X139346783Y-143855608D01*
X139604331Y-143728400D01*
X139801438Y-143586407D01*
X139978194Y-143392726D01*
X140174689Y-143110450D01*
X140201604Y-143068708D01*
X140342837Y-142808149D01*
X140496402Y-142459712D01*
X140648429Y-142063147D01*
X140785049Y-141658204D01*
X140892393Y-141284633D01*
X140942136Y-141050276D01*
X140580517Y-141050276D01*
X140553564Y-141316566D01*
X140481387Y-141573901D01*
X140438006Y-141668082D01*
X140346721Y-141861014D01*
X140296331Y-142011454D01*
X140292863Y-142039841D01*
X140257370Y-142172730D01*
X140165262Y-142386584D01*
X140038104Y-142640075D01*
X139897455Y-142891879D01*
X139764878Y-143100668D01*
X139687524Y-143200077D01*
X139416121Y-143415765D01*
X139028519Y-143610629D01*
X138553465Y-143771404D01*
X138329407Y-143826766D01*
X137981844Y-143884242D01*
X137527913Y-143931058D01*
X137004625Y-143966094D01*
X136448988Y-143988229D01*
X135898012Y-143996342D01*
X135388706Y-143989312D01*
X134958079Y-143966019D01*
X134704863Y-143936533D01*
X134404759Y-143897351D01*
X134014902Y-143859907D01*
X133590651Y-143828984D01*
X133266437Y-143812265D01*
X132885573Y-143798886D01*
X132613137Y-143797514D01*
X132412618Y-143812473D01*
X132247505Y-143848088D01*
X132081287Y-143908685D01*
X131943035Y-143969041D01*
X131321463Y-144186488D01*
X130731632Y-144268362D01*
X130179946Y-144214294D01*
X129812028Y-144091906D01*
X129575653Y-143951259D01*
X129342672Y-143757946D01*
X129280132Y-143692310D01*
X129126041Y-143532601D01*
X129017678Y-143472261D01*
X128917337Y-143491893D01*
X128903903Y-143498777D01*
X128761350Y-143537301D01*
X128526317Y-143564396D01*
X128268234Y-143573893D01*
X127991938Y-143580825D01*
X127823367Y-143607604D01*
X127725510Y-143663204D01*
X127684521Y-143715442D01*
X127590114Y-143811213D01*
X127435108Y-143875647D01*
X127202057Y-143910333D01*
X126873514Y-143916854D01*
X126432030Y-143896799D01*
X126026715Y-143866145D01*
X125541538Y-143825346D01*
X125180220Y-143789867D01*
X124922195Y-143750577D01*
X124746900Y-143698345D01*
X124633770Y-143624041D01*
X124562243Y-143518534D01*
X124511753Y-143372692D01*
X124461737Y-143177385D01*
X124459981Y-143170477D01*
X124400321Y-142889480D01*
X124337521Y-142516362D01*
X124279781Y-142103705D01*
X124241846Y-141771568D01*
X124204030Y-141350633D01*
X124188347Y-141019293D01*
X124195748Y-140723555D01*
X124227183Y-140409424D01*
X124271224Y-140102425D01*
X124430399Y-139193866D01*
X124610540Y-138411396D01*
X124817508Y-137736752D01*
X125057164Y-137151668D01*
X125335368Y-136637881D01*
X125430283Y-136490334D01*
X125600269Y-136228184D01*
X125696999Y-136050352D01*
X125733096Y-135924148D01*
X125721187Y-135816884D01*
X125706764Y-135774457D01*
X125639849Y-135474542D01*
X125643404Y-135158339D01*
X125713334Y-134884389D01*
X125776604Y-134775457D01*
X126035356Y-134551735D01*
X126376573Y-134404712D01*
X126714622Y-134357322D01*
X126934588Y-134381768D01*
X127124313Y-134473958D01*
X127292609Y-134610949D01*
X127464039Y-134757491D01*
X127583117Y-134819453D01*
X127701967Y-134813004D01*
X127818961Y-134774235D01*
X128038782Y-134726284D01*
X128367916Y-134695015D01*
X128771558Y-134679851D01*
X129214908Y-134680217D01*
X129663164Y-134695536D01*
X130081524Y-134725231D01*
X130435186Y-134768727D01*
X130677149Y-134821560D01*
X131437400Y-135132858D01*
X132138704Y-135575432D01*
X132329341Y-135727284D01*
X132580412Y-135917832D01*
X132908079Y-136139517D01*
X133259643Y-136357523D01*
X133439971Y-136460964D01*
X134132123Y-136844403D01*
X134327779Y-136656998D01*
X134692865Y-136406388D01*
X135140429Y-136269687D01*
X135469303Y-136244179D01*
X135815556Y-136268383D01*
X136078951Y-136353766D01*
X136315555Y-136519484D01*
X136340644Y-136541886D01*
X136468250Y-136627332D01*
X136615239Y-136635017D01*
X136751848Y-136603657D01*
X137112194Y-136565484D01*
X137468158Y-136633751D01*
X137781909Y-136792772D01*
X138015618Y-137026863D01*
X138086470Y-137156966D01*
X138170036Y-137318754D01*
X138244349Y-137402228D01*
X138255989Y-137405322D01*
X138371226Y-137459239D01*
X138545819Y-137602355D01*
X138753434Y-137806718D01*
X138967743Y-138044376D01*
X139162412Y-138287377D01*
X139311111Y-138507769D01*
X139335474Y-138551256D01*
X139526184Y-138983693D01*
X139674971Y-139466184D01*
X139764903Y-139936159D01*
X139783791Y-140208189D01*
X139792184Y-140397048D01*
X139842479Y-140491200D01*
X139975053Y-140536567D01*
X140089691Y-140556087D01*
X140303248Y-140604487D01*
X140461862Y-140665381D01*
X140488834Y-140683105D01*
X140559768Y-140823099D01*
X140580517Y-141050276D01*
X140942136Y-141050276D01*
X140956590Y-140982184D01*
X140968097Y-140871936D01*
X140942128Y-140628930D01*
X140826717Y-140465414D01*
X140602891Y-140364263D01*
X140355974Y-140319452D01*
X139966292Y-140271893D01*
X139930006Y-139473608D01*
X139898316Y-139014455D01*
X139849915Y-138685838D01*
X139782664Y-138473884D01*
X139773058Y-138455323D01*
X139628526Y-138254731D01*
X139404043Y-138011092D01*
X139139735Y-137762888D01*
X138875731Y-137548600D01*
X138715317Y-137440985D01*
X138532845Y-137284250D01*
X138372261Y-137067430D01*
X138341632Y-137009196D01*
X138192894Y-136734261D01*
X138031770Y-136545753D01*
X137825806Y-136425252D01*
X137542552Y-136354341D01*
X137149554Y-136314601D01*
X137113740Y-136312300D01*
X136710722Y-136276721D01*
X136415513Y-136223642D01*
X136191121Y-136145555D01*
X136122804Y-136111110D01*
X135724203Y-135972003D01*
X135277347Y-135950780D01*
X134816804Y-136046132D01*
X134523435Y-136171608D01*
X134283897Y-136286037D01*
X134076761Y-136364891D01*
X133963130Y-136389322D01*
X133801539Y-136345689D01*
X133559755Y-136227441D01*
X133268522Y-136053549D01*
X132958587Y-135842988D01*
X132660695Y-135614730D01*
X132535126Y-135508088D01*
X132088661Y-135177489D01*
X131551106Y-134880075D01*
X130976402Y-134643328D01*
X130640863Y-134543009D01*
X130191894Y-134456318D01*
X129680191Y-134400831D01*
X129142529Y-134376545D01*
X128615682Y-134383456D01*
X128136424Y-134421560D01*
X127741530Y-134490853D01*
X127570786Y-134543340D01*
X127463987Y-134519801D01*
X127308770Y-134417046D01*
X127244143Y-134359915D01*
X127054141Y-134210845D01*
X126855434Y-134148496D01*
X126682777Y-134139607D01*
X126377151Y-134169760D01*
G36*
X136627550Y-137095276D02*
G01*
X136592421Y-137218637D01*
X136573862Y-137368377D01*
X136469453Y-137726359D01*
X136247980Y-138000525D01*
X135912040Y-138189201D01*
X135464231Y-138290714D01*
X135113617Y-138309161D01*
X134823826Y-138305421D01*
X134639309Y-138287552D01*
X134520220Y-138244002D01*
X134426714Y-138163223D01*
X134366801Y-138092677D01*
X134236290Y-137893310D01*
X134152704Y-137694892D01*
X134148548Y-137677465D01*
X134089438Y-137516155D01*
X134011694Y-137498517D01*
X133916067Y-137624380D01*
X133860961Y-137743031D01*
X133710443Y-138228635D01*
X133609643Y-138836944D01*
X133558617Y-139554279D01*
X133557422Y-140366963D01*
X133606114Y-141261318D01*
X133704748Y-142223667D01*
X133838751Y-143151827D01*
X133918079Y-143636904D01*
X134293328Y-143722049D01*
X134485929Y-143749802D01*
X134792157Y-143775559D01*
X135180498Y-143798351D01*
X135619440Y-143817209D01*
X136077470Y-143831164D01*
X136523076Y-143839247D01*
X136924743Y-143840488D01*
X137250961Y-143833918D01*
X137462578Y-143819523D01*
X137887724Y-143747905D01*
X138345017Y-143638025D01*
X138775497Y-143505956D01*
X139120205Y-143367767D01*
X139120538Y-143367606D01*
X139490690Y-143122237D01*
X139791965Y-142769699D01*
X140030992Y-142311538D01*
X140121491Y-142061936D01*
X140132966Y-141904859D01*
X140059880Y-141807670D01*
X139935878Y-141750780D01*
X139721833Y-141605430D01*
X139576144Y-141366924D01*
X139519303Y-141079131D01*
X139537190Y-140897329D01*
X139551953Y-140788217D01*
X138983415Y-140788217D01*
X138975011Y-141020458D01*
X138914261Y-141450783D01*
X138774928Y-141777527D01*
X138538326Y-142024370D01*
X138185769Y-142214990D01*
X137970578Y-142293239D01*
X137714762Y-142336812D01*
X137397673Y-142337146D01*
X137079603Y-142299201D01*
X136820840Y-142227938D01*
X136750069Y-142192829D01*
X136511925Y-141971735D01*
X136338824Y-141663867D01*
X136253970Y-141321432D01*
X136259511Y-141089084D01*
X136350525Y-140744161D01*
X136520619Y-140422406D01*
X136793343Y-140080346D01*
X136824390Y-140046360D01*
X137161172Y-139724255D01*
X137472479Y-139524756D01*
X137782648Y-139434140D01*
X137925801Y-139425227D01*
X138198747Y-139450209D01*
X138406649Y-139541074D01*
X138581211Y-139721697D01*
X138754139Y-140015956D01*
X138780770Y-140069091D01*
X138903616Y-140338052D01*
X138966307Y-140553967D01*
X138983415Y-140788217D01*
X139551953Y-140788217D01*
X139565842Y-140685569D01*
X139582037Y-140396352D01*
X139582808Y-140131955D01*
X139502923Y-139435208D01*
X139302695Y-138818503D01*
X138984707Y-138284714D01*
X138551543Y-137836713D01*
X138005786Y-137477370D01*
X137350021Y-137209558D01*
X136837422Y-137080166D01*
X136699015Y-137060275D01*
X136627550Y-137095276D01*
G37*
X136627550Y-137095276D02*
X136592421Y-137218637D01*
X136573862Y-137368377D01*
X136469453Y-137726359D01*
X136247980Y-138000525D01*
X135912040Y-138189201D01*
X135464231Y-138290714D01*
X135113617Y-138309161D01*
X134823826Y-138305421D01*
X134639309Y-138287552D01*
X134520220Y-138244002D01*
X134426714Y-138163223D01*
X134366801Y-138092677D01*
X134236290Y-137893310D01*
X134152704Y-137694892D01*
X134148548Y-137677465D01*
X134089438Y-137516155D01*
X134011694Y-137498517D01*
X133916067Y-137624380D01*
X133860961Y-137743031D01*
X133710443Y-138228635D01*
X133609643Y-138836944D01*
X133558617Y-139554279D01*
X133557422Y-140366963D01*
X133606114Y-141261318D01*
X133704748Y-142223667D01*
X133838751Y-143151827D01*
X133918079Y-143636904D01*
X134293328Y-143722049D01*
X134485929Y-143749802D01*
X134792157Y-143775559D01*
X135180498Y-143798351D01*
X135619440Y-143817209D01*
X136077470Y-143831164D01*
X136523076Y-143839247D01*
X136924743Y-143840488D01*
X137250961Y-143833918D01*
X137462578Y-143819523D01*
X137887724Y-143747905D01*
X138345017Y-143638025D01*
X138775497Y-143505956D01*
X139120205Y-143367767D01*
X139120538Y-143367606D01*
X139490690Y-143122237D01*
X139791965Y-142769699D01*
X140030992Y-142311538D01*
X140121491Y-142061936D01*
X140132966Y-141904859D01*
X140059880Y-141807670D01*
X139935878Y-141750780D01*
X139721833Y-141605430D01*
X139576144Y-141366924D01*
X139519303Y-141079131D01*
X139537190Y-140897329D01*
X139551953Y-140788217D01*
X138983415Y-140788217D01*
X138975011Y-141020458D01*
X138914261Y-141450783D01*
X138774928Y-141777527D01*
X138538326Y-142024370D01*
X138185769Y-142214990D01*
X137970578Y-142293239D01*
X137714762Y-142336812D01*
X137397673Y-142337146D01*
X137079603Y-142299201D01*
X136820840Y-142227938D01*
X136750069Y-142192829D01*
X136511925Y-141971735D01*
X136338824Y-141663867D01*
X136253970Y-141321432D01*
X136259511Y-141089084D01*
X136350525Y-140744161D01*
X136520619Y-140422406D01*
X136793343Y-140080346D01*
X136824390Y-140046360D01*
X137161172Y-139724255D01*
X137472479Y-139524756D01*
X137782648Y-139434140D01*
X137925801Y-139425227D01*
X138198747Y-139450209D01*
X138406649Y-139541074D01*
X138581211Y-139721697D01*
X138754139Y-140015956D01*
X138780770Y-140069091D01*
X138903616Y-140338052D01*
X138966307Y-140553967D01*
X138983415Y-140788217D01*
X139551953Y-140788217D01*
X139565842Y-140685569D01*
X139582037Y-140396352D01*
X139582808Y-140131955D01*
X139502923Y-139435208D01*
X139302695Y-138818503D01*
X138984707Y-138284714D01*
X138551543Y-137836713D01*
X138005786Y-137477370D01*
X137350021Y-137209558D01*
X136837422Y-137080166D01*
X136699015Y-137060275D01*
X136627550Y-137095276D01*
G36*
X128588305Y-134825873D02*
G01*
X127817474Y-134960065D01*
X127120693Y-135218879D01*
X126496663Y-135602997D01*
X125944080Y-136113107D01*
X125461644Y-136749892D01*
X125321887Y-136980493D01*
X125227127Y-137169677D01*
X125116363Y-137427213D01*
X125001105Y-137721030D01*
X124892864Y-138019055D01*
X124803151Y-138289216D01*
X124743477Y-138499442D01*
X124725353Y-138617659D01*
X124729731Y-138630380D01*
X124801031Y-138614041D01*
X124889133Y-138550285D01*
X125029877Y-138450794D01*
X125238428Y-138328746D01*
X125338824Y-138276110D01*
X125718540Y-138155358D01*
X126150907Y-138130398D01*
X126599255Y-138192249D01*
X127026913Y-138331932D01*
X127397211Y-138540466D01*
X127673477Y-138808871D01*
X127705849Y-138855758D01*
X127855615Y-139174466D01*
X127975540Y-139601619D01*
X128062618Y-140103019D01*
X128113843Y-140644470D01*
X128126209Y-141191776D01*
X128096710Y-141710740D01*
X128022340Y-142167166D01*
X128003484Y-142241797D01*
X127940771Y-142483912D01*
X127897240Y-142670565D01*
X127883149Y-142753655D01*
X127945560Y-142798727D01*
X128105404Y-142871816D01*
X128321601Y-142957578D01*
X128553070Y-143040671D01*
X128758729Y-143105750D01*
X128897499Y-143137473D01*
X128913454Y-143138465D01*
X128941056Y-143072951D01*
X128969692Y-142904118D01*
X128986460Y-142744000D01*
X129090384Y-142308784D01*
X129318645Y-141939009D01*
X129661593Y-141644318D01*
X130109575Y-141434353D01*
X130366922Y-141364802D01*
X130644464Y-141299417D01*
X130894550Y-141230637D01*
X131029717Y-141185598D01*
X131170595Y-141110562D01*
X131211069Y-141003281D01*
X131195640Y-140869418D01*
X131098333Y-140192010D01*
X131039561Y-139498866D01*
X131019549Y-138822406D01*
X131038523Y-138195052D01*
X131096708Y-137649223D01*
X131170792Y-137296091D01*
X131344828Y-136780475D01*
X131560912Y-136316290D01*
X131797380Y-135949932D01*
X131802062Y-135944054D01*
X131926342Y-135779414D01*
X131965797Y-135681799D01*
X131930413Y-135608337D01*
X131889467Y-135568786D01*
X131554777Y-135340093D01*
X131104160Y-135141449D01*
X130565217Y-134981323D01*
X129965551Y-134868182D01*
X129434490Y-134815615D01*
X128588305Y-134825873D01*
G37*
X128588305Y-134825873D02*
X127817474Y-134960065D01*
X127120693Y-135218879D01*
X126496663Y-135602997D01*
X125944080Y-136113107D01*
X125461644Y-136749892D01*
X125321887Y-136980493D01*
X125227127Y-137169677D01*
X125116363Y-137427213D01*
X125001105Y-137721030D01*
X124892864Y-138019055D01*
X124803151Y-138289216D01*
X124743477Y-138499442D01*
X124725353Y-138617659D01*
X124729731Y-138630380D01*
X124801031Y-138614041D01*
X124889133Y-138550285D01*
X125029877Y-138450794D01*
X125238428Y-138328746D01*
X125338824Y-138276110D01*
X125718540Y-138155358D01*
X126150907Y-138130398D01*
X126599255Y-138192249D01*
X127026913Y-138331932D01*
X127397211Y-138540466D01*
X127673477Y-138808871D01*
X127705849Y-138855758D01*
X127855615Y-139174466D01*
X127975540Y-139601619D01*
X128062618Y-140103019D01*
X128113843Y-140644470D01*
X128126209Y-141191776D01*
X128096710Y-141710740D01*
X128022340Y-142167166D01*
X128003484Y-142241797D01*
X127940771Y-142483912D01*
X127897240Y-142670565D01*
X127883149Y-142753655D01*
X127945560Y-142798727D01*
X128105404Y-142871816D01*
X128321601Y-142957578D01*
X128553070Y-143040671D01*
X128758729Y-143105750D01*
X128897499Y-143137473D01*
X128913454Y-143138465D01*
X128941056Y-143072951D01*
X128969692Y-142904118D01*
X128986460Y-142744000D01*
X129090384Y-142308784D01*
X129318645Y-141939009D01*
X129661593Y-141644318D01*
X130109575Y-141434353D01*
X130366922Y-141364802D01*
X130644464Y-141299417D01*
X130894550Y-141230637D01*
X131029717Y-141185598D01*
X131170595Y-141110562D01*
X131211069Y-141003281D01*
X131195640Y-140869418D01*
X131098333Y-140192010D01*
X131039561Y-139498866D01*
X131019549Y-138822406D01*
X131038523Y-138195052D01*
X131096708Y-137649223D01*
X131170792Y-137296091D01*
X131344828Y-136780475D01*
X131560912Y-136316290D01*
X131797380Y-135949932D01*
X131802062Y-135944054D01*
X131926342Y-135779414D01*
X131965797Y-135681799D01*
X131930413Y-135608337D01*
X131889467Y-135568786D01*
X131554777Y-135340093D01*
X131104160Y-135141449D01*
X130565217Y-134981323D01*
X129965551Y-134868182D01*
X129434490Y-134815615D01*
X128588305Y-134825873D01*
D11*
X172181326Y-44990596D02*
X181581326Y-44990596D01*
X181581326Y-50790596D02*
X181581326Y-48790596D01*
X181581326Y-46890596D02*
X181581326Y-44990596D01*
X172181326Y-50790596D02*
X172181326Y-48790596D01*
X172181326Y-46890596D02*
X172181326Y-44990596D01*
X181779451Y-55226086D02*
X182105009Y-55226086D01*
X181779451Y-56246086D02*
X182105009Y-56246086D01*
X64235180Y-138095177D02*
X64235180Y-139025177D01*
X64235180Y-141255177D02*
X64235180Y-140325177D01*
X64235180Y-141255177D02*
X62075180Y-141255177D01*
X64235180Y-138095177D02*
X62775180Y-138095177D01*
X47832433Y-86784320D02*
X49292433Y-86784320D01*
X47832433Y-83624320D02*
X49992433Y-83624320D01*
X47832433Y-83624320D02*
X47832433Y-84554320D01*
X47832433Y-86784320D02*
X47832433Y-85854320D01*
X178492562Y-60492064D02*
X178492562Y-62942064D01*
X175272562Y-62292064D02*
X175272562Y-60492064D01*
X178880358Y-56763931D02*
X178880358Y-57089489D01*
X177860358Y-56763931D02*
X177860358Y-57089489D01*
X59442886Y-136910972D02*
X59768444Y-136910972D01*
X59442886Y-135890972D02*
X59768444Y-135890972D01*
X50541142Y-90349765D02*
X50215584Y-90349765D01*
X50541142Y-91369765D02*
X50215584Y-91369765D01*
X49945828Y-78741220D02*
X49620270Y-78741220D01*
X49945828Y-79761220D02*
X49620270Y-79761220D01*
X175903798Y-56763931D02*
X175903798Y-57089489D01*
X174883798Y-56763931D02*
X174883798Y-57089489D01*
X181779451Y-56714366D02*
X182105009Y-56714366D01*
X181779451Y-57734366D02*
X182105009Y-57734366D01*
X58605665Y-139806417D02*
X60605665Y-139806417D01*
X60605665Y-139806417D02*
X60605665Y-143706417D01*
X58605665Y-139806417D02*
X58605665Y-143706417D01*
X50568983Y-82954320D02*
X50568983Y-86854320D01*
X52568983Y-82954320D02*
X52568983Y-86854320D01*
X50568983Y-82954320D02*
X52568983Y-82954320D01*
X53787445Y-110887936D02*
X54113003Y-110887936D01*
X53787445Y-111907936D02*
X54113003Y-111907936D01*
X53787445Y-94516966D02*
X54113003Y-94516966D01*
X53787445Y-95536966D02*
X54113003Y-95536966D01*
X53787445Y-112376206D02*
X54113003Y-112376206D01*
X53787445Y-113396206D02*
X54113003Y-113396206D01*
X45998843Y-104417019D02*
X45998843Y-104091461D01*
X47018843Y-104417019D02*
X47018843Y-104091461D01*
X44510568Y-104417019D02*
X44510568Y-104091461D01*
X45530568Y-104417019D02*
X45530568Y-104091461D01*
X61041788Y-103390524D02*
X61271993Y-103160319D01*
X60320539Y-102669275D02*
X60550744Y-102439070D01*
X53787445Y-96005236D02*
X54113003Y-96005236D01*
X53787445Y-97025236D02*
X54113003Y-97025236D01*
X66961730Y-139837956D02*
X66961730Y-139512398D01*
X65941730Y-139837956D02*
X65941730Y-139512398D01*
X50541142Y-88861490D02*
X50215584Y-88861490D01*
X50541142Y-89881490D02*
X50215584Y-89881490D01*
X173175329Y-56543742D02*
X172849771Y-56543742D01*
X173175329Y-55523742D02*
X172849771Y-55523742D01*
X49945828Y-80229495D02*
X49620270Y-80229495D01*
X49945828Y-81249495D02*
X49620270Y-81249495D01*
X231757886Y-87156600D02*
X231757886Y-83256600D01*
X229757886Y-87156600D02*
X229757886Y-83256600D01*
X231757886Y-87156600D02*
X229757886Y-87156600D01*
X317482814Y-144306552D02*
X317482814Y-140406552D01*
X315482814Y-144306552D02*
X315482814Y-140406552D01*
X317482814Y-144306552D02*
X315482814Y-144306552D01*
X298432830Y-144306552D02*
X298432830Y-140406552D01*
X296432830Y-144306552D02*
X296432830Y-140406552D01*
X298432830Y-144306552D02*
X296432830Y-144306552D01*
X279382846Y-144306552D02*
X279382846Y-140406552D01*
X277382846Y-144306552D02*
X277382846Y-140406552D01*
X279382846Y-144306552D02*
X277382846Y-144306552D01*
X241282878Y-144306552D02*
X241282878Y-140406552D01*
X239282878Y-144306552D02*
X239282878Y-140406552D01*
X241282878Y-144306552D02*
X239282878Y-144306552D01*
X160320446Y-144306552D02*
X160320446Y-140406552D01*
X158320446Y-144306552D02*
X158320446Y-140406552D01*
X160320446Y-144306552D02*
X158320446Y-144306552D01*
X79358014Y-144306552D02*
X79358014Y-140406552D01*
X77358014Y-144306552D02*
X77358014Y-140406552D01*
X79358014Y-144306552D02*
X77358014Y-144306552D01*
X36495550Y-144293660D02*
X36495550Y-140393660D01*
X34495550Y-144293660D02*
X34495550Y-140393660D01*
X36495550Y-144293660D02*
X34495550Y-144293660D01*
X317482814Y-125256568D02*
X317482814Y-121356568D01*
X315482814Y-125256568D02*
X315482814Y-121356568D01*
X317482814Y-125256568D02*
X315482814Y-125256568D01*
X298432830Y-125256568D02*
X298432830Y-121356568D01*
X296432830Y-125256568D02*
X296432830Y-121356568D01*
X298432830Y-125256568D02*
X296432830Y-125256568D01*
X272239102Y-125256568D02*
X272239102Y-121356568D01*
X270239102Y-125256568D02*
X270239102Y-121356568D01*
X272239102Y-125256568D02*
X270239102Y-125256568D01*
X246045374Y-125256568D02*
X246045374Y-121356568D01*
X244045374Y-125256568D02*
X244045374Y-121356568D01*
X246045374Y-125256568D02*
X244045374Y-125256568D01*
X226995390Y-125256568D02*
X226995390Y-121356568D01*
X224995390Y-125256568D02*
X224995390Y-121356568D01*
X226995390Y-125256568D02*
X224995390Y-125256568D01*
X207945406Y-125256568D02*
X207945406Y-121356568D01*
X205945406Y-125256568D02*
X205945406Y-121356568D01*
X207945406Y-125256568D02*
X205945406Y-125256568D01*
X188895422Y-125256568D02*
X188895422Y-121356568D01*
X186895422Y-125256568D02*
X186895422Y-121356568D01*
X188895422Y-125256568D02*
X186895422Y-125256568D01*
X169845438Y-125256568D02*
X169845438Y-121356568D01*
X167845438Y-125256568D02*
X167845438Y-121356568D01*
X169845438Y-125256568D02*
X167845438Y-125256568D01*
X150795454Y-125256568D02*
X150795454Y-121356568D01*
X148795454Y-125256568D02*
X148795454Y-121356568D01*
X150795454Y-125256568D02*
X148795454Y-125256568D01*
X131745470Y-125256568D02*
X131745470Y-121356568D01*
X129745470Y-125256568D02*
X129745470Y-121356568D01*
X131745470Y-125256568D02*
X129745470Y-125256568D01*
X112695486Y-125256568D02*
X112695486Y-121356568D01*
X110695486Y-125256568D02*
X110695486Y-121356568D01*
X112695486Y-125256568D02*
X110695486Y-125256568D01*
X93645502Y-125256568D02*
X93645502Y-121356568D01*
X91645502Y-125256568D02*
X91645502Y-121356568D01*
X93645502Y-125256568D02*
X91645502Y-125256568D01*
X74595518Y-125256568D02*
X74595518Y-121356568D01*
X72595518Y-125256568D02*
X72595518Y-121356568D01*
X74595518Y-125256568D02*
X72595518Y-125256568D01*
X43639294Y-125256568D02*
X43639294Y-121356568D01*
X41639294Y-125256568D02*
X41639294Y-121356568D01*
X43639294Y-125256568D02*
X41639294Y-125256568D01*
X317482814Y-106206584D02*
X317482814Y-102306584D01*
X315482814Y-106206584D02*
X315482814Y-102306584D01*
X317482814Y-106206584D02*
X315482814Y-106206584D01*
X286526590Y-106206584D02*
X286526590Y-102306584D01*
X284526590Y-106206584D02*
X284526590Y-102306584D01*
X286526590Y-106206584D02*
X284526590Y-106206584D01*
X255570366Y-106206584D02*
X255570366Y-102306584D01*
X253570366Y-106206584D02*
X253570366Y-102306584D01*
X255570366Y-106206584D02*
X253570366Y-106206584D01*
X236520382Y-106206584D02*
X236520382Y-102306584D01*
X234520382Y-106206584D02*
X234520382Y-102306584D01*
X236520382Y-106206584D02*
X234520382Y-106206584D01*
X217470398Y-106206584D02*
X217470398Y-102306584D01*
X215470398Y-106206584D02*
X215470398Y-102306584D01*
X217470398Y-106206584D02*
X215470398Y-106206584D01*
X198420414Y-106206584D02*
X198420414Y-102306584D01*
X196420414Y-106206584D02*
X196420414Y-102306584D01*
X198420414Y-106206584D02*
X196420414Y-106206584D01*
X179370430Y-106206584D02*
X179370430Y-102306584D01*
X177370430Y-106206584D02*
X177370430Y-102306584D01*
X179370430Y-106206584D02*
X177370430Y-106206584D01*
X160320446Y-106206584D02*
X160320446Y-102306584D01*
X158320446Y-106206584D02*
X158320446Y-102306584D01*
X160320446Y-106206584D02*
X158320446Y-106206584D01*
X141270462Y-106206584D02*
X141270462Y-102306584D01*
X139270462Y-106206584D02*
X139270462Y-102306584D01*
X141270462Y-106206584D02*
X139270462Y-106206584D01*
X122220478Y-106206584D02*
X122220478Y-102306584D01*
X120220478Y-106206584D02*
X120220478Y-102306584D01*
X122220478Y-106206584D02*
X120220478Y-106206584D01*
X103170494Y-106206584D02*
X103170494Y-102306584D01*
X101170494Y-106206584D02*
X101170494Y-102306584D01*
X103170494Y-106206584D02*
X101170494Y-106206584D01*
X84120510Y-106206584D02*
X84120510Y-102306584D01*
X82120510Y-106206584D02*
X82120510Y-102306584D01*
X84120510Y-106206584D02*
X82120510Y-106206584D01*
X65070460Y-106206586D02*
X65070460Y-102306586D01*
X63070460Y-106206586D02*
X63070460Y-102306586D01*
X65070460Y-106206586D02*
X63070460Y-106206586D01*
X34114302Y-106206584D02*
X34114302Y-102306584D01*
X32114302Y-106206584D02*
X32114302Y-102306584D01*
X34114302Y-106206584D02*
X32114302Y-106206584D01*
X317482814Y-87156600D02*
X317482814Y-83256600D01*
X315482814Y-87156600D02*
X315482814Y-83256600D01*
X317482814Y-87156600D02*
X315482814Y-87156600D01*
X293670334Y-87156600D02*
X293670334Y-83256600D01*
X291670334Y-87156600D02*
X291670334Y-83256600D01*
X293670334Y-87156600D02*
X291670334Y-87156600D01*
X269857854Y-87156600D02*
X269857854Y-83256600D01*
X267857854Y-87156600D02*
X267857854Y-83256600D01*
X269857854Y-87156600D02*
X267857854Y-87156600D01*
X250807870Y-87156600D02*
X250807870Y-83256600D01*
X248807870Y-87156600D02*
X248807870Y-83256600D01*
X250807870Y-87156600D02*
X248807870Y-87156600D01*
X212707902Y-87156600D02*
X212707902Y-83256600D01*
X210707902Y-87156600D02*
X210707902Y-83256600D01*
X212707902Y-87156600D02*
X210707902Y-87156600D01*
X193657918Y-87156600D02*
X193657918Y-83256600D01*
X191657918Y-87156600D02*
X191657918Y-83256600D01*
X193657918Y-87156600D02*
X191657918Y-87156600D01*
X174607934Y-87156600D02*
X174607934Y-83256600D01*
X172607934Y-87156600D02*
X172607934Y-83256600D01*
X174607934Y-87156600D02*
X172607934Y-87156600D01*
X155557950Y-87156600D02*
X155557950Y-83256600D01*
X153557950Y-87156600D02*
X153557950Y-83256600D01*
X155557950Y-87156600D02*
X153557950Y-87156600D01*
X136507966Y-87156600D02*
X136507966Y-83256600D01*
X134507966Y-87156600D02*
X134507966Y-83256600D01*
X136507966Y-87156600D02*
X134507966Y-87156600D01*
X117457982Y-87156600D02*
X117457982Y-83256600D01*
X115457982Y-87156600D02*
X115457982Y-83256600D01*
X117457982Y-87156600D02*
X115457982Y-87156600D01*
X98407998Y-87156600D02*
X98407998Y-83256600D01*
X96407998Y-87156600D02*
X96407998Y-83256600D01*
X98407998Y-87156600D02*
X96407998Y-87156600D01*
X79358014Y-87156600D02*
X79358014Y-83256600D01*
X77358014Y-87156600D02*
X77358014Y-83256600D01*
X79358014Y-87156600D02*
X77358014Y-87156600D01*
X60308030Y-87156600D02*
X60308030Y-83256600D01*
X58308030Y-87156600D02*
X58308030Y-83256600D01*
X60308030Y-87156600D02*
X58308030Y-87156600D01*
X36495550Y-87156600D02*
X36495550Y-83256600D01*
X34495550Y-87156600D02*
X34495550Y-83256600D01*
X36495550Y-87156600D02*
X34495550Y-87156600D01*
X317482814Y-68106616D02*
X317482814Y-64206616D01*
X315482814Y-68106616D02*
X315482814Y-64206616D01*
X317482814Y-68106616D02*
X315482814Y-68106616D01*
X298581658Y-68106616D02*
X298581658Y-64206616D01*
X296581658Y-68106616D02*
X296581658Y-64206616D01*
X298581658Y-68106616D02*
X296581658Y-68106616D01*
X279382846Y-68106616D02*
X279382846Y-64206616D01*
X277382846Y-68106616D02*
X277382846Y-64206616D01*
X279382846Y-68106616D02*
X277382846Y-68106616D01*
X260332862Y-68106616D02*
X260332862Y-64206616D01*
X258332862Y-68106616D02*
X258332862Y-64206616D01*
X260332862Y-68106616D02*
X258332862Y-68106616D01*
X241282878Y-68106616D02*
X241282878Y-64206616D01*
X239282878Y-68106616D02*
X239282878Y-64206616D01*
X241282878Y-68106616D02*
X239282878Y-68106616D01*
X222232894Y-68106616D02*
X222232894Y-64206616D01*
X220232894Y-68106616D02*
X220232894Y-64206616D01*
X222232894Y-68106616D02*
X220232894Y-68106616D01*
X203182910Y-68106616D02*
X203182910Y-64206616D01*
X201182910Y-68106616D02*
X201182910Y-64206616D01*
X203182910Y-68106616D02*
X201182910Y-68106616D01*
X184132926Y-68106616D02*
X184132926Y-64206616D01*
X182132926Y-68106616D02*
X182132926Y-64206616D01*
X184132926Y-68106616D02*
X182132926Y-68106616D01*
X165082942Y-68106616D02*
X165082942Y-64206616D01*
X163082942Y-68106616D02*
X163082942Y-64206616D01*
X165082942Y-68106616D02*
X163082942Y-68106616D01*
X146032958Y-68106616D02*
X146032958Y-64206616D01*
X144032958Y-68106616D02*
X144032958Y-64206616D01*
X146032958Y-68106616D02*
X144032958Y-68106616D01*
X126982974Y-68106616D02*
X126982974Y-64206616D01*
X124982974Y-68106616D02*
X124982974Y-64206616D01*
X126982974Y-68106616D02*
X124982974Y-68106616D01*
X107932990Y-68106616D02*
X107932990Y-64206616D01*
X105932990Y-68106616D02*
X105932990Y-64206616D01*
X107932990Y-68106616D02*
X105932990Y-68106616D01*
X88883006Y-68106616D02*
X88883006Y-64206616D01*
X86883006Y-68106616D02*
X86883006Y-64206616D01*
X88883006Y-68106616D02*
X86883006Y-68106616D01*
X69833022Y-68106616D02*
X69833022Y-64206616D01*
X67833022Y-68106616D02*
X67833022Y-64206616D01*
X69833022Y-68106616D02*
X67833022Y-68106616D01*
X50783038Y-68106616D02*
X50783038Y-64206616D01*
X48783038Y-68106616D02*
X48783038Y-64206616D01*
X50783038Y-68106616D02*
X48783038Y-68106616D01*
X31733054Y-68106616D02*
X31733054Y-64206616D01*
X29733054Y-68106616D02*
X29733054Y-64206616D01*
X31733054Y-68106616D02*
X29733054Y-68106616D01*
D10*
X48281805Y-137047226D02*
X48329424Y-137190083D01*
X48329424Y-137428178D01*
X48281805Y-137523416D01*
X48234186Y-137571035D01*
X48138948Y-137618654D01*
X48043710Y-137618654D01*
X47948472Y-137571035D01*
X47900853Y-137523416D01*
X47853234Y-137428178D01*
X47805615Y-137237702D01*
X47757996Y-137142464D01*
X47710377Y-137094845D01*
X47615139Y-137047226D01*
X47519901Y-137047226D01*
X47424663Y-137094845D01*
X47377044Y-137142464D01*
X47329424Y-137237702D01*
X47329424Y-137475797D01*
X47377044Y-137618654D01*
X47329424Y-137951988D02*
X48329424Y-138190083D01*
X47615139Y-138380559D01*
X48329424Y-138571035D01*
X47329424Y-138809130D01*
X47329424Y-139618654D02*
X47329424Y-139428178D01*
X47377044Y-139332940D01*
X47424663Y-139285321D01*
X47567520Y-139190083D01*
X47757996Y-139142464D01*
X48138948Y-139142464D01*
X48234186Y-139190083D01*
X48281805Y-139237702D01*
X48329424Y-139332940D01*
X48329424Y-139523416D01*
X48281805Y-139618654D01*
X48234186Y-139666273D01*
X48138948Y-139713892D01*
X47900853Y-139713892D01*
X47805615Y-139666273D01*
X47757996Y-139618654D01*
X47710377Y-139523416D01*
X47710377Y-139332940D01*
X47757996Y-139237702D01*
X47805615Y-139190083D01*
X47900853Y-139142464D01*
X47329424Y-140047226D02*
X47329424Y-140713892D01*
X48329424Y-140285321D01*
X58284452Y-100997507D02*
X57712032Y-101569927D01*
X57611017Y-101603599D01*
X57543673Y-101603599D01*
X57442658Y-101569927D01*
X57307971Y-101435240D01*
X57274299Y-101334225D01*
X57274299Y-101266881D01*
X57307971Y-101165866D01*
X57880391Y-100593446D01*
X57611017Y-100324072D02*
X57173284Y-99886340D01*
X57139612Y-100391416D01*
X57038597Y-100290401D01*
X56937582Y-100256729D01*
X56870238Y-100256729D01*
X56769223Y-100290401D01*
X56600864Y-100458759D01*
X56567192Y-100559775D01*
X56567192Y-100627118D01*
X56600864Y-100728133D01*
X56802895Y-100930164D01*
X56903910Y-100963836D01*
X56971253Y-100963836D01*
X59772331Y-140271699D02*
X59819950Y-140319318D01*
X59962807Y-140366937D01*
X60058045Y-140366937D01*
X60200903Y-140319318D01*
X60296141Y-140224080D01*
X60343760Y-140128842D01*
X60391379Y-139938366D01*
X60391379Y-139795509D01*
X60343760Y-139605033D01*
X60296141Y-139509795D01*
X60200903Y-139414557D01*
X60058045Y-139366937D01*
X59962807Y-139366937D01*
X59819950Y-139414557D01*
X59772331Y-139462176D01*
X58915188Y-139700271D02*
X58915188Y-140366937D01*
X59153284Y-139319318D02*
X59391379Y-140033604D01*
X58772331Y-140033604D01*
X54593081Y-96814108D02*
X54640700Y-96861727D01*
X54783557Y-96909346D01*
X54878795Y-96909346D01*
X55021652Y-96861727D01*
X55116890Y-96766489D01*
X55164509Y-96671251D01*
X55212128Y-96480775D01*
X55212128Y-96337918D01*
X55164509Y-96147442D01*
X55116890Y-96052204D01*
X55021652Y-95956966D01*
X54878795Y-95909346D01*
X54783557Y-95909346D01*
X54640700Y-95956966D01*
X54593081Y-96004585D01*
X53640700Y-96909346D02*
X54212128Y-96909346D01*
X53926414Y-96909346D02*
X53926414Y-95909346D01*
X54021652Y-96052204D01*
X54116890Y-96147442D01*
X54212128Y-96195061D01*
X53259747Y-96004585D02*
X53212128Y-95956966D01*
X53116890Y-95909346D01*
X52878795Y-95909346D01*
X52783557Y-95956966D01*
X52735938Y-96004585D01*
X52688319Y-96099823D01*
X52688319Y-96195061D01*
X52735938Y-96337918D01*
X53307366Y-96909346D01*
X52688319Y-96909346D01*
%LPC*%
D13*
X50091044Y-141956750D03*
X53791044Y-135756750D03*
X53791044Y-141956750D03*
X50091044Y-135756750D03*
G36*
G01*
X58733094Y-103609359D02*
X58166701Y-104175751D01*
G75*
G02*
X58042251Y-104175751I-62225J62225D01*
G01*
X57917800Y-104051300D01*
G75*
G02*
X57917800Y-103926850I62225J62225D01*
G01*
X58484193Y-103360457D01*
G75*
G02*
X58608643Y-103360457I62225J-62225D01*
G01*
X58733094Y-103484908D01*
G75*
G02*
X58733094Y-103609358I-62225J-62225D01*
G01*
G37*
G36*
G01*
X58379541Y-103255806D02*
X57813148Y-103822198D01*
G75*
G02*
X57688698Y-103822198I-62225J62225D01*
G01*
X57564247Y-103697747D01*
G75*
G02*
X57564247Y-103573297I62225J62225D01*
G01*
X58130640Y-103006904D01*
G75*
G02*
X58255090Y-103006904I62225J-62225D01*
G01*
X58379541Y-103131355D01*
G75*
G02*
X58379541Y-103255805I-62225J-62225D01*
G01*
G37*
G36*
G01*
X58025987Y-102902252D02*
X57459594Y-103468644D01*
G75*
G02*
X57335144Y-103468644I-62225J62225D01*
G01*
X57210693Y-103344193D01*
G75*
G02*
X57210693Y-103219743I62225J62225D01*
G01*
X57777086Y-102653350D01*
G75*
G02*
X57901536Y-102653350I62225J-62225D01*
G01*
X58025987Y-102777801D01*
G75*
G02*
X58025987Y-102902251I-62225J-62225D01*
G01*
G37*
G36*
G01*
X57672434Y-102548699D02*
X57106041Y-103115091D01*
G75*
G02*
X56981591Y-103115091I-62225J62225D01*
G01*
X56857140Y-102990640D01*
G75*
G02*
X56857140Y-102866190I62225J62225D01*
G01*
X57423533Y-102299797D01*
G75*
G02*
X57547983Y-102299797I62225J-62225D01*
G01*
X57672434Y-102424248D01*
G75*
G02*
X57672434Y-102548698I-62225J-62225D01*
G01*
G37*
G36*
G01*
X57318881Y-102195146D02*
X56752488Y-102761538D01*
G75*
G02*
X56628038Y-102761538I-62225J62225D01*
G01*
X56503587Y-102637087D01*
G75*
G02*
X56503587Y-102512637I62225J62225D01*
G01*
X57069980Y-101946244D01*
G75*
G02*
X57194430Y-101946244I62225J-62225D01*
G01*
X57318881Y-102070695D01*
G75*
G02*
X57318881Y-102195145I-62225J-62225D01*
G01*
G37*
G36*
G01*
X56965327Y-101841592D02*
X56398934Y-102407984D01*
G75*
G02*
X56274484Y-102407984I-62225J62225D01*
G01*
X56150033Y-102283533D01*
G75*
G02*
X56150033Y-102159083I62225J62225D01*
G01*
X56716426Y-101592690D01*
G75*
G02*
X56840876Y-101592690I62225J-62225D01*
G01*
X56965327Y-101717141D01*
G75*
G02*
X56965327Y-101841591I-62225J-62225D01*
G01*
G37*
G36*
G01*
X56611774Y-101488039D02*
X56045381Y-102054431D01*
G75*
G02*
X55920931Y-102054431I-62225J62225D01*
G01*
X55796480Y-101929980D01*
G75*
G02*
X55796480Y-101805530I62225J62225D01*
G01*
X56362873Y-101239137D01*
G75*
G02*
X56487323Y-101239137I62225J-62225D01*
G01*
X56611774Y-101363588D01*
G75*
G02*
X56611774Y-101488038I-62225J-62225D01*
G01*
G37*
G36*
G01*
X56258220Y-101134485D02*
X55691827Y-101700877D01*
G75*
G02*
X55567377Y-101700877I-62225J62225D01*
G01*
X55442926Y-101576426D01*
G75*
G02*
X55442926Y-101451976I62225J62225D01*
G01*
X56009319Y-100885583D01*
G75*
G02*
X56133769Y-100885583I62225J-62225D01*
G01*
X56258220Y-101010034D01*
G75*
G02*
X56258220Y-101134484I-62225J-62225D01*
G01*
G37*
G36*
G01*
X55904667Y-100780932D02*
X55338274Y-101347324D01*
G75*
G02*
X55213824Y-101347324I-62225J62225D01*
G01*
X55089373Y-101222873D01*
G75*
G02*
X55089373Y-101098423I62225J62225D01*
G01*
X55655766Y-100532030D01*
G75*
G02*
X55780216Y-100532030I62225J-62225D01*
G01*
X55904667Y-100656481D01*
G75*
G02*
X55904667Y-100780931I-62225J-62225D01*
G01*
G37*
G36*
G01*
X55551114Y-100427379D02*
X54984721Y-100993771D01*
G75*
G02*
X54860271Y-100993771I-62225J62225D01*
G01*
X54735820Y-100869320D01*
G75*
G02*
X54735820Y-100744870I62225J62225D01*
G01*
X55302213Y-100178477D01*
G75*
G02*
X55426663Y-100178477I62225J-62225D01*
G01*
X55551114Y-100302928D01*
G75*
G02*
X55551114Y-100427378I-62225J-62225D01*
G01*
G37*
G36*
G01*
X55197560Y-100073825D02*
X54631167Y-100640217D01*
G75*
G02*
X54506717Y-100640217I-62225J62225D01*
G01*
X54382266Y-100515766D01*
G75*
G02*
X54382266Y-100391316I62225J62225D01*
G01*
X54948659Y-99824923D01*
G75*
G02*
X55073109Y-99824923I62225J-62225D01*
G01*
X55197560Y-99949374D01*
G75*
G02*
X55197560Y-100073824I-62225J-62225D01*
G01*
G37*
G36*
G01*
X54844007Y-99720272D02*
X54277614Y-100286664D01*
G75*
G02*
X54153164Y-100286664I-62225J62225D01*
G01*
X54028713Y-100162213D01*
G75*
G02*
X54028713Y-100037763I62225J62225D01*
G01*
X54595106Y-99471370D01*
G75*
G02*
X54719556Y-99471370I62225J-62225D01*
G01*
X54844007Y-99595821D01*
G75*
G02*
X54844007Y-99720271I-62225J-62225D01*
G01*
G37*
G36*
G01*
X53871735Y-100162213D02*
X53747284Y-100286664D01*
G75*
G02*
X53622834Y-100286664I-62225J62225D01*
G01*
X53056441Y-99720271D01*
G75*
G02*
X53056441Y-99595821I62225J62225D01*
G01*
X53180892Y-99471370D01*
G75*
G02*
X53305342Y-99471370I62225J-62225D01*
G01*
X53871735Y-100037763D01*
G75*
G02*
X53871735Y-100162213I-62225J-62225D01*
G01*
G37*
G36*
G01*
X53518182Y-100515766D02*
X53393731Y-100640217D01*
G75*
G02*
X53269281Y-100640217I-62225J62225D01*
G01*
X52702888Y-100073824D01*
G75*
G02*
X52702888Y-99949374I62225J62225D01*
G01*
X52827339Y-99824923D01*
G75*
G02*
X52951789Y-99824923I62225J-62225D01*
G01*
X53518182Y-100391316D01*
G75*
G02*
X53518182Y-100515766I-62225J-62225D01*
G01*
G37*
G36*
G01*
X53164628Y-100869320D02*
X53040177Y-100993771D01*
G75*
G02*
X52915727Y-100993771I-62225J62225D01*
G01*
X52349334Y-100427378D01*
G75*
G02*
X52349334Y-100302928I62225J62225D01*
G01*
X52473785Y-100178477D01*
G75*
G02*
X52598235Y-100178477I62225J-62225D01*
G01*
X53164628Y-100744870D01*
G75*
G02*
X53164628Y-100869320I-62225J-62225D01*
G01*
G37*
G36*
G01*
X52811075Y-101222873D02*
X52686624Y-101347324D01*
G75*
G02*
X52562174Y-101347324I-62225J62225D01*
G01*
X51995781Y-100780931D01*
G75*
G02*
X51995781Y-100656481I62225J62225D01*
G01*
X52120232Y-100532030D01*
G75*
G02*
X52244682Y-100532030I62225J-62225D01*
G01*
X52811075Y-101098423D01*
G75*
G02*
X52811075Y-101222873I-62225J-62225D01*
G01*
G37*
G36*
G01*
X52457522Y-101576426D02*
X52333071Y-101700877D01*
G75*
G02*
X52208621Y-101700877I-62225J62225D01*
G01*
X51642228Y-101134484D01*
G75*
G02*
X51642228Y-101010034I62225J62225D01*
G01*
X51766679Y-100885583D01*
G75*
G02*
X51891129Y-100885583I62225J-62225D01*
G01*
X52457522Y-101451976D01*
G75*
G02*
X52457522Y-101576426I-62225J-62225D01*
G01*
G37*
G36*
G01*
X52103968Y-101929980D02*
X51979517Y-102054431D01*
G75*
G02*
X51855067Y-102054431I-62225J62225D01*
G01*
X51288674Y-101488038D01*
G75*
G02*
X51288674Y-101363588I62225J62225D01*
G01*
X51413125Y-101239137D01*
G75*
G02*
X51537575Y-101239137I62225J-62225D01*
G01*
X52103968Y-101805530D01*
G75*
G02*
X52103968Y-101929980I-62225J-62225D01*
G01*
G37*
G36*
G01*
X51750415Y-102283533D02*
X51625964Y-102407984D01*
G75*
G02*
X51501514Y-102407984I-62225J62225D01*
G01*
X50935121Y-101841591D01*
G75*
G02*
X50935121Y-101717141I62225J62225D01*
G01*
X51059572Y-101592690D01*
G75*
G02*
X51184022Y-101592690I62225J-62225D01*
G01*
X51750415Y-102159083D01*
G75*
G02*
X51750415Y-102283533I-62225J-62225D01*
G01*
G37*
G36*
G01*
X51396861Y-102637087D02*
X51272410Y-102761538D01*
G75*
G02*
X51147960Y-102761538I-62225J62225D01*
G01*
X50581567Y-102195145D01*
G75*
G02*
X50581567Y-102070695I62225J62225D01*
G01*
X50706018Y-101946244D01*
G75*
G02*
X50830468Y-101946244I62225J-62225D01*
G01*
X51396861Y-102512637D01*
G75*
G02*
X51396861Y-102637087I-62225J-62225D01*
G01*
G37*
G36*
G01*
X51043308Y-102990640D02*
X50918857Y-103115091D01*
G75*
G02*
X50794407Y-103115091I-62225J62225D01*
G01*
X50228014Y-102548698D01*
G75*
G02*
X50228014Y-102424248I62225J62225D01*
G01*
X50352465Y-102299797D01*
G75*
G02*
X50476915Y-102299797I62225J-62225D01*
G01*
X51043308Y-102866190D01*
G75*
G02*
X51043308Y-102990640I-62225J-62225D01*
G01*
G37*
G36*
G01*
X50689755Y-103344193D02*
X50565304Y-103468644D01*
G75*
G02*
X50440854Y-103468644I-62225J62225D01*
G01*
X49874461Y-102902251D01*
G75*
G02*
X49874461Y-102777801I62225J62225D01*
G01*
X49998912Y-102653350D01*
G75*
G02*
X50123362Y-102653350I62225J-62225D01*
G01*
X50689755Y-103219743D01*
G75*
G02*
X50689755Y-103344193I-62225J-62225D01*
G01*
G37*
G36*
G01*
X50336201Y-103697747D02*
X50211750Y-103822198D01*
G75*
G02*
X50087300Y-103822198I-62225J62225D01*
G01*
X49520907Y-103255805D01*
G75*
G02*
X49520907Y-103131355I62225J62225D01*
G01*
X49645358Y-103006904D01*
G75*
G02*
X49769808Y-103006904I62225J-62225D01*
G01*
X50336201Y-103573297D01*
G75*
G02*
X50336201Y-103697747I-62225J-62225D01*
G01*
G37*
G36*
G01*
X49982648Y-104051300D02*
X49858197Y-104175751D01*
G75*
G02*
X49733747Y-104175751I-62225J62225D01*
G01*
X49167354Y-103609358D01*
G75*
G02*
X49167354Y-103484908I62225J62225D01*
G01*
X49291805Y-103360457D01*
G75*
G02*
X49416255Y-103360457I62225J-62225D01*
G01*
X49982648Y-103926850D01*
G75*
G02*
X49982648Y-104051300I-62225J-62225D01*
G01*
G37*
G36*
G01*
X49982648Y-104581631D02*
X49416255Y-105148023D01*
G75*
G02*
X49291805Y-105148023I-62225J62225D01*
G01*
X49167354Y-105023572D01*
G75*
G02*
X49167354Y-104899122I62225J62225D01*
G01*
X49733747Y-104332729D01*
G75*
G02*
X49858197Y-104332729I62225J-62225D01*
G01*
X49982648Y-104457180D01*
G75*
G02*
X49982648Y-104581630I-62225J-62225D01*
G01*
G37*
G36*
G01*
X50336201Y-104935184D02*
X49769808Y-105501576D01*
G75*
G02*
X49645358Y-105501576I-62225J62225D01*
G01*
X49520907Y-105377125D01*
G75*
G02*
X49520907Y-105252675I62225J62225D01*
G01*
X50087300Y-104686282D01*
G75*
G02*
X50211750Y-104686282I62225J-62225D01*
G01*
X50336201Y-104810733D01*
G75*
G02*
X50336201Y-104935183I-62225J-62225D01*
G01*
G37*
G36*
G01*
X50689755Y-105288738D02*
X50123362Y-105855130D01*
G75*
G02*
X49998912Y-105855130I-62225J62225D01*
G01*
X49874461Y-105730679D01*
G75*
G02*
X49874461Y-105606229I62225J62225D01*
G01*
X50440854Y-105039836D01*
G75*
G02*
X50565304Y-105039836I62225J-62225D01*
G01*
X50689755Y-105164287D01*
G75*
G02*
X50689755Y-105288737I-62225J-62225D01*
G01*
G37*
G36*
G01*
X51043308Y-105642291D02*
X50476915Y-106208683D01*
G75*
G02*
X50352465Y-106208683I-62225J62225D01*
G01*
X50228014Y-106084232D01*
G75*
G02*
X50228014Y-105959782I62225J62225D01*
G01*
X50794407Y-105393389D01*
G75*
G02*
X50918857Y-105393389I62225J-62225D01*
G01*
X51043308Y-105517840D01*
G75*
G02*
X51043308Y-105642290I-62225J-62225D01*
G01*
G37*
G36*
G01*
X51396861Y-105995844D02*
X50830468Y-106562236D01*
G75*
G02*
X50706018Y-106562236I-62225J62225D01*
G01*
X50581567Y-106437785D01*
G75*
G02*
X50581567Y-106313335I62225J62225D01*
G01*
X51147960Y-105746942D01*
G75*
G02*
X51272410Y-105746942I62225J-62225D01*
G01*
X51396861Y-105871393D01*
G75*
G02*
X51396861Y-105995843I-62225J-62225D01*
G01*
G37*
G36*
G01*
X51750415Y-106349398D02*
X51184022Y-106915790D01*
G75*
G02*
X51059572Y-106915790I-62225J62225D01*
G01*
X50935121Y-106791339D01*
G75*
G02*
X50935121Y-106666889I62225J62225D01*
G01*
X51501514Y-106100496D01*
G75*
G02*
X51625964Y-106100496I62225J-62225D01*
G01*
X51750415Y-106224947D01*
G75*
G02*
X51750415Y-106349397I-62225J-62225D01*
G01*
G37*
G36*
G01*
X52103968Y-106702951D02*
X51537575Y-107269343D01*
G75*
G02*
X51413125Y-107269343I-62225J62225D01*
G01*
X51288674Y-107144892D01*
G75*
G02*
X51288674Y-107020442I62225J62225D01*
G01*
X51855067Y-106454049D01*
G75*
G02*
X51979517Y-106454049I62225J-62225D01*
G01*
X52103968Y-106578500D01*
G75*
G02*
X52103968Y-106702950I-62225J-62225D01*
G01*
G37*
G36*
G01*
X52457522Y-107056505D02*
X51891129Y-107622897D01*
G75*
G02*
X51766679Y-107622897I-62225J62225D01*
G01*
X51642228Y-107498446D01*
G75*
G02*
X51642228Y-107373996I62225J62225D01*
G01*
X52208621Y-106807603D01*
G75*
G02*
X52333071Y-106807603I62225J-62225D01*
G01*
X52457522Y-106932054D01*
G75*
G02*
X52457522Y-107056504I-62225J-62225D01*
G01*
G37*
G36*
G01*
X52811075Y-107410058D02*
X52244682Y-107976450D01*
G75*
G02*
X52120232Y-107976450I-62225J62225D01*
G01*
X51995781Y-107851999D01*
G75*
G02*
X51995781Y-107727549I62225J62225D01*
G01*
X52562174Y-107161156D01*
G75*
G02*
X52686624Y-107161156I62225J-62225D01*
G01*
X52811075Y-107285607D01*
G75*
G02*
X52811075Y-107410057I-62225J-62225D01*
G01*
G37*
G36*
G01*
X53164628Y-107763611D02*
X52598235Y-108330003D01*
G75*
G02*
X52473785Y-108330003I-62225J62225D01*
G01*
X52349334Y-108205552D01*
G75*
G02*
X52349334Y-108081102I62225J62225D01*
G01*
X52915727Y-107514709D01*
G75*
G02*
X53040177Y-107514709I62225J-62225D01*
G01*
X53164628Y-107639160D01*
G75*
G02*
X53164628Y-107763610I-62225J-62225D01*
G01*
G37*
G36*
G01*
X53518182Y-108117165D02*
X52951789Y-108683557D01*
G75*
G02*
X52827339Y-108683557I-62225J62225D01*
G01*
X52702888Y-108559106D01*
G75*
G02*
X52702888Y-108434656I62225J62225D01*
G01*
X53269281Y-107868263D01*
G75*
G02*
X53393731Y-107868263I62225J-62225D01*
G01*
X53518182Y-107992714D01*
G75*
G02*
X53518182Y-108117164I-62225J-62225D01*
G01*
G37*
G36*
G01*
X53871735Y-108470718D02*
X53305342Y-109037110D01*
G75*
G02*
X53180892Y-109037110I-62225J62225D01*
G01*
X53056441Y-108912659D01*
G75*
G02*
X53056441Y-108788209I62225J62225D01*
G01*
X53622834Y-108221816D01*
G75*
G02*
X53747284Y-108221816I62225J-62225D01*
G01*
X53871735Y-108346267D01*
G75*
G02*
X53871735Y-108470717I-62225J-62225D01*
G01*
G37*
G36*
G01*
X54844007Y-108912659D02*
X54719556Y-109037110D01*
G75*
G02*
X54595106Y-109037110I-62225J62225D01*
G01*
X54028713Y-108470717D01*
G75*
G02*
X54028713Y-108346267I62225J62225D01*
G01*
X54153164Y-108221816D01*
G75*
G02*
X54277614Y-108221816I62225J-62225D01*
G01*
X54844007Y-108788209D01*
G75*
G02*
X54844007Y-108912659I-62225J-62225D01*
G01*
G37*
G36*
G01*
X55197560Y-108559106D02*
X55073109Y-108683557D01*
G75*
G02*
X54948659Y-108683557I-62225J62225D01*
G01*
X54382266Y-108117164D01*
G75*
G02*
X54382266Y-107992714I62225J62225D01*
G01*
X54506717Y-107868263D01*
G75*
G02*
X54631167Y-107868263I62225J-62225D01*
G01*
X55197560Y-108434656D01*
G75*
G02*
X55197560Y-108559106I-62225J-62225D01*
G01*
G37*
G36*
G01*
X55551114Y-108205552D02*
X55426663Y-108330003D01*
G75*
G02*
X55302213Y-108330003I-62225J62225D01*
G01*
X54735820Y-107763610D01*
G75*
G02*
X54735820Y-107639160I62225J62225D01*
G01*
X54860271Y-107514709D01*
G75*
G02*
X54984721Y-107514709I62225J-62225D01*
G01*
X55551114Y-108081102D01*
G75*
G02*
X55551114Y-108205552I-62225J-62225D01*
G01*
G37*
G36*
G01*
X55904667Y-107851999D02*
X55780216Y-107976450D01*
G75*
G02*
X55655766Y-107976450I-62225J62225D01*
G01*
X55089373Y-107410057D01*
G75*
G02*
X55089373Y-107285607I62225J62225D01*
G01*
X55213824Y-107161156D01*
G75*
G02*
X55338274Y-107161156I62225J-62225D01*
G01*
X55904667Y-107727549D01*
G75*
G02*
X55904667Y-107851999I-62225J-62225D01*
G01*
G37*
G36*
G01*
X56258220Y-107498446D02*
X56133769Y-107622897D01*
G75*
G02*
X56009319Y-107622897I-62225J62225D01*
G01*
X55442926Y-107056504D01*
G75*
G02*
X55442926Y-106932054I62225J62225D01*
G01*
X55567377Y-106807603D01*
G75*
G02*
X55691827Y-106807603I62225J-62225D01*
G01*
X56258220Y-107373996D01*
G75*
G02*
X56258220Y-107498446I-62225J-62225D01*
G01*
G37*
G36*
G01*
X56611774Y-107144892D02*
X56487323Y-107269343D01*
G75*
G02*
X56362873Y-107269343I-62225J62225D01*
G01*
X55796480Y-106702950D01*
G75*
G02*
X55796480Y-106578500I62225J62225D01*
G01*
X55920931Y-106454049D01*
G75*
G02*
X56045381Y-106454049I62225J-62225D01*
G01*
X56611774Y-107020442D01*
G75*
G02*
X56611774Y-107144892I-62225J-62225D01*
G01*
G37*
G36*
G01*
X56965327Y-106791339D02*
X56840876Y-106915790D01*
G75*
G02*
X56716426Y-106915790I-62225J62225D01*
G01*
X56150033Y-106349397D01*
G75*
G02*
X56150033Y-106224947I62225J62225D01*
G01*
X56274484Y-106100496D01*
G75*
G02*
X56398934Y-106100496I62225J-62225D01*
G01*
X56965327Y-106666889D01*
G75*
G02*
X56965327Y-106791339I-62225J-62225D01*
G01*
G37*
G36*
G01*
X57318881Y-106437785D02*
X57194430Y-106562236D01*
G75*
G02*
X57069980Y-106562236I-62225J62225D01*
G01*
X56503587Y-105995843D01*
G75*
G02*
X56503587Y-105871393I62225J62225D01*
G01*
X56628038Y-105746942D01*
G75*
G02*
X56752488Y-105746942I62225J-62225D01*
G01*
X57318881Y-106313335D01*
G75*
G02*
X57318881Y-106437785I-62225J-62225D01*
G01*
G37*
G36*
G01*
X57672434Y-106084232D02*
X57547983Y-106208683D01*
G75*
G02*
X57423533Y-106208683I-62225J62225D01*
G01*
X56857140Y-105642290D01*
G75*
G02*
X56857140Y-105517840I62225J62225D01*
G01*
X56981591Y-105393389D01*
G75*
G02*
X57106041Y-105393389I62225J-62225D01*
G01*
X57672434Y-105959782D01*
G75*
G02*
X57672434Y-106084232I-62225J-62225D01*
G01*
G37*
G36*
G01*
X58025987Y-105730679D02*
X57901536Y-105855130D01*
G75*
G02*
X57777086Y-105855130I-62225J62225D01*
G01*
X57210693Y-105288737D01*
G75*
G02*
X57210693Y-105164287I62225J62225D01*
G01*
X57335144Y-105039836D01*
G75*
G02*
X57459594Y-105039836I62225J-62225D01*
G01*
X58025987Y-105606229D01*
G75*
G02*
X58025987Y-105730679I-62225J-62225D01*
G01*
G37*
G36*
G01*
X58379541Y-105377125D02*
X58255090Y-105501576D01*
G75*
G02*
X58130640Y-105501576I-62225J62225D01*
G01*
X57564247Y-104935183D01*
G75*
G02*
X57564247Y-104810733I62225J62225D01*
G01*
X57688698Y-104686282D01*
G75*
G02*
X57813148Y-104686282I62225J-62225D01*
G01*
X58379541Y-105252675D01*
G75*
G02*
X58379541Y-105377125I-62225J-62225D01*
G01*
G37*
G36*
G01*
X58733094Y-105023572D02*
X58608643Y-105148023D01*
G75*
G02*
X58484193Y-105148023I-62225J62225D01*
G01*
X57917800Y-104581630D01*
G75*
G02*
X57917800Y-104457180I62225J62225D01*
G01*
X58042251Y-104332729D01*
G75*
G02*
X58166701Y-104332729I62225J-62225D01*
G01*
X58733094Y-104899122D01*
G75*
G02*
X58733094Y-105023572I-62225J-62225D01*
G01*
G37*
G36*
G01*
X57802150Y-104434237D02*
X54130221Y-108106166D01*
G75*
G02*
X53770227Y-108106166I-179997J179997D01*
G01*
X50098298Y-104434237D01*
G75*
G02*
X50098298Y-104074243I179997J179997D01*
G01*
X53770227Y-100402314D01*
G75*
G02*
X54130221Y-100402314I179997J-179997D01*
G01*
X57802150Y-104074243D01*
G75*
G02*
X57802150Y-104434237I-179997J-179997D01*
G01*
G37*
G36*
G01*
X59904665Y-138766307D02*
X59904665Y-138202807D01*
G75*
G02*
X60148915Y-137958557I244250J0D01*
G01*
X60637415Y-137958557D01*
G75*
G02*
X60881665Y-138202807I0J-244250D01*
G01*
X60881665Y-138766307D01*
G75*
G02*
X60637415Y-139010557I-244250J0D01*
G01*
X60148915Y-139010557D01*
G75*
G02*
X59904665Y-138766307I0J244250D01*
G01*
G37*
G36*
G01*
X58329665Y-138766307D02*
X58329665Y-138202807D01*
G75*
G02*
X58573915Y-137958557I244250J0D01*
G01*
X59062415Y-137958557D01*
G75*
G02*
X59306665Y-138202807I0J-244250D01*
G01*
X59306665Y-138766307D01*
G75*
G02*
X59062415Y-139010557I-244250J0D01*
G01*
X58573915Y-139010557D01*
G75*
G02*
X58329665Y-138766307I0J244250D01*
G01*
G37*
D14*
X49247254Y-60042400D03*
X55597254Y-57502400D03*
D15*
X58137254Y-62582400D03*
X47977254Y-62582400D03*
D16*
X53057254Y-62582400D03*
D17*
X180131326Y-52935596D03*
X173631326Y-52935596D03*
X174431326Y-52935596D03*
X179331326Y-52935596D03*
D18*
X175131326Y-52935596D03*
X175631326Y-52935596D03*
X176131326Y-52935596D03*
X177131326Y-52935596D03*
X177631326Y-52935596D03*
X178131326Y-52935596D03*
X178631326Y-52935596D03*
X176631326Y-52935596D03*
D19*
X181201326Y-52020596D03*
X172561326Y-52020596D03*
D20*
X173991326Y-51490596D03*
D21*
X172561326Y-47840596D03*
D20*
X179771326Y-51490596D03*
D21*
X181201326Y-47840596D03*
D16*
X300739003Y-108937365D03*
X276863003Y-108937365D03*
D22*
X276863003Y-93697365D03*
X300739003Y-93697365D03*
D15*
X293881003Y-100682365D03*
X283721003Y-100682365D03*
D14*
X291341003Y-95602365D03*
X284991003Y-98142365D03*
D16*
X288801003Y-100682365D03*
D14*
X158784753Y-98142365D03*
X165134753Y-95602365D03*
D15*
X167674753Y-100682365D03*
X157514753Y-100682365D03*
D16*
X162594753Y-100682365D03*
D14*
X230222253Y-79092365D03*
X236572253Y-76552365D03*
D15*
X239112253Y-81632365D03*
X228952253Y-81632365D03*
D16*
X234032253Y-81632365D03*
D15*
X301024753Y-81632365D03*
X290864753Y-81632365D03*
D14*
X298484753Y-76552365D03*
X292134753Y-79092365D03*
D16*
X295944753Y-81632365D03*
D15*
X43849753Y-81632365D03*
X33689753Y-81632365D03*
D14*
X41309753Y-76552365D03*
X34959753Y-79092365D03*
D16*
X38769753Y-81632365D03*
D15*
X46231102Y-100682392D03*
X36071102Y-100682392D03*
D14*
X43691102Y-95602392D03*
X37341102Y-98142392D03*
D16*
X41151102Y-100682392D03*
G36*
G01*
X182241230Y-56017836D02*
X182241230Y-55454336D01*
G75*
G02*
X182485480Y-55210086I244250J0D01*
G01*
X182973980Y-55210086D01*
G75*
G02*
X183218230Y-55454336I0J-244250D01*
G01*
X183218230Y-56017836D01*
G75*
G02*
X182973980Y-56262086I-244250J0D01*
G01*
X182485480Y-56262086D01*
G75*
G02*
X182241230Y-56017836I0J244250D01*
G01*
G37*
G36*
G01*
X180666230Y-56017836D02*
X180666230Y-55454336D01*
G75*
G02*
X180910480Y-55210086I244250J0D01*
G01*
X181398980Y-55210086D01*
G75*
G02*
X181643230Y-55454336I0J-244250D01*
G01*
X181643230Y-56017836D01*
G75*
G02*
X181398980Y-56262086I-244250J0D01*
G01*
X180910480Y-56262086D01*
G75*
G02*
X180666230Y-56017836I0J244250D01*
G01*
G37*
D14*
X182597253Y-60042365D03*
X188947253Y-57502365D03*
D15*
X191487253Y-62582365D03*
X181327253Y-62582365D03*
D16*
X186407253Y-62582365D03*
D14*
X163547253Y-60042365D03*
X169897253Y-57502365D03*
D15*
X172437253Y-62582365D03*
X162277253Y-62582365D03*
D16*
X167357253Y-62582365D03*
X303119982Y-70837174D03*
X279243982Y-70837174D03*
D22*
X279243982Y-55597174D03*
X303119982Y-55597174D03*
D15*
X296261982Y-62582174D03*
X286101982Y-62582174D03*
D14*
X293721982Y-57502174D03*
X287371982Y-60042174D03*
D16*
X291181982Y-62582174D03*
D14*
X277847253Y-60042365D03*
X284197253Y-57502365D03*
D15*
X286737253Y-62582365D03*
X276577253Y-62582365D03*
D16*
X281657253Y-62582365D03*
X57851503Y-127987365D03*
X33975503Y-127987365D03*
D22*
X33975503Y-112747365D03*
X57851503Y-112747365D03*
D15*
X50993503Y-119732365D03*
X40833503Y-119732365D03*
D14*
X48453503Y-114652365D03*
X42103503Y-117192365D03*
D16*
X45913503Y-119732365D03*
D23*
X62475180Y-140625177D03*
X62475180Y-138725177D03*
X64475180Y-139675177D03*
X47592433Y-85204320D03*
X49592433Y-86154320D03*
X49592433Y-84254320D03*
D24*
X176882562Y-60292064D03*
X177832562Y-60292064D03*
X175932562Y-60292064D03*
X175932562Y-62492064D03*
X176882562Y-62492064D03*
X177832562Y-62492064D03*
D15*
X41468446Y-100682142D03*
X31308446Y-100682142D03*
D14*
X38928446Y-95602142D03*
X32578446Y-98142142D03*
D16*
X36388446Y-100682142D03*
G36*
G01*
X178088608Y-57225710D02*
X178652108Y-57225710D01*
G75*
G02*
X178896358Y-57469960I0J-244250D01*
G01*
X178896358Y-57958460D01*
G75*
G02*
X178652108Y-58202710I-244250J0D01*
G01*
X178088608Y-58202710D01*
G75*
G02*
X177844358Y-57958460I0J244250D01*
G01*
X177844358Y-57469960D01*
G75*
G02*
X178088608Y-57225710I244250J0D01*
G01*
G37*
G36*
G01*
X178088608Y-55650710D02*
X178652108Y-55650710D01*
G75*
G02*
X178896358Y-55894960I0J-244250D01*
G01*
X178896358Y-56383460D01*
G75*
G02*
X178652108Y-56627710I-244250J0D01*
G01*
X178088608Y-56627710D01*
G75*
G02*
X177844358Y-56383460I0J244250D01*
G01*
X177844358Y-55894960D01*
G75*
G02*
X178088608Y-55650710I244250J0D01*
G01*
G37*
G36*
G01*
X58329665Y-136682722D02*
X58329665Y-136119222D01*
G75*
G02*
X58573915Y-135874972I244250J0D01*
G01*
X59062415Y-135874972D01*
G75*
G02*
X59306665Y-136119222I0J-244250D01*
G01*
X59306665Y-136682722D01*
G75*
G02*
X59062415Y-136926972I-244250J0D01*
G01*
X58573915Y-136926972D01*
G75*
G02*
X58329665Y-136682722I0J244250D01*
G01*
G37*
G36*
G01*
X59904665Y-136682722D02*
X59904665Y-136119222D01*
G75*
G02*
X60148915Y-135874972I244250J0D01*
G01*
X60637415Y-135874972D01*
G75*
G02*
X60881665Y-136119222I0J-244250D01*
G01*
X60881665Y-136682722D01*
G75*
G02*
X60637415Y-136926972I-244250J0D01*
G01*
X60148915Y-136926972D01*
G75*
G02*
X59904665Y-136682722I0J244250D01*
G01*
G37*
G36*
G01*
X51654363Y-90578015D02*
X51654363Y-91141515D01*
G75*
G02*
X51410113Y-91385765I-244250J0D01*
G01*
X50921613Y-91385765D01*
G75*
G02*
X50677363Y-91141515I0J244250D01*
G01*
X50677363Y-90578015D01*
G75*
G02*
X50921613Y-90333765I244250J0D01*
G01*
X51410113Y-90333765D01*
G75*
G02*
X51654363Y-90578015I0J-244250D01*
G01*
G37*
G36*
G01*
X50079363Y-90578015D02*
X50079363Y-91141515D01*
G75*
G02*
X49835113Y-91385765I-244250J0D01*
G01*
X49346613Y-91385765D01*
G75*
G02*
X49102363Y-91141515I0J244250D01*
G01*
X49102363Y-90578015D01*
G75*
G02*
X49346613Y-90333765I244250J0D01*
G01*
X49835113Y-90333765D01*
G75*
G02*
X50079363Y-90578015I0J-244250D01*
G01*
G37*
G36*
G01*
X51059049Y-78969470D02*
X51059049Y-79532970D01*
G75*
G02*
X50814799Y-79777220I-244250J0D01*
G01*
X50326299Y-79777220D01*
G75*
G02*
X50082049Y-79532970I0J244250D01*
G01*
X50082049Y-78969470D01*
G75*
G02*
X50326299Y-78725220I244250J0D01*
G01*
X50814799Y-78725220D01*
G75*
G02*
X51059049Y-78969470I0J-244250D01*
G01*
G37*
G36*
G01*
X49484049Y-78969470D02*
X49484049Y-79532970D01*
G75*
G02*
X49239799Y-79777220I-244250J0D01*
G01*
X48751299Y-79777220D01*
G75*
G02*
X48507049Y-79532970I0J244250D01*
G01*
X48507049Y-78969470D01*
G75*
G02*
X48751299Y-78725220I244250J0D01*
G01*
X49239799Y-78725220D01*
G75*
G02*
X49484049Y-78969470I0J-244250D01*
G01*
G37*
G36*
G01*
X175112048Y-57225710D02*
X175675548Y-57225710D01*
G75*
G02*
X175919798Y-57469960I0J-244250D01*
G01*
X175919798Y-57958460D01*
G75*
G02*
X175675548Y-58202710I-244250J0D01*
G01*
X175112048Y-58202710D01*
G75*
G02*
X174867798Y-57958460I0J244250D01*
G01*
X174867798Y-57469960D01*
G75*
G02*
X175112048Y-57225710I244250J0D01*
G01*
G37*
G36*
G01*
X175112048Y-55650710D02*
X175675548Y-55650710D01*
G75*
G02*
X175919798Y-55894960I0J-244250D01*
G01*
X175919798Y-56383460D01*
G75*
G02*
X175675548Y-56627710I-244250J0D01*
G01*
X175112048Y-56627710D01*
G75*
G02*
X174867798Y-56383460I0J244250D01*
G01*
X174867798Y-55894960D01*
G75*
G02*
X175112048Y-55650710I244250J0D01*
G01*
G37*
G36*
G01*
X182241230Y-57506116D02*
X182241230Y-56942616D01*
G75*
G02*
X182485480Y-56698366I244250J0D01*
G01*
X182973980Y-56698366D01*
G75*
G02*
X183218230Y-56942616I0J-244250D01*
G01*
X183218230Y-57506116D01*
G75*
G02*
X182973980Y-57750366I-244250J0D01*
G01*
X182485480Y-57750366D01*
G75*
G02*
X182241230Y-57506116I0J244250D01*
G01*
G37*
G36*
G01*
X180666230Y-57506116D02*
X180666230Y-56942616D01*
G75*
G02*
X180910480Y-56698366I244250J0D01*
G01*
X181398980Y-56698366D01*
G75*
G02*
X181643230Y-56942616I0J-244250D01*
G01*
X181643230Y-57506116D01*
G75*
G02*
X181398980Y-57750366I-244250J0D01*
G01*
X180910480Y-57750366D01*
G75*
G02*
X180666230Y-57506116I0J244250D01*
G01*
G37*
D25*
X59605665Y-140406417D03*
X59605665Y-143706417D03*
X51568983Y-86854320D03*
X51568983Y-83554320D03*
G36*
G01*
X54249224Y-111679686D02*
X54249224Y-111116186D01*
G75*
G02*
X54493474Y-110871936I244250J0D01*
G01*
X54981974Y-110871936D01*
G75*
G02*
X55226224Y-111116186I0J-244250D01*
G01*
X55226224Y-111679686D01*
G75*
G02*
X54981974Y-111923936I-244250J0D01*
G01*
X54493474Y-111923936D01*
G75*
G02*
X54249224Y-111679686I0J244250D01*
G01*
G37*
G36*
G01*
X52674224Y-111679686D02*
X52674224Y-111116186D01*
G75*
G02*
X52918474Y-110871936I244250J0D01*
G01*
X53406974Y-110871936D01*
G75*
G02*
X53651224Y-111116186I0J-244250D01*
G01*
X53651224Y-111679686D01*
G75*
G02*
X53406974Y-111923936I-244250J0D01*
G01*
X52918474Y-111923936D01*
G75*
G02*
X52674224Y-111679686I0J244250D01*
G01*
G37*
G36*
G01*
X54249224Y-95308716D02*
X54249224Y-94745216D01*
G75*
G02*
X54493474Y-94500966I244250J0D01*
G01*
X54981974Y-94500966D01*
G75*
G02*
X55226224Y-94745216I0J-244250D01*
G01*
X55226224Y-95308716D01*
G75*
G02*
X54981974Y-95552966I-244250J0D01*
G01*
X54493474Y-95552966D01*
G75*
G02*
X54249224Y-95308716I0J244250D01*
G01*
G37*
G36*
G01*
X52674224Y-95308716D02*
X52674224Y-94745216D01*
G75*
G02*
X52918474Y-94500966I244250J0D01*
G01*
X53406974Y-94500966D01*
G75*
G02*
X53651224Y-94745216I0J-244250D01*
G01*
X53651224Y-95308716D01*
G75*
G02*
X53406974Y-95552966I-244250J0D01*
G01*
X52918474Y-95552966D01*
G75*
G02*
X52674224Y-95308716I0J244250D01*
G01*
G37*
G36*
G01*
X54249224Y-113167956D02*
X54249224Y-112604456D01*
G75*
G02*
X54493474Y-112360206I244250J0D01*
G01*
X54981974Y-112360206D01*
G75*
G02*
X55226224Y-112604456I0J-244250D01*
G01*
X55226224Y-113167956D01*
G75*
G02*
X54981974Y-113412206I-244250J0D01*
G01*
X54493474Y-113412206D01*
G75*
G02*
X54249224Y-113167956I0J244250D01*
G01*
G37*
G36*
G01*
X52674224Y-113167956D02*
X52674224Y-112604456D01*
G75*
G02*
X52918474Y-112360206I244250J0D01*
G01*
X53406974Y-112360206D01*
G75*
G02*
X53651224Y-112604456I0J-244250D01*
G01*
X53651224Y-113167956D01*
G75*
G02*
X53406974Y-113412206I-244250J0D01*
G01*
X52918474Y-113412206D01*
G75*
G02*
X52674224Y-113167956I0J244250D01*
G01*
G37*
G36*
G01*
X46790593Y-103955240D02*
X46227093Y-103955240D01*
G75*
G02*
X45982843Y-103710990I0J244250D01*
G01*
X45982843Y-103222490D01*
G75*
G02*
X46227093Y-102978240I244250J0D01*
G01*
X46790593Y-102978240D01*
G75*
G02*
X47034843Y-103222490I0J-244250D01*
G01*
X47034843Y-103710990D01*
G75*
G02*
X46790593Y-103955240I-244250J0D01*
G01*
G37*
G36*
G01*
X46790593Y-105530240D02*
X46227093Y-105530240D01*
G75*
G02*
X45982843Y-105285990I0J244250D01*
G01*
X45982843Y-104797490D01*
G75*
G02*
X46227093Y-104553240I244250J0D01*
G01*
X46790593Y-104553240D01*
G75*
G02*
X47034843Y-104797490I0J-244250D01*
G01*
X47034843Y-105285990D01*
G75*
G02*
X46790593Y-105530240I-244250J0D01*
G01*
G37*
G36*
G01*
X45302318Y-103955240D02*
X44738818Y-103955240D01*
G75*
G02*
X44494568Y-103710990I0J244250D01*
G01*
X44494568Y-103222490D01*
G75*
G02*
X44738818Y-102978240I244250J0D01*
G01*
X45302318Y-102978240D01*
G75*
G02*
X45546568Y-103222490I0J-244250D01*
G01*
X45546568Y-103710990D01*
G75*
G02*
X45302318Y-103955240I-244250J0D01*
G01*
G37*
G36*
G01*
X45302318Y-105530240D02*
X44738818Y-105530240D01*
G75*
G02*
X44494568Y-105285990I0J244250D01*
G01*
X44494568Y-104797490D01*
G75*
G02*
X44738818Y-104553240I244250J0D01*
G01*
X45302318Y-104553240D01*
G75*
G02*
X45546568Y-104797490I0J-244250D01*
G01*
X45546568Y-105285990D01*
G75*
G02*
X45302318Y-105530240I-244250J0D01*
G01*
G37*
G36*
G01*
X60093225Y-104016293D02*
X59694770Y-103617838D01*
G75*
G02*
X59694770Y-103272416I172711J172711D01*
G01*
X60040191Y-102926995D01*
G75*
G02*
X60385613Y-102926995I172711J-172711D01*
G01*
X60784068Y-103325450D01*
G75*
G02*
X60784068Y-103670872I-172711J-172711D01*
G01*
X60438647Y-104016293D01*
G75*
G02*
X60093225Y-104016293I-172711J172711D01*
G01*
G37*
G36*
G01*
X61206919Y-102902599D02*
X60808464Y-102504144D01*
G75*
G02*
X60808464Y-102158722I172711J172711D01*
G01*
X61153885Y-101813301D01*
G75*
G02*
X61499307Y-101813301I172711J-172711D01*
G01*
X61897762Y-102211756D01*
G75*
G02*
X61897762Y-102557178I-172711J-172711D01*
G01*
X61552341Y-102902599D01*
G75*
G02*
X61206919Y-102902599I-172711J172711D01*
G01*
G37*
G36*
G01*
X54249224Y-96796986D02*
X54249224Y-96233486D01*
G75*
G02*
X54493474Y-95989236I244250J0D01*
G01*
X54981974Y-95989236D01*
G75*
G02*
X55226224Y-96233486I0J-244250D01*
G01*
X55226224Y-96796986D01*
G75*
G02*
X54981974Y-97041236I-244250J0D01*
G01*
X54493474Y-97041236D01*
G75*
G02*
X54249224Y-96796986I0J244250D01*
G01*
G37*
G36*
G01*
X52674224Y-96796986D02*
X52674224Y-96233486D01*
G75*
G02*
X52918474Y-95989236I244250J0D01*
G01*
X53406974Y-95989236D01*
G75*
G02*
X53651224Y-96233486I0J-244250D01*
G01*
X53651224Y-96796986D01*
G75*
G02*
X53406974Y-97041236I-244250J0D01*
G01*
X52918474Y-97041236D01*
G75*
G02*
X52674224Y-96796986I0J244250D01*
G01*
G37*
G36*
G01*
X66733480Y-140951177D02*
X66169980Y-140951177D01*
G75*
G02*
X65925730Y-140706927I0J244250D01*
G01*
X65925730Y-140218427D01*
G75*
G02*
X66169980Y-139974177I244250J0D01*
G01*
X66733480Y-139974177D01*
G75*
G02*
X66977730Y-140218427I0J-244250D01*
G01*
X66977730Y-140706927D01*
G75*
G02*
X66733480Y-140951177I-244250J0D01*
G01*
G37*
G36*
G01*
X66733480Y-139376177D02*
X66169980Y-139376177D01*
G75*
G02*
X65925730Y-139131927I0J244250D01*
G01*
X65925730Y-138643427D01*
G75*
G02*
X66169980Y-138399177I244250J0D01*
G01*
X66733480Y-138399177D01*
G75*
G02*
X66977730Y-138643427I0J-244250D01*
G01*
X66977730Y-139131927D01*
G75*
G02*
X66733480Y-139376177I-244250J0D01*
G01*
G37*
G36*
G01*
X51654363Y-89089740D02*
X51654363Y-89653240D01*
G75*
G02*
X51410113Y-89897490I-244250J0D01*
G01*
X50921613Y-89897490D01*
G75*
G02*
X50677363Y-89653240I0J244250D01*
G01*
X50677363Y-89089740D01*
G75*
G02*
X50921613Y-88845490I244250J0D01*
G01*
X51410113Y-88845490D01*
G75*
G02*
X51654363Y-89089740I0J-244250D01*
G01*
G37*
G36*
G01*
X50079363Y-89089740D02*
X50079363Y-89653240D01*
G75*
G02*
X49835113Y-89897490I-244250J0D01*
G01*
X49346613Y-89897490D01*
G75*
G02*
X49102363Y-89653240I0J244250D01*
G01*
X49102363Y-89089740D01*
G75*
G02*
X49346613Y-88845490I244250J0D01*
G01*
X49835113Y-88845490D01*
G75*
G02*
X50079363Y-89089740I0J-244250D01*
G01*
G37*
G36*
G01*
X172713550Y-55751992D02*
X172713550Y-56315492D01*
G75*
G02*
X172469300Y-56559742I-244250J0D01*
G01*
X171980800Y-56559742D01*
G75*
G02*
X171736550Y-56315492I0J244250D01*
G01*
X171736550Y-55751992D01*
G75*
G02*
X171980800Y-55507742I244250J0D01*
G01*
X172469300Y-55507742D01*
G75*
G02*
X172713550Y-55751992I0J-244250D01*
G01*
G37*
G36*
G01*
X174288550Y-55751992D02*
X174288550Y-56315492D01*
G75*
G02*
X174044300Y-56559742I-244250J0D01*
G01*
X173555800Y-56559742D01*
G75*
G02*
X173311550Y-56315492I0J244250D01*
G01*
X173311550Y-55751992D01*
G75*
G02*
X173555800Y-55507742I244250J0D01*
G01*
X174044300Y-55507742D01*
G75*
G02*
X174288550Y-55751992I0J-244250D01*
G01*
G37*
G36*
G01*
X51059049Y-80457745D02*
X51059049Y-81021245D01*
G75*
G02*
X50814799Y-81265495I-244250J0D01*
G01*
X50326299Y-81265495D01*
G75*
G02*
X50082049Y-81021245I0J244250D01*
G01*
X50082049Y-80457745D01*
G75*
G02*
X50326299Y-80213495I244250J0D01*
G01*
X50814799Y-80213495D01*
G75*
G02*
X51059049Y-80457745I0J-244250D01*
G01*
G37*
G36*
G01*
X49484049Y-80457745D02*
X49484049Y-81021245D01*
G75*
G02*
X49239799Y-81265495I-244250J0D01*
G01*
X48751299Y-81265495D01*
G75*
G02*
X48507049Y-81021245I0J244250D01*
G01*
X48507049Y-80457745D01*
G75*
G02*
X48751299Y-80213495I244250J0D01*
G01*
X49239799Y-80213495D01*
G75*
G02*
X49484049Y-80457745I0J-244250D01*
G01*
G37*
D16*
X219744753Y-130527365D03*
X105444753Y-130527365D03*
D22*
X105444753Y-145767365D03*
X219744753Y-145767365D03*
D15*
X167674753Y-138782365D03*
X157514753Y-138782365D03*
D14*
X165134753Y-133702365D03*
X158784753Y-136242365D03*
D16*
X162594753Y-138782365D03*
D25*
X230757886Y-83256600D03*
X230757886Y-86556600D03*
D14*
X206409753Y-117192365D03*
X212759753Y-114652365D03*
D15*
X215299753Y-119732365D03*
X205139753Y-119732365D03*
D16*
X210219753Y-119732365D03*
D14*
X111159753Y-117192365D03*
X117509753Y-114652365D03*
D15*
X120049753Y-119732365D03*
X109889753Y-119732365D03*
D16*
X114969753Y-119732365D03*
D14*
X296897253Y-60042365D03*
X303247253Y-57502365D03*
D15*
X305787253Y-62582365D03*
X295627253Y-62582365D03*
D16*
X300707253Y-62582365D03*
D14*
X315947253Y-136242365D03*
X322297253Y-133702365D03*
D15*
X324837253Y-138782365D03*
X314677253Y-138782365D03*
D16*
X319757253Y-138782365D03*
D14*
X296897253Y-136242365D03*
X303247253Y-133702365D03*
D15*
X305787253Y-138782365D03*
X295627253Y-138782365D03*
D16*
X300707253Y-138782365D03*
D14*
X277847253Y-136242365D03*
X284197253Y-133702365D03*
D15*
X286737253Y-138782365D03*
X276577253Y-138782365D03*
D16*
X281657253Y-138782365D03*
D15*
X248637253Y-138782365D03*
X238477253Y-138782365D03*
D14*
X246097253Y-133702365D03*
X239747253Y-136242365D03*
D16*
X243557253Y-138782365D03*
D15*
X86712253Y-138782365D03*
X76552253Y-138782365D03*
D14*
X84172253Y-133702365D03*
X77822253Y-136242365D03*
D16*
X81632253Y-138782365D03*
D15*
X43849753Y-138782365D03*
X33689753Y-138782365D03*
D14*
X41309753Y-133702365D03*
X34959753Y-136242365D03*
D16*
X38769753Y-138782365D03*
D14*
X315947253Y-117192365D03*
X322297253Y-114652365D03*
D15*
X324837253Y-119732365D03*
X314677253Y-119732365D03*
D16*
X319757253Y-119732365D03*
D14*
X296897253Y-117192365D03*
X303247253Y-114652365D03*
D15*
X305787253Y-119732365D03*
X295627253Y-119732365D03*
D16*
X300707253Y-119732365D03*
D15*
X279593503Y-119732365D03*
X269433503Y-119732365D03*
D14*
X277053503Y-114652365D03*
X270703503Y-117192365D03*
D16*
X274513503Y-119732365D03*
D14*
X244509753Y-117192365D03*
X250859753Y-114652365D03*
D15*
X253399753Y-119732365D03*
X243239753Y-119732365D03*
D16*
X248319753Y-119732365D03*
D14*
X225459753Y-117192365D03*
X231809753Y-114652365D03*
D15*
X234349753Y-119732365D03*
X224189753Y-119732365D03*
D16*
X229269753Y-119732365D03*
D14*
X187359753Y-117192365D03*
X193709753Y-114652365D03*
D15*
X196249753Y-119732365D03*
X186089753Y-119732365D03*
D16*
X191169753Y-119732365D03*
D14*
X168309753Y-117192365D03*
X174659753Y-114652365D03*
D15*
X177199753Y-119732365D03*
X167039753Y-119732365D03*
D16*
X172119753Y-119732365D03*
D14*
X149259753Y-117192365D03*
X155609753Y-114652365D03*
D15*
X158149753Y-119732365D03*
X147989753Y-119732365D03*
D16*
X153069753Y-119732365D03*
D14*
X130209753Y-117192365D03*
X136559753Y-114652365D03*
D15*
X139099753Y-119732365D03*
X128939753Y-119732365D03*
D16*
X134019753Y-119732365D03*
D14*
X92109753Y-117192365D03*
X98459753Y-114652365D03*
D15*
X100999753Y-119732365D03*
X90839753Y-119732365D03*
D16*
X95919753Y-119732365D03*
D14*
X73059753Y-117192365D03*
X79409753Y-114652365D03*
D15*
X81949753Y-119732365D03*
X71789753Y-119732365D03*
D16*
X76869753Y-119732365D03*
D14*
X315947253Y-98142365D03*
X322297253Y-95602365D03*
D15*
X324837253Y-100682365D03*
X314677253Y-100682365D03*
D16*
X319757253Y-100682365D03*
D14*
X254034753Y-98142365D03*
X260384753Y-95602365D03*
D15*
X262924753Y-100682365D03*
X252764753Y-100682365D03*
D16*
X257844753Y-100682365D03*
D14*
X234984753Y-98142365D03*
X241334753Y-95602365D03*
D15*
X243874753Y-100682365D03*
X233714753Y-100682365D03*
D16*
X238794753Y-100682365D03*
D14*
X215934753Y-98142365D03*
X222284753Y-95602365D03*
D15*
X224824753Y-100682365D03*
X214664753Y-100682365D03*
D16*
X219744753Y-100682365D03*
D14*
X196884753Y-98142365D03*
X203234753Y-95602365D03*
D15*
X205774753Y-100682365D03*
X195614753Y-100682365D03*
D16*
X200694753Y-100682365D03*
D14*
X177834753Y-98142365D03*
X184184753Y-95602365D03*
D15*
X186724753Y-100682365D03*
X176564753Y-100682365D03*
D16*
X181644753Y-100682365D03*
D14*
X139734753Y-98142365D03*
X146084753Y-95602365D03*
D15*
X148624753Y-100682365D03*
X138464753Y-100682365D03*
D16*
X143544753Y-100682365D03*
D14*
X120684753Y-98142365D03*
X127034753Y-95602365D03*
D15*
X129574753Y-100682365D03*
X119414753Y-100682365D03*
D16*
X124494753Y-100682365D03*
D14*
X101634753Y-98142365D03*
X107984753Y-95602365D03*
D15*
X110524753Y-100682365D03*
X100364753Y-100682365D03*
D16*
X105444753Y-100682365D03*
D14*
X82584753Y-98142365D03*
X88934753Y-95602365D03*
D15*
X91474753Y-100682365D03*
X81314753Y-100682365D03*
D16*
X86394753Y-100682365D03*
D14*
X63534753Y-98142365D03*
X69884753Y-95602365D03*
D15*
X72424753Y-100682365D03*
X62264753Y-100682365D03*
D16*
X67344753Y-100682365D03*
D14*
X315947253Y-79092365D03*
X322297253Y-76552365D03*
D15*
X324837253Y-81632365D03*
X314677253Y-81632365D03*
D16*
X319757253Y-81632365D03*
D14*
X268322253Y-79092365D03*
X274672253Y-76552365D03*
D15*
X277212253Y-81632365D03*
X267052253Y-81632365D03*
D16*
X272132253Y-81632365D03*
D14*
X249272253Y-79092365D03*
X255622253Y-76552365D03*
D15*
X258162253Y-81632365D03*
X248002253Y-81632365D03*
D16*
X253082253Y-81632365D03*
D14*
X211172253Y-79092365D03*
X217522253Y-76552365D03*
D15*
X220062253Y-81632365D03*
X209902253Y-81632365D03*
D16*
X214982253Y-81632365D03*
D14*
X192122253Y-79092365D03*
X198472253Y-76552365D03*
D15*
X201012253Y-81632365D03*
X190852253Y-81632365D03*
D16*
X195932253Y-81632365D03*
D14*
X173072253Y-79092365D03*
X179422253Y-76552365D03*
D15*
X181962253Y-81632365D03*
X171802253Y-81632365D03*
D16*
X176882253Y-81632365D03*
D14*
X154022253Y-79092365D03*
X160372253Y-76552365D03*
D15*
X162912253Y-81632365D03*
X152752253Y-81632365D03*
D16*
X157832253Y-81632365D03*
D14*
X134972253Y-79092365D03*
X141322253Y-76552365D03*
D15*
X143862253Y-81632365D03*
X133702253Y-81632365D03*
D16*
X138782253Y-81632365D03*
D14*
X115922253Y-79092365D03*
X122272253Y-76552365D03*
D15*
X124812253Y-81632365D03*
X114652253Y-81632365D03*
D16*
X119732253Y-81632365D03*
D14*
X96872253Y-79092365D03*
X103222253Y-76552365D03*
D15*
X105762253Y-81632365D03*
X95602253Y-81632365D03*
D16*
X100682253Y-81632365D03*
D14*
X77822253Y-79092365D03*
X84172253Y-76552365D03*
D15*
X86712253Y-81632365D03*
X76552253Y-81632365D03*
D16*
X81632253Y-81632365D03*
D14*
X58772253Y-79092365D03*
X65122253Y-76552365D03*
D15*
X67662253Y-81632365D03*
X57502253Y-81632365D03*
D16*
X62582253Y-81632365D03*
D14*
X315947253Y-60042365D03*
X322297253Y-57502365D03*
D15*
X324837253Y-62582365D03*
X314677253Y-62582365D03*
D16*
X319757253Y-62582365D03*
D14*
X258797253Y-60042365D03*
X265147253Y-57502365D03*
D15*
X267687253Y-62582365D03*
X257527253Y-62582365D03*
D16*
X262607253Y-62582365D03*
D14*
X239747253Y-60042365D03*
X246097253Y-57502365D03*
D15*
X248637253Y-62582365D03*
X238477253Y-62582365D03*
D16*
X243557253Y-62582365D03*
D14*
X220697253Y-60042365D03*
X227047253Y-57502365D03*
D15*
X229587253Y-62582365D03*
X219427253Y-62582365D03*
D16*
X224507253Y-62582365D03*
D14*
X201647253Y-60042365D03*
X207997253Y-57502365D03*
D15*
X210537253Y-62582365D03*
X200377253Y-62582365D03*
D16*
X205457253Y-62582365D03*
D14*
X144497253Y-60042365D03*
X150847253Y-57502365D03*
D15*
X153387253Y-62582365D03*
X143227253Y-62582365D03*
D16*
X148307253Y-62582365D03*
D14*
X125447253Y-60042365D03*
X131797253Y-57502365D03*
D15*
X134337253Y-62582365D03*
X124177253Y-62582365D03*
D16*
X129257253Y-62582365D03*
D14*
X106397253Y-60042365D03*
X112747253Y-57502365D03*
D15*
X115287253Y-62582365D03*
X105127253Y-62582365D03*
D16*
X110207253Y-62582365D03*
D14*
X87347253Y-60042365D03*
X93697253Y-57502365D03*
D15*
X96237253Y-62582365D03*
X86077253Y-62582365D03*
D16*
X91157253Y-62582365D03*
D14*
X68297253Y-60042365D03*
X74647253Y-57502365D03*
D15*
X77187253Y-62582365D03*
X67027253Y-62582365D03*
D16*
X72107253Y-62582365D03*
D14*
X30197338Y-60042540D03*
X36547338Y-57502540D03*
D15*
X39087338Y-62582540D03*
X28927338Y-62582540D03*
D16*
X34007338Y-62582540D03*
D25*
X316482814Y-140406552D03*
X316482814Y-143706552D03*
X297432830Y-140406552D03*
X297432830Y-143706552D03*
X278382846Y-140406552D03*
X278382846Y-143706552D03*
X240282878Y-140406552D03*
X240282878Y-143706552D03*
X159320446Y-140406552D03*
X159320446Y-143706552D03*
X78358014Y-140406552D03*
X78358014Y-143706552D03*
X35495550Y-140393660D03*
X35495550Y-143693660D03*
X316482814Y-121356568D03*
X316482814Y-124656568D03*
X297432830Y-121356568D03*
X297432830Y-124656568D03*
X271239102Y-121356568D03*
X271239102Y-124656568D03*
X245045374Y-121356568D03*
X245045374Y-124656568D03*
X225995390Y-121356568D03*
X225995390Y-124656568D03*
X206945406Y-121356568D03*
X206945406Y-124656568D03*
X187895422Y-121356568D03*
X187895422Y-124656568D03*
X168845438Y-121356568D03*
X168845438Y-124656568D03*
X149795454Y-121356568D03*
X149795454Y-124656568D03*
X130745470Y-121356568D03*
X130745470Y-124656568D03*
X111695486Y-121356568D03*
X111695486Y-124656568D03*
X92645502Y-121356568D03*
X92645502Y-124656568D03*
X73595518Y-121356568D03*
X73595518Y-124656568D03*
X42639294Y-121356568D03*
X42639294Y-124656568D03*
X316482814Y-102306584D03*
X316482814Y-105606584D03*
X285526590Y-102306584D03*
X285526590Y-105606584D03*
X254570366Y-102306584D03*
X254570366Y-105606584D03*
X235520382Y-102306584D03*
X235520382Y-105606584D03*
X216470398Y-102306584D03*
X216470398Y-105606584D03*
X197420414Y-102306584D03*
X197420414Y-105606584D03*
X178370430Y-102306584D03*
X178370430Y-105606584D03*
X159320446Y-102306584D03*
X159320446Y-105606584D03*
X140270462Y-102306584D03*
X140270462Y-105606584D03*
X121220478Y-102306584D03*
X121220478Y-105606584D03*
X102170494Y-102306584D03*
X102170494Y-105606584D03*
X83120510Y-102306584D03*
X83120510Y-105606584D03*
X64070460Y-102306586D03*
X64070460Y-105606586D03*
X33114302Y-102306584D03*
X33114302Y-105606584D03*
X316482814Y-83256600D03*
X316482814Y-86556600D03*
X292670334Y-83256600D03*
X292670334Y-86556600D03*
X268857854Y-83256600D03*
X268857854Y-86556600D03*
X249807870Y-83256600D03*
X249807870Y-86556600D03*
X211707902Y-83256600D03*
X211707902Y-86556600D03*
X192657918Y-83256600D03*
X192657918Y-86556600D03*
X173607934Y-83256600D03*
X173607934Y-86556600D03*
X154557950Y-83256600D03*
X154557950Y-86556600D03*
X135507966Y-83256600D03*
X135507966Y-86556600D03*
X116457982Y-83256600D03*
X116457982Y-86556600D03*
X97407998Y-83256600D03*
X97407998Y-86556600D03*
X78358014Y-83256600D03*
X78358014Y-86556600D03*
X59308030Y-83256600D03*
X59308030Y-86556600D03*
X35495550Y-83256600D03*
X35495550Y-86556600D03*
X316482814Y-64206616D03*
X316482814Y-67506616D03*
X297581658Y-64206616D03*
X297581658Y-67506616D03*
X278382846Y-64206616D03*
X278382846Y-67506616D03*
X259332862Y-64206616D03*
X259332862Y-67506616D03*
X240282878Y-64206616D03*
X240282878Y-67506616D03*
X221232894Y-64206616D03*
X221232894Y-67506616D03*
X202182910Y-64206616D03*
X202182910Y-67506616D03*
X183132926Y-64206616D03*
X183132926Y-67506616D03*
X164082942Y-64206616D03*
X164082942Y-67506616D03*
X145032958Y-64206616D03*
X145032958Y-67506616D03*
X125982974Y-64206616D03*
X125982974Y-67506616D03*
X106932990Y-64206616D03*
X106932990Y-67506616D03*
X87883006Y-64206616D03*
X87883006Y-67506616D03*
X68833022Y-64206616D03*
X68833022Y-67506616D03*
X49783038Y-64206616D03*
X49783038Y-67506616D03*
X30733054Y-64206616D03*
X30733054Y-67506616D03*
M02*
