M48
; DRILL file {KiCad (5.1.6)-1} date 08/11/20 23:01:29
; FORMAT={-:-/ absolute / inch / decimal}
; #@! TF.CreationDate,2020-08-11T23:01:29-04:00
; #@! TF.GenerationSoftware,Kicad,Pcbnew,(5.1.6)-1
; #@! TF.FileFunction,Plated,1,2,PTH
FMAT,2
INCH
T1C0.0157
T2C0.0236
T3C0.0600
T4C0.0600
%
G90
G05
T1
X1.7139Y-5.3936
X1.7197Y-4.1279
X1.7256Y-3.3779
X1.7482Y-2.6397
X1.7725Y-5.6279
X1.8311Y-4.1865
X1.8408Y-2.6397
X1.8691Y-4.2152
X1.8946Y-4.2451
X1.916Y-4.1069
X1.9322Y-4.0034
X1.9352Y-4.6553
X1.9959Y-4.3865
X2.0244Y-4.2715
X2.0264Y-4.6016
X2.0303Y-3.835
X2.0713Y-3.876
X2.1123Y-3.3779
X2.1123Y-4.3389
X2.127Y-3.8906
X2.1885Y-2.5686
X2.2061Y-4.3799
X2.2939Y-4.1924
X2.3168Y-4.1604
X2.3232Y-3.9668
X2.3252Y-4.0498
X2.352Y-4.313
X2.3525Y-4.1338
X2.3771Y-4.9137
X2.3789Y-3.9522
X2.3848Y-4.3447
X2.3994Y-4.1279
X2.417Y-4.9131
X2.4558Y-4.3791
X2.9385Y-2.6865
X3.126Y-4.9365
X3.6885Y-2.6865
X3.876Y-4.9365
X4.1514Y-5.2805
X4.1514Y-5.6279
X4.4385Y-2.6865
X5.1885Y-2.6865
X5.9385Y-2.6865
X6.1358Y-5.1489
X6.1358Y-5.6279
X6.667Y-5.1489
X6.667Y-5.6279
X6.6885Y-2.6865
X6.8114Y-2.3233
X6.8736Y-2.3233
X6.9639Y-2.3233
X6.9639Y-2.5811
X7.0928Y-2.1475
X7.4404Y-2.6865
X8.1904Y-2.6865
X8.6514Y-5.2805
X8.6514Y-5.6279
X8.9404Y-2.6865
X9.126Y-4.9365
X9.6885Y-2.6865
X10.4405Y-2.6865
X10.8155Y-2.2647
X11.0811Y-3.7647
X12.7165Y-2.6397
X12.7165Y-3.3779
T3
X3.0639Y-5.3639
X3.3139Y-5.2639
X11.2201Y-3.8639
X11.4701Y-3.7639
X9.4389Y-5.3639
X9.6889Y-5.2639
X1.6576Y-4.6139
X1.9076Y-4.5139
X1.3764Y-5.3639
X1.6264Y-5.2639
X1.4701Y-3.8639
X1.7201Y-3.7639
X10.6576Y-4.6139
X10.9076Y-4.5139
X1.3764Y-3.1139
X1.6264Y-3.0139
X11.3139Y-2.3639
X11.5639Y-2.2639
X11.5014Y-3.1139
X11.7514Y-3.0139
X1.2826Y-3.8639
X1.5326Y-3.7639
X6.2514Y-5.3639
X6.5014Y-5.2639
T4
X12.4389Y-3.8639
X12.6889Y-3.7639
X1.9389Y-2.3639
X2.1889Y-2.2639
X3.6264Y-4.6139
X3.8764Y-4.5139
X7.9389Y-2.3639
X8.1889Y-2.2639
X6.4389Y-2.3639
X6.6889Y-2.2639
X2.5014Y-3.8639
X2.7514Y-3.7639
X5.5014Y-3.8639
X5.7514Y-3.7639
X6.0639Y-3.1139
X6.3139Y-3.0139
X7.3764Y-4.6139
X7.6264Y-4.5139
X5.8764Y-4.6139
X6.1264Y-4.5139
X9.0639Y-3.1139
X9.3139Y-3.0139
X9.6264Y-4.6139
X9.8764Y-4.5139
X4.1889Y-2.3639
X4.4389Y-2.2639
X7.1889Y-2.3639
X7.4389Y-2.2639
X8.6889Y-2.3639
X8.9389Y-2.2639
X4.5639Y-3.1139
X4.8139Y-3.0139
X2.3139Y-3.1139
X2.5639Y-3.0139
X8.3139Y-3.1139
X8.5639Y-3.0139
X12.4389Y-4.6139
X12.6889Y-4.5139
X8.8764Y-4.6139
X9.1264Y-4.5139
X10.9389Y-2.3639
X11.1889Y-2.2639
X10.1889Y-2.3639
X10.4389Y-2.2639
X9.4389Y-2.3639
X9.6889Y-2.2639
X3.0639Y-3.1139
X3.3139Y-3.0139
X12.4389Y-3.1139
X12.6889Y-3.0139
X10.9389Y-5.3639
X11.1889Y-5.2639
X6.2514Y-3.8639
X6.5014Y-3.7639
X11.6889Y-5.3639
X11.9389Y-5.2639
X2.6889Y-2.3639
X2.9389Y-2.2639
X1.1889Y-2.3639
X1.4389Y-2.2639
X5.3139Y-3.1139
X5.5639Y-3.0139
X4.0014Y-3.8639
X4.2514Y-3.7639
X7.7514Y-3.8639
X8.0014Y-3.7639
X7.0014Y-3.8639
X7.2514Y-3.7639
X11.6889Y-2.3639
X11.9389Y-2.2639
X6.6264Y-4.6139
X6.8764Y-4.5139
X3.4389Y-2.3639
X3.6889Y-2.2639
X4.7514Y-3.8639
X5.0014Y-3.7639
X9.2514Y-3.8639
X9.5014Y-3.7639
X3.8139Y-3.1139
X4.0639Y-3.0139
X8.5014Y-3.8639
X8.7514Y-3.7639
X4.3764Y-4.6139
X4.6264Y-4.5139
X12.4389Y-5.3639
X12.6889Y-5.2639
X4.9389Y-2.3639
X5.1889Y-2.2639
X5.6889Y-2.3639
X5.9389Y-2.2639
X7.5639Y-3.1139
X7.8139Y-3.0139
X9.8139Y-3.1139
X10.0639Y-3.0139
X6.8139Y-3.1139
X7.0639Y-3.0139
X2.8764Y-4.6139
X3.1264Y-4.5139
X8.1264Y-4.6139
X8.3764Y-4.5139
X11.6889Y-4.6139
X11.9389Y-4.5139
X10.0014Y-3.8639
X10.2514Y-3.7639
X10.5639Y-3.1139
X10.8139Y-3.0139
X12.4389Y-2.3639
X12.6889Y-2.2639
X3.2514Y-3.8639
X3.5014Y-3.7639
X5.1264Y-4.6139
X5.3764Y-4.5139
T2
G00X6.7938Y-1.8717
M15
G01X6.7938Y-1.8953
M16
G05
G00X6.7938Y-2.0264
M15
G01X6.7938Y-2.0697
M16
G05
G00X7.1339Y-1.8717
M15
G01X7.1339Y-1.8953
M16
G05
G00X7.1339Y-2.0264
M15
G01X7.1339Y-2.0697
M16
G05
T0
M30
