G04 #@! TF.GenerationSoftware,KiCad,Pcbnew,(5.1.6)-1*
G04 #@! TF.CreationDate,2020-07-19T13:42:40-04:00*
G04 #@! TF.ProjectId,pcb-01,7063622d-3031-42e6-9b69-6361645f7063,01*
G04 #@! TF.SameCoordinates,Original*
G04 #@! TF.FileFunction,Profile,NP*
%FSLAX46Y46*%
G04 Gerber Fmt 4.6, Leading zero omitted, Abs format (unit mm)*
G04 Created by KiCad (PCBNEW (5.1.6)-1) date 2020-07-19 13:42:40*
%MOMM*%
%LPD*%
G01*
G04 APERTURE LIST*
G04 #@! TA.AperFunction,Profile*
%ADD10C,0.050000*%
G04 #@! TD*
G04 APERTURE END LIST*
D10*
X328782441Y-146616411D02*
G75*
G02*
X327591815Y-147807037I-1190626J0D01*
G01*
X24982185Y-54747583D02*
G75*
G02*
X26172811Y-53556957I1190626J0D01*
G01*
X26172811Y-147807037D02*
G75*
G02*
X24982185Y-146616411I0J1190626D01*
G01*
X57001196Y-72754240D02*
X268336956Y-72754240D01*
X268336956Y-71754240D02*
X57001196Y-71754240D01*
X101747878Y-128754240D02*
X72747878Y-128754240D01*
X103247878Y-127254240D02*
X101747878Y-128754240D01*
X107247878Y-127254240D02*
X103247878Y-127254240D01*
X108747878Y-128754240D02*
X107247878Y-127254240D01*
X216247878Y-128754240D02*
X108747878Y-128754240D01*
X218247878Y-127254240D02*
X216247878Y-128754240D01*
X221747878Y-127254240D02*
X218247878Y-127254240D01*
X223247878Y-128754240D02*
X221747878Y-127254240D01*
X251747878Y-128754240D02*
X223247878Y-128754240D01*
X222747878Y-129754240D02*
X251747878Y-129754240D01*
X221247878Y-128254240D02*
X222747878Y-129754240D01*
X218747878Y-128254240D02*
X221247878Y-128254240D01*
X216747878Y-129754240D02*
X218747878Y-128254240D01*
X108247878Y-129754240D02*
X216747878Y-129754240D01*
X106747878Y-128254240D02*
X108247878Y-129754240D01*
X103747878Y-128254240D02*
X106747878Y-128254240D01*
X102247878Y-129754240D02*
X103747878Y-128254240D01*
X72747878Y-129754240D02*
X102247878Y-129754240D01*
X72747878Y-129754240D02*
G75*
G02*
X72747878Y-128754240I0J500000D01*
G01*
X251747878Y-128754240D02*
G75*
G02*
X251747878Y-129754240I0J-500000D01*
G01*
X268336956Y-71754240D02*
G75*
G02*
X268336956Y-72754240I0J-500000D01*
G01*
X57001196Y-72754240D02*
G75*
G02*
X57001196Y-71754240I0J500000D01*
G01*
X171524496Y-53556957D02*
X26172811Y-53556957D01*
X171524496Y-46508514D02*
X171524496Y-53556957D01*
X182240130Y-46508514D02*
X171524496Y-46508514D01*
X182240130Y-53556957D02*
X182240130Y-46508514D01*
X327591815Y-53556957D02*
X182240130Y-53556957D01*
X328782441Y-146616411D02*
X328782441Y-54747583D01*
X26172811Y-147807037D02*
X327591815Y-147807037D01*
X24982185Y-54747583D02*
X24982185Y-146616411D01*
X327591815Y-53556957D02*
G75*
G02*
X328782441Y-54747583I0J-1190626D01*
G01*
M02*
