G04 #@! TF.GenerationSoftware,KiCad,Pcbnew,(5.1.6)-1*
G04 #@! TF.CreationDate,2020-08-11T23:01:21-04:00*
G04 #@! TF.ProjectId,pcb-01,7063622d-3031-42e6-9b69-6361645f7063,01*
G04 #@! TF.SameCoordinates,Original*
G04 #@! TF.FileFunction,Legend,Top*
G04 #@! TF.FilePolarity,Positive*
%FSLAX46Y46*%
G04 Gerber Fmt 4.6, Leading zero omitted, Abs format (unit mm)*
G04 Created by KiCad (PCBNEW (5.1.6)-1) date 2020-08-11 23:01:21*
%MOMM*%
%LPD*%
G01*
G04 APERTURE LIST*
%ADD10C,0.010000*%
%ADD11C,2.642000*%
%ADD12C,1.803800*%
%ADD13C,4.089800*%
%ADD14O,1.102000X2.202000*%
%ADD15C,0.772000*%
%ADD16O,1.102000X1.702000*%
%ADD17C,3.150000*%
G04 APERTURE END LIST*
%LPC*%
D10*
G36*
X134876477Y-141062677D02*
G01*
X134880708Y-141113325D01*
X134826651Y-141198058D01*
X134714480Y-141321509D01*
X134703243Y-141332951D01*
X134614930Y-141426809D01*
X134559768Y-141494239D01*
X134545489Y-141525296D01*
X134554004Y-141524932D01*
X134633395Y-141513729D01*
X134729971Y-141522950D01*
X134816861Y-141546902D01*
X134867199Y-141579889D01*
X134871213Y-141592153D01*
X134845457Y-141636670D01*
X134778133Y-141710400D01*
X134689199Y-141792598D01*
X134599924Y-141876654D01*
X134542034Y-141945296D01*
X134528072Y-141983098D01*
X134571755Y-141998871D01*
X134669166Y-142010707D01*
X134801490Y-142016571D01*
X134840110Y-142016866D01*
X134993503Y-142020166D01*
X135082921Y-142030956D01*
X135116701Y-142050576D01*
X135116493Y-142061222D01*
X135073392Y-142104138D01*
X135013683Y-142130177D01*
X134934986Y-142142086D01*
X134811491Y-142150312D01*
X134665329Y-142154613D01*
X134518633Y-142154745D01*
X134393535Y-142150469D01*
X134312165Y-142141542D01*
X134299731Y-142137977D01*
X134255501Y-142089287D01*
X134268340Y-142008223D01*
X134335124Y-141902960D01*
X134426731Y-141805465D01*
X134599088Y-141643421D01*
X134409599Y-141665029D01*
X134274727Y-141671553D01*
X134202524Y-141653869D01*
X134194739Y-141645585D01*
X134208339Y-141602954D01*
X134270185Y-141524417D01*
X134372138Y-141419748D01*
X134420514Y-141374413D01*
X134534445Y-141268488D01*
X134599090Y-141202775D01*
X134619711Y-141169621D01*
X134601571Y-141161375D01*
X134562802Y-141167546D01*
X134454658Y-141202450D01*
X134340401Y-141255494D01*
X134333942Y-141259118D01*
X134219156Y-141312674D01*
X134140993Y-141324696D01*
X134109443Y-141293849D01*
X134109231Y-141289144D01*
X134141227Y-141250025D01*
X134224948Y-141199935D01*
X134341989Y-141146573D01*
X134473946Y-141097641D01*
X134602415Y-141060840D01*
X134692459Y-141045096D01*
X134813785Y-141041479D01*
X134876477Y-141062677D01*
G37*
X134876477Y-141062677D02*
X134880708Y-141113325D01*
X134826651Y-141198058D01*
X134714480Y-141321509D01*
X134703243Y-141332951D01*
X134614930Y-141426809D01*
X134559768Y-141494239D01*
X134545489Y-141525296D01*
X134554004Y-141524932D01*
X134633395Y-141513729D01*
X134729971Y-141522950D01*
X134816861Y-141546902D01*
X134867199Y-141579889D01*
X134871213Y-141592153D01*
X134845457Y-141636670D01*
X134778133Y-141710400D01*
X134689199Y-141792598D01*
X134599924Y-141876654D01*
X134542034Y-141945296D01*
X134528072Y-141983098D01*
X134571755Y-141998871D01*
X134669166Y-142010707D01*
X134801490Y-142016571D01*
X134840110Y-142016866D01*
X134993503Y-142020166D01*
X135082921Y-142030956D01*
X135116701Y-142050576D01*
X135116493Y-142061222D01*
X135073392Y-142104138D01*
X135013683Y-142130177D01*
X134934986Y-142142086D01*
X134811491Y-142150312D01*
X134665329Y-142154613D01*
X134518633Y-142154745D01*
X134393535Y-142150469D01*
X134312165Y-142141542D01*
X134299731Y-142137977D01*
X134255501Y-142089287D01*
X134268340Y-142008223D01*
X134335124Y-141902960D01*
X134426731Y-141805465D01*
X134599088Y-141643421D01*
X134409599Y-141665029D01*
X134274727Y-141671553D01*
X134202524Y-141653869D01*
X134194739Y-141645585D01*
X134208339Y-141602954D01*
X134270185Y-141524417D01*
X134372138Y-141419748D01*
X134420514Y-141374413D01*
X134534445Y-141268488D01*
X134599090Y-141202775D01*
X134619711Y-141169621D01*
X134601571Y-141161375D01*
X134562802Y-141167546D01*
X134454658Y-141202450D01*
X134340401Y-141255494D01*
X134333942Y-141259118D01*
X134219156Y-141312674D01*
X134140993Y-141324696D01*
X134109443Y-141293849D01*
X134109231Y-141289144D01*
X134141227Y-141250025D01*
X134224948Y-141199935D01*
X134341989Y-141146573D01*
X134473946Y-141097641D01*
X134602415Y-141060840D01*
X134692459Y-141045096D01*
X134813785Y-141041479D01*
X134876477Y-141062677D01*
G36*
X126236707Y-141022926D02*
G01*
X126248028Y-141069512D01*
X126200597Y-141149696D01*
X126094945Y-141268287D01*
X126067243Y-141296666D01*
X125978930Y-141390523D01*
X125923768Y-141457953D01*
X125909489Y-141489010D01*
X125918004Y-141488646D01*
X125997395Y-141477443D01*
X126093971Y-141486665D01*
X126180861Y-141510616D01*
X126231199Y-141543603D01*
X126235213Y-141555867D01*
X126209457Y-141600384D01*
X126142133Y-141674114D01*
X126053199Y-141756312D01*
X125963924Y-141840368D01*
X125906034Y-141909010D01*
X125892072Y-141946812D01*
X125935755Y-141962585D01*
X126033166Y-141974421D01*
X126165490Y-141980285D01*
X126204110Y-141980580D01*
X126357503Y-141983880D01*
X126446921Y-141994671D01*
X126480701Y-142014290D01*
X126480493Y-142024936D01*
X126437392Y-142067853D01*
X126377683Y-142093891D01*
X126298986Y-142105801D01*
X126175491Y-142114027D01*
X126029329Y-142118327D01*
X125882633Y-142118460D01*
X125757535Y-142114183D01*
X125676165Y-142105256D01*
X125663731Y-142101692D01*
X125619472Y-142053010D01*
X125632297Y-141972023D01*
X125699073Y-141866928D01*
X125790731Y-141769593D01*
X125963088Y-141607962D01*
X125771502Y-141625763D01*
X125649639Y-141629695D01*
X125572334Y-141616954D01*
X125556352Y-141605438D01*
X125571152Y-141566177D01*
X125630323Y-141492239D01*
X125723138Y-141396175D01*
X125784224Y-141338835D01*
X125904854Y-141223038D01*
X125966044Y-141148845D01*
X125967777Y-141116198D01*
X125910036Y-141125041D01*
X125792804Y-141175318D01*
X125742452Y-141200285D01*
X125601664Y-141265172D01*
X125514614Y-141288682D01*
X125476167Y-141271866D01*
X125473231Y-141255477D01*
X125505275Y-141213364D01*
X125589108Y-141161003D01*
X125706282Y-141106401D01*
X125838348Y-141057568D01*
X125966859Y-141022512D01*
X126035679Y-141011309D01*
X126166101Y-141005128D01*
X126236707Y-141022926D01*
G37*
X126236707Y-141022926D02*
X126248028Y-141069512D01*
X126200597Y-141149696D01*
X126094945Y-141268287D01*
X126067243Y-141296666D01*
X125978930Y-141390523D01*
X125923768Y-141457953D01*
X125909489Y-141489010D01*
X125918004Y-141488646D01*
X125997395Y-141477443D01*
X126093971Y-141486665D01*
X126180861Y-141510616D01*
X126231199Y-141543603D01*
X126235213Y-141555867D01*
X126209457Y-141600384D01*
X126142133Y-141674114D01*
X126053199Y-141756312D01*
X125963924Y-141840368D01*
X125906034Y-141909010D01*
X125892072Y-141946812D01*
X125935755Y-141962585D01*
X126033166Y-141974421D01*
X126165490Y-141980285D01*
X126204110Y-141980580D01*
X126357503Y-141983880D01*
X126446921Y-141994671D01*
X126480701Y-142014290D01*
X126480493Y-142024936D01*
X126437392Y-142067853D01*
X126377683Y-142093891D01*
X126298986Y-142105801D01*
X126175491Y-142114027D01*
X126029329Y-142118327D01*
X125882633Y-142118460D01*
X125757535Y-142114183D01*
X125676165Y-142105256D01*
X125663731Y-142101692D01*
X125619472Y-142053010D01*
X125632297Y-141972023D01*
X125699073Y-141866928D01*
X125790731Y-141769593D01*
X125963088Y-141607962D01*
X125771502Y-141625763D01*
X125649639Y-141629695D01*
X125572334Y-141616954D01*
X125556352Y-141605438D01*
X125571152Y-141566177D01*
X125630323Y-141492239D01*
X125723138Y-141396175D01*
X125784224Y-141338835D01*
X125904854Y-141223038D01*
X125966044Y-141148845D01*
X125967777Y-141116198D01*
X125910036Y-141125041D01*
X125792804Y-141175318D01*
X125742452Y-141200285D01*
X125601664Y-141265172D01*
X125514614Y-141288682D01*
X125476167Y-141271866D01*
X125473231Y-141255477D01*
X125505275Y-141213364D01*
X125589108Y-141161003D01*
X125706282Y-141106401D01*
X125838348Y-141057568D01*
X125966859Y-141022512D01*
X126035679Y-141011309D01*
X126166101Y-141005128D01*
X126236707Y-141022926D01*
G36*
X132646925Y-140774119D02*
G01*
X132657802Y-140817560D01*
X132641509Y-140863420D01*
X132583375Y-140901714D01*
X132469524Y-140940966D01*
X132445834Y-140947729D01*
X132323921Y-140986630D01*
X132243757Y-141031801D01*
X132179110Y-141103497D01*
X132115187Y-141203022D01*
X132043397Y-141330212D01*
X131982382Y-141453429D01*
X131954097Y-141522209D01*
X131902466Y-141639894D01*
X131843607Y-141726233D01*
X131790411Y-141762663D01*
X131786945Y-141762866D01*
X131742797Y-141738386D01*
X131719558Y-141714684D01*
X131703350Y-141645173D01*
X131721078Y-141534931D01*
X131765953Y-141403297D01*
X131831186Y-141269609D01*
X131909988Y-141153203D01*
X131921383Y-141139768D01*
X131942022Y-141110705D01*
X131930045Y-141099700D01*
X131874314Y-141107143D01*
X131763694Y-141133425D01*
X131709748Y-141147199D01*
X131552412Y-141184300D01*
X131458552Y-141197403D01*
X131423119Y-141186406D01*
X131441065Y-141151207D01*
X131449885Y-141141984D01*
X131498469Y-141115567D01*
X131601364Y-141072670D01*
X131743617Y-141018482D01*
X131910279Y-140958195D01*
X132086397Y-140896996D01*
X132257023Y-140840078D01*
X132407204Y-140792628D01*
X132521990Y-140759839D01*
X132586431Y-140746899D01*
X132588096Y-140746866D01*
X132646925Y-140774119D01*
G37*
X132646925Y-140774119D02*
X132657802Y-140817560D01*
X132641509Y-140863420D01*
X132583375Y-140901714D01*
X132469524Y-140940966D01*
X132445834Y-140947729D01*
X132323921Y-140986630D01*
X132243757Y-141031801D01*
X132179110Y-141103497D01*
X132115187Y-141203022D01*
X132043397Y-141330212D01*
X131982382Y-141453429D01*
X131954097Y-141522209D01*
X131902466Y-141639894D01*
X131843607Y-141726233D01*
X131790411Y-141762663D01*
X131786945Y-141762866D01*
X131742797Y-141738386D01*
X131719558Y-141714684D01*
X131703350Y-141645173D01*
X131721078Y-141534931D01*
X131765953Y-141403297D01*
X131831186Y-141269609D01*
X131909988Y-141153203D01*
X131921383Y-141139768D01*
X131942022Y-141110705D01*
X131930045Y-141099700D01*
X131874314Y-141107143D01*
X131763694Y-141133425D01*
X131709748Y-141147199D01*
X131552412Y-141184300D01*
X131458552Y-141197403D01*
X131423119Y-141186406D01*
X131441065Y-141151207D01*
X131449885Y-141141984D01*
X131498469Y-141115567D01*
X131601364Y-141072670D01*
X131743617Y-141018482D01*
X131910279Y-140958195D01*
X132086397Y-140896996D01*
X132257023Y-140840078D01*
X132407204Y-140792628D01*
X132521990Y-140759839D01*
X132586431Y-140746899D01*
X132588096Y-140746866D01*
X132646925Y-140774119D01*
G36*
X131343988Y-140099243D02*
G01*
X131351516Y-140124211D01*
X131335164Y-140169948D01*
X131292653Y-140258123D01*
X131243323Y-140350997D01*
X131148938Y-140544015D01*
X131061991Y-140770423D01*
X130977773Y-141043776D01*
X130902888Y-141331032D01*
X130861306Y-141492133D01*
X130827788Y-141595098D01*
X130796331Y-141652987D01*
X130760931Y-141678860D01*
X130740738Y-141683747D01*
X130678179Y-141675563D01*
X130662088Y-141623439D01*
X130672247Y-141514577D01*
X130699589Y-141357646D01*
X130739409Y-141173772D01*
X130787004Y-140984077D01*
X130837671Y-140809685D01*
X130855093Y-140756662D01*
X130944675Y-140494316D01*
X130794310Y-140616500D01*
X130630093Y-140740818D01*
X130473489Y-140842923D01*
X130334230Y-140918228D01*
X130222049Y-140962149D01*
X130146678Y-140970100D01*
X130117850Y-140937496D01*
X130117802Y-140935230D01*
X130143355Y-140866714D01*
X130201506Y-140810340D01*
X130264493Y-140791190D01*
X130274432Y-140793719D01*
X130340611Y-140783229D01*
X130452966Y-140720356D01*
X130609195Y-140606726D01*
X130806998Y-140443963D01*
X130958874Y-140310707D01*
X131093294Y-140200625D01*
X131208414Y-140125777D01*
X131295042Y-140090528D01*
X131343988Y-140099243D01*
G37*
X131343988Y-140099243D02*
X131351516Y-140124211D01*
X131335164Y-140169948D01*
X131292653Y-140258123D01*
X131243323Y-140350997D01*
X131148938Y-140544015D01*
X131061991Y-140770423D01*
X130977773Y-141043776D01*
X130902888Y-141331032D01*
X130861306Y-141492133D01*
X130827788Y-141595098D01*
X130796331Y-141652987D01*
X130760931Y-141678860D01*
X130740738Y-141683747D01*
X130678179Y-141675563D01*
X130662088Y-141623439D01*
X130672247Y-141514577D01*
X130699589Y-141357646D01*
X130739409Y-141173772D01*
X130787004Y-140984077D01*
X130837671Y-140809685D01*
X130855093Y-140756662D01*
X130944675Y-140494316D01*
X130794310Y-140616500D01*
X130630093Y-140740818D01*
X130473489Y-140842923D01*
X130334230Y-140918228D01*
X130222049Y-140962149D01*
X130146678Y-140970100D01*
X130117850Y-140937496D01*
X130117802Y-140935230D01*
X130143355Y-140866714D01*
X130201506Y-140810340D01*
X130264493Y-140791190D01*
X130274432Y-140793719D01*
X130340611Y-140783229D01*
X130452966Y-140720356D01*
X130609195Y-140606726D01*
X130806998Y-140443963D01*
X130958874Y-140310707D01*
X131093294Y-140200625D01*
X131208414Y-140125777D01*
X131295042Y-140090528D01*
X131343988Y-140099243D01*
G36*
X128571554Y-140171587D02*
G01*
X128593802Y-140181651D01*
X128577897Y-140218519D01*
X128535549Y-140303264D01*
X128474814Y-140419911D01*
X128452011Y-140462865D01*
X128377128Y-140610436D01*
X128287657Y-140797526D01*
X128196592Y-140996533D01*
X128138977Y-141127866D01*
X128055751Y-141319454D01*
X127993838Y-141453788D01*
X127947175Y-141540823D01*
X127909702Y-141590517D01*
X127875357Y-141612826D01*
X127840754Y-141617723D01*
X127804982Y-141599771D01*
X127800394Y-141535352D01*
X127805676Y-141496602D01*
X127834753Y-141383120D01*
X127889545Y-141223304D01*
X127962421Y-141035279D01*
X128045750Y-140837167D01*
X128131902Y-140647093D01*
X128213246Y-140483180D01*
X128282152Y-140363551D01*
X128283755Y-140361124D01*
X128367935Y-140246065D01*
X128435445Y-140185111D01*
X128499731Y-140166340D01*
X128503459Y-140166294D01*
X128571554Y-140171587D01*
G37*
X128571554Y-140171587D02*
X128593802Y-140181651D01*
X128577897Y-140218519D01*
X128535549Y-140303264D01*
X128474814Y-140419911D01*
X128452011Y-140462865D01*
X128377128Y-140610436D01*
X128287657Y-140797526D01*
X128196592Y-140996533D01*
X128138977Y-141127866D01*
X128055751Y-141319454D01*
X127993838Y-141453788D01*
X127947175Y-141540823D01*
X127909702Y-141590517D01*
X127875357Y-141612826D01*
X127840754Y-141617723D01*
X127804982Y-141599771D01*
X127800394Y-141535352D01*
X127805676Y-141496602D01*
X127834753Y-141383120D01*
X127889545Y-141223304D01*
X127962421Y-141035279D01*
X128045750Y-140837167D01*
X128131902Y-140647093D01*
X128213246Y-140483180D01*
X128282152Y-140363551D01*
X128283755Y-140361124D01*
X128367935Y-140246065D01*
X128435445Y-140185111D01*
X128499731Y-140166340D01*
X128503459Y-140166294D01*
X128571554Y-140171587D01*
G36*
X129909852Y-140609148D02*
G01*
X129925875Y-140639119D01*
X129917472Y-140665223D01*
X129847353Y-140843808D01*
X129789777Y-141012650D01*
X129747692Y-141160107D01*
X129724045Y-141274534D01*
X129721782Y-141344291D01*
X129741953Y-141358655D01*
X129786179Y-141336878D01*
X129878648Y-141290006D01*
X130003145Y-141226284D01*
X130071640Y-141191039D01*
X130206553Y-141123453D01*
X130318514Y-141070981D01*
X130391032Y-141041184D01*
X130407282Y-141037152D01*
X130444560Y-141052875D01*
X130418647Y-141098542D01*
X130331389Y-141171899D01*
X130251047Y-141227810D01*
X130018761Y-141371826D01*
X129821705Y-141472960D01*
X129664193Y-141529757D01*
X129550537Y-141540761D01*
X129485048Y-141504517D01*
X129477134Y-141489037D01*
X129463971Y-141378344D01*
X129485550Y-141222519D01*
X129538370Y-141038107D01*
X129610196Y-140860346D01*
X129672942Y-140729555D01*
X129719825Y-140652081D01*
X129762842Y-140614229D01*
X129813990Y-140602305D01*
X129836770Y-140601723D01*
X129909852Y-140609148D01*
G37*
X129909852Y-140609148D02*
X129925875Y-140639119D01*
X129917472Y-140665223D01*
X129847353Y-140843808D01*
X129789777Y-141012650D01*
X129747692Y-141160107D01*
X129724045Y-141274534D01*
X129721782Y-141344291D01*
X129741953Y-141358655D01*
X129786179Y-141336878D01*
X129878648Y-141290006D01*
X130003145Y-141226284D01*
X130071640Y-141191039D01*
X130206553Y-141123453D01*
X130318514Y-141070981D01*
X130391032Y-141041184D01*
X130407282Y-141037152D01*
X130444560Y-141052875D01*
X130418647Y-141098542D01*
X130331389Y-141171899D01*
X130251047Y-141227810D01*
X130018761Y-141371826D01*
X129821705Y-141472960D01*
X129664193Y-141529757D01*
X129550537Y-141540761D01*
X129485048Y-141504517D01*
X129477134Y-141489037D01*
X129463971Y-141378344D01*
X129485550Y-141222519D01*
X129538370Y-141038107D01*
X129610196Y-140860346D01*
X129672942Y-140729555D01*
X129719825Y-140652081D01*
X129762842Y-140614229D01*
X129813990Y-140602305D01*
X129836770Y-140601723D01*
X129909852Y-140609148D01*
G36*
X137134666Y-140268622D02*
G01*
X137137780Y-140273035D01*
X137118085Y-140301164D01*
X137045371Y-140338903D01*
X136961777Y-140369340D01*
X136845191Y-140414163D01*
X136786032Y-140455391D01*
X136781504Y-140475381D01*
X136776659Y-140532585D01*
X136744385Y-140623688D01*
X136727139Y-140660290D01*
X136676480Y-140768300D01*
X136638663Y-140862338D01*
X136632630Y-140880922D01*
X136623317Y-140934911D01*
X136652930Y-140945362D01*
X136710925Y-140931004D01*
X136797697Y-140901331D01*
X136921944Y-140853646D01*
X137038209Y-140806019D01*
X137158048Y-140757547D01*
X137252939Y-140723193D01*
X137301280Y-140710580D01*
X137339188Y-140724634D01*
X137315341Y-140763404D01*
X137234152Y-140821806D01*
X137175154Y-140855843D01*
X137055786Y-140936903D01*
X136981399Y-141034874D01*
X136952201Y-141100823D01*
X136917346Y-141220441D01*
X136925216Y-141282682D01*
X136974442Y-141287809D01*
X137063658Y-141236085D01*
X137191495Y-141127774D01*
X137285261Y-141036649D01*
X137455570Y-140840046D01*
X137571520Y-140644183D01*
X137592659Y-140595529D01*
X137670169Y-140435181D01*
X137741104Y-140337808D01*
X137798077Y-140302032D01*
X137833702Y-140326472D01*
X137840590Y-140409747D01*
X137811355Y-140550477D01*
X137784724Y-140631411D01*
X137697305Y-140873866D01*
X137926196Y-140651179D01*
X138084978Y-140504010D01*
X138206428Y-140409375D01*
X138297836Y-140362575D01*
X138366491Y-140358914D01*
X138375277Y-140361795D01*
X138395102Y-140385686D01*
X138386778Y-140440086D01*
X138347011Y-140536845D01*
X138299300Y-140634927D01*
X138225981Y-140794710D01*
X138147554Y-140987208D01*
X138078957Y-141175390D01*
X138068233Y-141207705D01*
X138014463Y-141364043D01*
X137971685Y-141462736D01*
X137932899Y-141516447D01*
X137891110Y-141537838D01*
X137885204Y-141538888D01*
X137835316Y-141540061D01*
X137818761Y-141510553D01*
X137827728Y-141431954D01*
X137831319Y-141411888D01*
X137855656Y-141310706D01*
X137897107Y-141169001D01*
X137947529Y-141014283D01*
X137957647Y-140985129D01*
X138058686Y-140697249D01*
X137833412Y-140939772D01*
X137699604Y-141071141D01*
X137588550Y-141154959D01*
X137506022Y-141188488D01*
X137457787Y-141168991D01*
X137447516Y-141122901D01*
X137427443Y-141107302D01*
X137365747Y-141145487D01*
X137273139Y-141226617D01*
X137107102Y-141359291D01*
X136954873Y-141436581D01*
X136824341Y-141455307D01*
X136755998Y-141435176D01*
X136702652Y-141378198D01*
X136697136Y-141284000D01*
X136737829Y-141146009D01*
X136738461Y-141114576D01*
X136698706Y-141101214D01*
X136604531Y-141102413D01*
X136571931Y-141104501D01*
X136384925Y-141117422D01*
X136404027Y-140947948D01*
X136459582Y-140755818D01*
X136533423Y-140641229D01*
X136643716Y-140503984D01*
X136551024Y-140521703D01*
X136481567Y-140523987D01*
X136469740Y-140497452D01*
X136488884Y-140474723D01*
X136685517Y-140474723D01*
X136703659Y-140492866D01*
X136721802Y-140474723D01*
X136703659Y-140456580D01*
X136685517Y-140474723D01*
X136488884Y-140474723D01*
X136510224Y-140449389D01*
X136597699Y-140387090D01*
X136684558Y-140338652D01*
X136828280Y-140278482D01*
X136962997Y-140245046D01*
X137071021Y-140240906D01*
X137134666Y-140268622D01*
G37*
X137134666Y-140268622D02*
X137137780Y-140273035D01*
X137118085Y-140301164D01*
X137045371Y-140338903D01*
X136961777Y-140369340D01*
X136845191Y-140414163D01*
X136786032Y-140455391D01*
X136781504Y-140475381D01*
X136776659Y-140532585D01*
X136744385Y-140623688D01*
X136727139Y-140660290D01*
X136676480Y-140768300D01*
X136638663Y-140862338D01*
X136632630Y-140880922D01*
X136623317Y-140934911D01*
X136652930Y-140945362D01*
X136710925Y-140931004D01*
X136797697Y-140901331D01*
X136921944Y-140853646D01*
X137038209Y-140806019D01*
X137158048Y-140757547D01*
X137252939Y-140723193D01*
X137301280Y-140710580D01*
X137339188Y-140724634D01*
X137315341Y-140763404D01*
X137234152Y-140821806D01*
X137175154Y-140855843D01*
X137055786Y-140936903D01*
X136981399Y-141034874D01*
X136952201Y-141100823D01*
X136917346Y-141220441D01*
X136925216Y-141282682D01*
X136974442Y-141287809D01*
X137063658Y-141236085D01*
X137191495Y-141127774D01*
X137285261Y-141036649D01*
X137455570Y-140840046D01*
X137571520Y-140644183D01*
X137592659Y-140595529D01*
X137670169Y-140435181D01*
X137741104Y-140337808D01*
X137798077Y-140302032D01*
X137833702Y-140326472D01*
X137840590Y-140409747D01*
X137811355Y-140550477D01*
X137784724Y-140631411D01*
X137697305Y-140873866D01*
X137926196Y-140651179D01*
X138084978Y-140504010D01*
X138206428Y-140409375D01*
X138297836Y-140362575D01*
X138366491Y-140358914D01*
X138375277Y-140361795D01*
X138395102Y-140385686D01*
X138386778Y-140440086D01*
X138347011Y-140536845D01*
X138299300Y-140634927D01*
X138225981Y-140794710D01*
X138147554Y-140987208D01*
X138078957Y-141175390D01*
X138068233Y-141207705D01*
X138014463Y-141364043D01*
X137971685Y-141462736D01*
X137932899Y-141516447D01*
X137891110Y-141537838D01*
X137885204Y-141538888D01*
X137835316Y-141540061D01*
X137818761Y-141510553D01*
X137827728Y-141431954D01*
X137831319Y-141411888D01*
X137855656Y-141310706D01*
X137897107Y-141169001D01*
X137947529Y-141014283D01*
X137957647Y-140985129D01*
X138058686Y-140697249D01*
X137833412Y-140939772D01*
X137699604Y-141071141D01*
X137588550Y-141154959D01*
X137506022Y-141188488D01*
X137457787Y-141168991D01*
X137447516Y-141122901D01*
X137427443Y-141107302D01*
X137365747Y-141145487D01*
X137273139Y-141226617D01*
X137107102Y-141359291D01*
X136954873Y-141436581D01*
X136824341Y-141455307D01*
X136755998Y-141435176D01*
X136702652Y-141378198D01*
X136697136Y-141284000D01*
X136737829Y-141146009D01*
X136738461Y-141114576D01*
X136698706Y-141101214D01*
X136604531Y-141102413D01*
X136571931Y-141104501D01*
X136384925Y-141117422D01*
X136404027Y-140947948D01*
X136459582Y-140755818D01*
X136533423Y-140641229D01*
X136643716Y-140503984D01*
X136551024Y-140521703D01*
X136481567Y-140523987D01*
X136469740Y-140497452D01*
X136488884Y-140474723D01*
X136685517Y-140474723D01*
X136703659Y-140492866D01*
X136721802Y-140474723D01*
X136703659Y-140456580D01*
X136685517Y-140474723D01*
X136488884Y-140474723D01*
X136510224Y-140449389D01*
X136597699Y-140387090D01*
X136684558Y-140338652D01*
X136828280Y-140278482D01*
X136962997Y-140245046D01*
X137071021Y-140240906D01*
X137134666Y-140268622D01*
G36*
X127418035Y-140627294D02*
G01*
X127431021Y-140682190D01*
X127394581Y-140729831D01*
X127391504Y-140767590D01*
X127442018Y-140832313D01*
X127453129Y-140842914D01*
X127518810Y-140919612D01*
X127534035Y-140997029D01*
X127527061Y-141045927D01*
X127482828Y-141168233D01*
X127396734Y-141267647D01*
X127255751Y-141357613D01*
X127196802Y-141386654D01*
X127077229Y-141439912D01*
X126999564Y-141463779D01*
X126941592Y-141462849D01*
X126897445Y-141448549D01*
X126858938Y-141397007D01*
X126857999Y-141309091D01*
X127069802Y-141309091D01*
X127093872Y-141314976D01*
X127156853Y-141278524D01*
X127224016Y-141225580D01*
X127260419Y-141167204D01*
X127282853Y-141082541D01*
X127288513Y-140997915D01*
X127274594Y-140939650D01*
X127255699Y-140928294D01*
X127228287Y-140958163D01*
X127185035Y-141032522D01*
X127137109Y-141128502D01*
X127095673Y-141223234D01*
X127071892Y-141293846D01*
X127069802Y-141309091D01*
X126857999Y-141309091D01*
X126857884Y-141298402D01*
X126892672Y-141166834D01*
X126942650Y-141052373D01*
X126993010Y-140946998D01*
X127025959Y-140866339D01*
X127033366Y-140837580D01*
X127062334Y-140787152D01*
X127133562Y-140721799D01*
X127224009Y-140658255D01*
X127310630Y-140613252D01*
X127358149Y-140601723D01*
X127418035Y-140627294D01*
G37*
X127418035Y-140627294D02*
X127431021Y-140682190D01*
X127394581Y-140729831D01*
X127391504Y-140767590D01*
X127442018Y-140832313D01*
X127453129Y-140842914D01*
X127518810Y-140919612D01*
X127534035Y-140997029D01*
X127527061Y-141045927D01*
X127482828Y-141168233D01*
X127396734Y-141267647D01*
X127255751Y-141357613D01*
X127196802Y-141386654D01*
X127077229Y-141439912D01*
X126999564Y-141463779D01*
X126941592Y-141462849D01*
X126897445Y-141448549D01*
X126858938Y-141397007D01*
X126857999Y-141309091D01*
X127069802Y-141309091D01*
X127093872Y-141314976D01*
X127156853Y-141278524D01*
X127224016Y-141225580D01*
X127260419Y-141167204D01*
X127282853Y-141082541D01*
X127288513Y-140997915D01*
X127274594Y-140939650D01*
X127255699Y-140928294D01*
X127228287Y-140958163D01*
X127185035Y-141032522D01*
X127137109Y-141128502D01*
X127095673Y-141223234D01*
X127071892Y-141293846D01*
X127069802Y-141309091D01*
X126857999Y-141309091D01*
X126857884Y-141298402D01*
X126892672Y-141166834D01*
X126942650Y-141052373D01*
X126993010Y-140946998D01*
X127025959Y-140866339D01*
X127033366Y-140837580D01*
X127062334Y-140787152D01*
X127133562Y-140721799D01*
X127224009Y-140658255D01*
X127310630Y-140613252D01*
X127358149Y-140601723D01*
X127418035Y-140627294D01*
G36*
X134318806Y-139995706D02*
G01*
X134305871Y-140090896D01*
X134245113Y-140238309D01*
X134199610Y-140327720D01*
X134135181Y-140453225D01*
X134102188Y-140535056D01*
X134096253Y-140592656D01*
X134113001Y-140645472D01*
X134123386Y-140666376D01*
X134184248Y-140761683D01*
X134263548Y-140860834D01*
X134270389Y-140868310D01*
X134330440Y-140944139D01*
X134339623Y-140995654D01*
X134324027Y-141022524D01*
X134242881Y-141070155D01*
X134139556Y-141059263D01*
X134030209Y-140992945D01*
X133995721Y-140959600D01*
X133929205Y-140893395D01*
X133886530Y-140860309D01*
X133879910Y-140859814D01*
X133775334Y-141002041D01*
X133685614Y-141099334D01*
X133616809Y-141147108D01*
X133574976Y-141140783D01*
X133564945Y-141098094D01*
X133582029Y-141053925D01*
X133628795Y-140959338D01*
X133698510Y-140826690D01*
X133784446Y-140668338D01*
X133879872Y-140496639D01*
X133978056Y-140323951D01*
X134072269Y-140162632D01*
X134097167Y-140120937D01*
X134102990Y-140093664D01*
X134062640Y-140112896D01*
X133982540Y-140175137D01*
X133956279Y-140197685D01*
X133859049Y-140271012D01*
X133768599Y-140320377D01*
X133701380Y-140338792D01*
X133673845Y-140319272D01*
X133673802Y-140317641D01*
X133701681Y-140268365D01*
X133773032Y-140196436D01*
X133869427Y-140117082D01*
X133972437Y-140045529D01*
X134060069Y-139998470D01*
X134196965Y-139951994D01*
X134282857Y-139950240D01*
X134318806Y-139995706D01*
G37*
X134318806Y-139995706D02*
X134305871Y-140090896D01*
X134245113Y-140238309D01*
X134199610Y-140327720D01*
X134135181Y-140453225D01*
X134102188Y-140535056D01*
X134096253Y-140592656D01*
X134113001Y-140645472D01*
X134123386Y-140666376D01*
X134184248Y-140761683D01*
X134263548Y-140860834D01*
X134270389Y-140868310D01*
X134330440Y-140944139D01*
X134339623Y-140995654D01*
X134324027Y-141022524D01*
X134242881Y-141070155D01*
X134139556Y-141059263D01*
X134030209Y-140992945D01*
X133995721Y-140959600D01*
X133929205Y-140893395D01*
X133886530Y-140860309D01*
X133879910Y-140859814D01*
X133775334Y-141002041D01*
X133685614Y-141099334D01*
X133616809Y-141147108D01*
X133574976Y-141140783D01*
X133564945Y-141098094D01*
X133582029Y-141053925D01*
X133628795Y-140959338D01*
X133698510Y-140826690D01*
X133784446Y-140668338D01*
X133879872Y-140496639D01*
X133978056Y-140323951D01*
X134072269Y-140162632D01*
X134097167Y-140120937D01*
X134102990Y-140093664D01*
X134062640Y-140112896D01*
X133982540Y-140175137D01*
X133956279Y-140197685D01*
X133859049Y-140271012D01*
X133768599Y-140320377D01*
X133701380Y-140338792D01*
X133673845Y-140319272D01*
X133673802Y-140317641D01*
X133701681Y-140268365D01*
X133773032Y-140196436D01*
X133869427Y-140117082D01*
X133972437Y-140045529D01*
X134060069Y-139998470D01*
X134196965Y-139951994D01*
X134282857Y-139950240D01*
X134318806Y-139995706D01*
G36*
X125489610Y-140172211D02*
G01*
X125508336Y-140203282D01*
X125472967Y-140260746D01*
X125467014Y-140266854D01*
X125451271Y-140308067D01*
X125490791Y-140360055D01*
X125521443Y-140385602D01*
X125600747Y-140482056D01*
X125609209Y-140591711D01*
X125546835Y-140715735D01*
X125523095Y-140745673D01*
X125417822Y-140844549D01*
X125291531Y-140925233D01*
X125162028Y-140980507D01*
X125047121Y-141003155D01*
X124964615Y-140985961D01*
X124953136Y-140976675D01*
X124928920Y-140905968D01*
X124936455Y-140835235D01*
X125146659Y-140835235D01*
X125168299Y-140855021D01*
X125228357Y-140821624D01*
X125280392Y-140776827D01*
X125335170Y-140696999D01*
X125363132Y-140601084D01*
X125359474Y-140516776D01*
X125332346Y-140477354D01*
X125305657Y-140498158D01*
X125262684Y-140564352D01*
X125214710Y-140654192D01*
X125173015Y-140745936D01*
X125148880Y-140817841D01*
X125146659Y-140835235D01*
X124936455Y-140835235D01*
X124940927Y-140793261D01*
X124985928Y-140657463D01*
X125019659Y-140587065D01*
X125071113Y-140482753D01*
X125104197Y-140401223D01*
X125110823Y-140373017D01*
X125139113Y-140327651D01*
X125209223Y-140267220D01*
X125237314Y-140247937D01*
X125341254Y-140193481D01*
X125429635Y-140168591D01*
X125489610Y-140172211D01*
G37*
X125489610Y-140172211D02*
X125508336Y-140203282D01*
X125472967Y-140260746D01*
X125467014Y-140266854D01*
X125451271Y-140308067D01*
X125490791Y-140360055D01*
X125521443Y-140385602D01*
X125600747Y-140482056D01*
X125609209Y-140591711D01*
X125546835Y-140715735D01*
X125523095Y-140745673D01*
X125417822Y-140844549D01*
X125291531Y-140925233D01*
X125162028Y-140980507D01*
X125047121Y-141003155D01*
X124964615Y-140985961D01*
X124953136Y-140976675D01*
X124928920Y-140905968D01*
X124936455Y-140835235D01*
X125146659Y-140835235D01*
X125168299Y-140855021D01*
X125228357Y-140821624D01*
X125280392Y-140776827D01*
X125335170Y-140696999D01*
X125363132Y-140601084D01*
X125359474Y-140516776D01*
X125332346Y-140477354D01*
X125305657Y-140498158D01*
X125262684Y-140564352D01*
X125214710Y-140654192D01*
X125173015Y-140745936D01*
X125148880Y-140817841D01*
X125146659Y-140835235D01*
X124936455Y-140835235D01*
X124940927Y-140793261D01*
X124985928Y-140657463D01*
X125019659Y-140587065D01*
X125071113Y-140482753D01*
X125104197Y-140401223D01*
X125110823Y-140373017D01*
X125139113Y-140327651D01*
X125209223Y-140267220D01*
X125237314Y-140247937D01*
X125341254Y-140193481D01*
X125429635Y-140168591D01*
X125489610Y-140172211D01*
G36*
X126689039Y-139812509D02*
G01*
X126634596Y-139907120D01*
X126558505Y-140047057D01*
X126471319Y-140212608D01*
X126392768Y-140365866D01*
X126309933Y-140526042D01*
X126233675Y-140666719D01*
X126172484Y-140772662D01*
X126134964Y-140828509D01*
X126071244Y-140877582D01*
X126012063Y-140890876D01*
X125981778Y-140863928D01*
X125981231Y-140856668D01*
X125995761Y-140795796D01*
X126034482Y-140686914D01*
X126090089Y-140547392D01*
X126155275Y-140394600D01*
X126222736Y-140245907D01*
X126285166Y-140118685D01*
X126314048Y-140065319D01*
X126435248Y-139870332D01*
X126540251Y-139740736D01*
X126633078Y-139672222D01*
X126694084Y-139658294D01*
X126783630Y-139658294D01*
X126689039Y-139812509D01*
G37*
X126689039Y-139812509D02*
X126634596Y-139907120D01*
X126558505Y-140047057D01*
X126471319Y-140212608D01*
X126392768Y-140365866D01*
X126309933Y-140526042D01*
X126233675Y-140666719D01*
X126172484Y-140772662D01*
X126134964Y-140828509D01*
X126071244Y-140877582D01*
X126012063Y-140890876D01*
X125981778Y-140863928D01*
X125981231Y-140856668D01*
X125995761Y-140795796D01*
X126034482Y-140686914D01*
X126090089Y-140547392D01*
X126155275Y-140394600D01*
X126222736Y-140245907D01*
X126285166Y-140118685D01*
X126314048Y-140065319D01*
X126435248Y-139870332D01*
X126540251Y-139740736D01*
X126633078Y-139672222D01*
X126694084Y-139658294D01*
X126783630Y-139658294D01*
X126689039Y-139812509D01*
G36*
X135252515Y-139628719D02*
G01*
X135264484Y-139655888D01*
X135246791Y-139714071D01*
X135196423Y-139813825D01*
X135121069Y-139947170D01*
X135006165Y-140160382D01*
X134920048Y-140349216D01*
X134866641Y-140503456D01*
X134849871Y-140612887D01*
X134854268Y-140641727D01*
X134868858Y-140681322D01*
X134891030Y-140701633D01*
X134934977Y-140701755D01*
X135014896Y-140680786D01*
X135144982Y-140637822D01*
X135197802Y-140619866D01*
X135349879Y-140569180D01*
X135446124Y-140540863D01*
X135498965Y-140532639D01*
X135520828Y-140542231D01*
X135524374Y-140560066D01*
X135492753Y-140593523D01*
X135409539Y-140641780D01*
X135292209Y-140697356D01*
X135158237Y-140752774D01*
X135025099Y-140800554D01*
X134910269Y-140833216D01*
X134867401Y-140841245D01*
X134752633Y-140848968D01*
X134683923Y-140829668D01*
X134656450Y-140804829D01*
X134623008Y-140709638D01*
X134635870Y-140565050D01*
X134693861Y-140376554D01*
X134795805Y-140149638D01*
X134797423Y-140146442D01*
X134909320Y-139944347D01*
X135016984Y-139784825D01*
X135114206Y-139675694D01*
X135194779Y-139624773D01*
X135213900Y-139622009D01*
X135252515Y-139628719D01*
G37*
X135252515Y-139628719D02*
X135264484Y-139655888D01*
X135246791Y-139714071D01*
X135196423Y-139813825D01*
X135121069Y-139947170D01*
X135006165Y-140160382D01*
X134920048Y-140349216D01*
X134866641Y-140503456D01*
X134849871Y-140612887D01*
X134854268Y-140641727D01*
X134868858Y-140681322D01*
X134891030Y-140701633D01*
X134934977Y-140701755D01*
X135014896Y-140680786D01*
X135144982Y-140637822D01*
X135197802Y-140619866D01*
X135349879Y-140569180D01*
X135446124Y-140540863D01*
X135498965Y-140532639D01*
X135520828Y-140542231D01*
X135524374Y-140560066D01*
X135492753Y-140593523D01*
X135409539Y-140641780D01*
X135292209Y-140697356D01*
X135158237Y-140752774D01*
X135025099Y-140800554D01*
X134910269Y-140833216D01*
X134867401Y-140841245D01*
X134752633Y-140848968D01*
X134683923Y-140829668D01*
X134656450Y-140804829D01*
X134623008Y-140709638D01*
X134635870Y-140565050D01*
X134693861Y-140376554D01*
X134795805Y-140149638D01*
X134797423Y-140146442D01*
X134909320Y-139944347D01*
X135016984Y-139784825D01*
X135114206Y-139675694D01*
X135194779Y-139624773D01*
X135213900Y-139622009D01*
X135252515Y-139628719D01*
G36*
X132539874Y-140012002D02*
G01*
X132585880Y-140059619D01*
X132580004Y-140149716D01*
X132524236Y-140276149D01*
X132420564Y-140432771D01*
X132391214Y-140471066D01*
X132280270Y-140612553D01*
X132414607Y-140587351D01*
X132512539Y-140574884D01*
X132542730Y-140585931D01*
X132505535Y-140618918D01*
X132401311Y-140672272D01*
X132394731Y-140675272D01*
X132263579Y-140724307D01*
X132157740Y-140744282D01*
X132091814Y-140733700D01*
X132077231Y-140707791D01*
X132097091Y-140660389D01*
X132149162Y-140573637D01*
X132222183Y-140466294D01*
X132222374Y-140466027D01*
X132315212Y-140325260D01*
X132360998Y-140229068D01*
X132358929Y-140180230D01*
X132308203Y-140181527D01*
X132304016Y-140183096D01*
X132219034Y-140209362D01*
X132144042Y-140227138D01*
X132073774Y-140256972D01*
X132036100Y-140324531D01*
X132023898Y-140378811D01*
X131982553Y-140578146D01*
X131941782Y-140708585D01*
X131900251Y-140773780D01*
X131876261Y-140783152D01*
X131843372Y-140763099D01*
X131826953Y-140694429D01*
X131823287Y-140592652D01*
X131838911Y-140428610D01*
X131881069Y-140289723D01*
X131942840Y-140191077D01*
X132017303Y-140147762D01*
X132027709Y-140146980D01*
X132115736Y-140126772D01*
X132156137Y-140103523D01*
X132228510Y-140066456D01*
X132336306Y-140033355D01*
X132447490Y-140011858D01*
X132530026Y-140009607D01*
X132539874Y-140012002D01*
G37*
X132539874Y-140012002D02*
X132585880Y-140059619D01*
X132580004Y-140149716D01*
X132524236Y-140276149D01*
X132420564Y-140432771D01*
X132391214Y-140471066D01*
X132280270Y-140612553D01*
X132414607Y-140587351D01*
X132512539Y-140574884D01*
X132542730Y-140585931D01*
X132505535Y-140618918D01*
X132401311Y-140672272D01*
X132394731Y-140675272D01*
X132263579Y-140724307D01*
X132157740Y-140744282D01*
X132091814Y-140733700D01*
X132077231Y-140707791D01*
X132097091Y-140660389D01*
X132149162Y-140573637D01*
X132222183Y-140466294D01*
X132222374Y-140466027D01*
X132315212Y-140325260D01*
X132360998Y-140229068D01*
X132358929Y-140180230D01*
X132308203Y-140181527D01*
X132304016Y-140183096D01*
X132219034Y-140209362D01*
X132144042Y-140227138D01*
X132073774Y-140256972D01*
X132036100Y-140324531D01*
X132023898Y-140378811D01*
X131982553Y-140578146D01*
X131941782Y-140708585D01*
X131900251Y-140773780D01*
X131876261Y-140783152D01*
X131843372Y-140763099D01*
X131826953Y-140694429D01*
X131823287Y-140592652D01*
X131838911Y-140428610D01*
X131881069Y-140289723D01*
X131942840Y-140191077D01*
X132017303Y-140147762D01*
X132027709Y-140146980D01*
X132115736Y-140126772D01*
X132156137Y-140103523D01*
X132228510Y-140066456D01*
X132336306Y-140033355D01*
X132447490Y-140011858D01*
X132530026Y-140009607D01*
X132539874Y-140012002D01*
G36*
X120312351Y-135391322D02*
G01*
X120351018Y-135497803D01*
X120356591Y-135574337D01*
X120330218Y-135737355D01*
X120251135Y-135941591D01*
X120118359Y-136189292D01*
X120013676Y-136357909D01*
X119938286Y-136476453D01*
X119881033Y-136570290D01*
X119851195Y-136624066D01*
X119848945Y-136630501D01*
X119876825Y-136628129D01*
X119945043Y-136598656D01*
X119956000Y-136593083D01*
X120081796Y-136545792D01*
X120188689Y-136553760D01*
X120297787Y-136621015D01*
X120349672Y-136668230D01*
X120438299Y-136746579D01*
X120508977Y-136781208D01*
X120590416Y-136783982D01*
X120621072Y-136780399D01*
X120713745Y-136753810D01*
X120831059Y-136701078D01*
X120955210Y-136632898D01*
X121068393Y-136559964D01*
X121152802Y-136492974D01*
X121190631Y-136442620D01*
X121191199Y-136437937D01*
X121221926Y-136401675D01*
X121267493Y-136392580D01*
X121311510Y-136398718D01*
X121329870Y-136429200D01*
X121327647Y-136502132D01*
X121318461Y-136574414D01*
X121293452Y-136756248D01*
X121425240Y-136811313D01*
X121550106Y-136846384D01*
X121673385Y-136834796D01*
X121692330Y-136829944D01*
X121829272Y-136775980D01*
X121988572Y-136688202D01*
X122141171Y-136584010D01*
X122233214Y-136506071D01*
X122323278Y-136439486D01*
X122388175Y-136431029D01*
X122419183Y-136479327D01*
X122417874Y-136535112D01*
X122402280Y-136641358D01*
X122491220Y-136571398D01*
X122624027Y-136505526D01*
X122756583Y-136509698D01*
X122876885Y-136582344D01*
X122916463Y-136627015D01*
X122994456Y-136711939D01*
X123071654Y-136769937D01*
X123090667Y-136778372D01*
X123258220Y-136796023D01*
X123408305Y-136755777D01*
X123876659Y-136755777D01*
X123891462Y-136783307D01*
X123930162Y-136754551D01*
X123984199Y-136678130D01*
X124016565Y-136619647D01*
X125113884Y-136619647D01*
X125193772Y-136686335D01*
X125283824Y-136734964D01*
X125384158Y-136753088D01*
X125466543Y-136738145D01*
X125494766Y-136713662D01*
X125485348Y-136665745D01*
X125425862Y-136595967D01*
X125397122Y-136570931D01*
X125273659Y-136469976D01*
X125193772Y-136544811D01*
X125113884Y-136619647D01*
X124016565Y-136619647D01*
X124022515Y-136608897D01*
X124063073Y-136522511D01*
X124067952Y-136486446D01*
X124038798Y-136488756D01*
X123983583Y-136536273D01*
X123925870Y-136621103D01*
X123885023Y-136711358D01*
X123876659Y-136755777D01*
X123408305Y-136755777D01*
X123441234Y-136746947D01*
X123633640Y-136633720D01*
X123819971Y-136468697D01*
X123934991Y-136369114D01*
X124055052Y-136296123D01*
X124162124Y-136258442D01*
X124238178Y-136264789D01*
X124239753Y-136265726D01*
X124267585Y-136316757D01*
X124271105Y-136368092D01*
X124268168Y-136464549D01*
X124270159Y-136511345D01*
X124279924Y-136553148D01*
X124311766Y-136549877D01*
X124363752Y-136518055D01*
X124431658Y-136482085D01*
X124491222Y-136485168D01*
X124561521Y-136517219D01*
X124701342Y-136564630D01*
X124841311Y-136557517D01*
X124989393Y-136492782D01*
X125153553Y-136367325D01*
X125289849Y-136233799D01*
X125387748Y-136148225D01*
X125470780Y-136107023D01*
X125527280Y-136113422D01*
X125545802Y-136162937D01*
X125522667Y-136235910D01*
X125484635Y-136291169D01*
X125450466Y-136337076D01*
X125454752Y-136376720D01*
X125504466Y-136432289D01*
X125539064Y-136464338D01*
X125625250Y-136568751D01*
X125654659Y-136662678D01*
X125671312Y-136734052D01*
X125703684Y-136755437D01*
X125769867Y-136737102D01*
X125873421Y-136690210D01*
X125991651Y-136626934D01*
X126101864Y-136559446D01*
X126181365Y-136499917D01*
X126183141Y-136498285D01*
X126267668Y-136442265D01*
X126338205Y-136433243D01*
X126377326Y-136471484D01*
X126380374Y-136495286D01*
X126349143Y-136559367D01*
X126265114Y-136640046D01*
X126142786Y-136726756D01*
X125996653Y-136808928D01*
X125876355Y-136862725D01*
X125693400Y-136915532D01*
X125503307Y-136938042D01*
X125326945Y-136930284D01*
X125185180Y-136892289D01*
X125133410Y-136861661D01*
X125067790Y-136797686D01*
X125037969Y-136744214D01*
X125037802Y-136741417D01*
X125013868Y-136715768D01*
X124935839Y-136707110D01*
X124825165Y-136711759D01*
X124696339Y-136713814D01*
X124588289Y-136702908D01*
X124540381Y-136688528D01*
X124458820Y-136681354D01*
X124375165Y-136740323D01*
X124293914Y-136859306D01*
X124219565Y-137032172D01*
X124171717Y-137190866D01*
X124097484Y-137447709D01*
X124024305Y-137636323D01*
X123949933Y-137760976D01*
X123872123Y-137825934D01*
X123831609Y-137837318D01*
X123747113Y-137828757D01*
X123694674Y-137766255D01*
X123690400Y-137757182D01*
X123671351Y-137634743D01*
X123680187Y-137590009D01*
X123844586Y-137590009D01*
X123857330Y-137591607D01*
X123887380Y-137546411D01*
X123924511Y-137474775D01*
X123958497Y-137397051D01*
X123979114Y-137333593D01*
X123981304Y-137317866D01*
X123967238Y-137322568D01*
X123930528Y-137377581D01*
X123912945Y-137408580D01*
X123868273Y-137503674D01*
X123845406Y-137578855D01*
X123844586Y-137590009D01*
X123680187Y-137590009D01*
X123703156Y-137473725D01*
X123782851Y-137284237D01*
X123805454Y-137245295D01*
X123985516Y-137245295D01*
X124003659Y-137263437D01*
X124021802Y-137245295D01*
X124003659Y-137227152D01*
X123985516Y-137245295D01*
X123805454Y-137245295D01*
X123876251Y-137123328D01*
X124009903Y-136916542D01*
X123886564Y-136930941D01*
X123798374Y-136932563D01*
X123755889Y-136902901D01*
X123743466Y-136869786D01*
X123728078Y-136824031D01*
X123701277Y-136813019D01*
X123642406Y-136836070D01*
X123585799Y-136864587D01*
X123373378Y-136943083D01*
X123175524Y-136957830D01*
X123000174Y-136909928D01*
X122855268Y-136800474D01*
X122821102Y-136758773D01*
X122756946Y-136686140D01*
X122703009Y-136648181D01*
X122694474Y-136646580D01*
X122647123Y-136669399D01*
X122564884Y-136729235D01*
X122465518Y-136813160D01*
X122465036Y-136813593D01*
X122341770Y-136911484D01*
X122251011Y-136956582D01*
X122197247Y-136948313D01*
X122184962Y-136886102D01*
X122192021Y-136848522D01*
X122214594Y-136758584D01*
X122011720Y-136868465D01*
X121793347Y-136961484D01*
X121588755Y-136999867D01*
X121409223Y-136982514D01*
X121305571Y-136937290D01*
X121222277Y-136871378D01*
X121170734Y-136805565D01*
X121166225Y-136793562D01*
X121151529Y-136759579D01*
X121121221Y-136752606D01*
X121059447Y-136775421D01*
X120950352Y-136830801D01*
X120948700Y-136831670D01*
X120763718Y-136909416D01*
X120591064Y-136936603D01*
X120571079Y-136936866D01*
X120454012Y-136929300D01*
X120365791Y-136897317D01*
X120272186Y-136826992D01*
X120247902Y-136805382D01*
X120102365Y-136673897D01*
X119934595Y-136841667D01*
X119817965Y-136949754D01*
X119738788Y-137000042D01*
X119691515Y-136993193D01*
X119670598Y-136929865D01*
X119668302Y-136873366D01*
X119680420Y-136727798D01*
X119712395Y-136540321D01*
X119759722Y-136327024D01*
X119794676Y-136193009D01*
X119921517Y-136193009D01*
X119939659Y-136211152D01*
X119957802Y-136193009D01*
X119939659Y-136174866D01*
X119921517Y-136193009D01*
X119794676Y-136193009D01*
X119811991Y-136126626D01*
X119960923Y-136126626D01*
X119975462Y-136113738D01*
X120010011Y-136051269D01*
X120056462Y-135956539D01*
X120106709Y-135846872D01*
X120152645Y-135739589D01*
X120186165Y-135652013D01*
X120193064Y-135630580D01*
X120204047Y-135571628D01*
X120184134Y-135576152D01*
X120154303Y-135625831D01*
X120109880Y-135720760D01*
X120059596Y-135839401D01*
X120012187Y-135960213D01*
X119976387Y-136061659D01*
X119960928Y-136122199D01*
X119960923Y-136126626D01*
X119811991Y-136126626D01*
X119817893Y-136104000D01*
X119882404Y-135887340D01*
X119948749Y-135693135D01*
X120012422Y-135537478D01*
X120068918Y-135436458D01*
X120071635Y-135432925D01*
X120162047Y-135353617D01*
X120245823Y-135341505D01*
X120312351Y-135391322D01*
G37*
X120312351Y-135391322D02*
X120351018Y-135497803D01*
X120356591Y-135574337D01*
X120330218Y-135737355D01*
X120251135Y-135941591D01*
X120118359Y-136189292D01*
X120013676Y-136357909D01*
X119938286Y-136476453D01*
X119881033Y-136570290D01*
X119851195Y-136624066D01*
X119848945Y-136630501D01*
X119876825Y-136628129D01*
X119945043Y-136598656D01*
X119956000Y-136593083D01*
X120081796Y-136545792D01*
X120188689Y-136553760D01*
X120297787Y-136621015D01*
X120349672Y-136668230D01*
X120438299Y-136746579D01*
X120508977Y-136781208D01*
X120590416Y-136783982D01*
X120621072Y-136780399D01*
X120713745Y-136753810D01*
X120831059Y-136701078D01*
X120955210Y-136632898D01*
X121068393Y-136559964D01*
X121152802Y-136492974D01*
X121190631Y-136442620D01*
X121191199Y-136437937D01*
X121221926Y-136401675D01*
X121267493Y-136392580D01*
X121311510Y-136398718D01*
X121329870Y-136429200D01*
X121327647Y-136502132D01*
X121318461Y-136574414D01*
X121293452Y-136756248D01*
X121425240Y-136811313D01*
X121550106Y-136846384D01*
X121673385Y-136834796D01*
X121692330Y-136829944D01*
X121829272Y-136775980D01*
X121988572Y-136688202D01*
X122141171Y-136584010D01*
X122233214Y-136506071D01*
X122323278Y-136439486D01*
X122388175Y-136431029D01*
X122419183Y-136479327D01*
X122417874Y-136535112D01*
X122402280Y-136641358D01*
X122491220Y-136571398D01*
X122624027Y-136505526D01*
X122756583Y-136509698D01*
X122876885Y-136582344D01*
X122916463Y-136627015D01*
X122994456Y-136711939D01*
X123071654Y-136769937D01*
X123090667Y-136778372D01*
X123258220Y-136796023D01*
X123408305Y-136755777D01*
X123876659Y-136755777D01*
X123891462Y-136783307D01*
X123930162Y-136754551D01*
X123984199Y-136678130D01*
X124016565Y-136619647D01*
X125113884Y-136619647D01*
X125193772Y-136686335D01*
X125283824Y-136734964D01*
X125384158Y-136753088D01*
X125466543Y-136738145D01*
X125494766Y-136713662D01*
X125485348Y-136665745D01*
X125425862Y-136595967D01*
X125397122Y-136570931D01*
X125273659Y-136469976D01*
X125193772Y-136544811D01*
X125113884Y-136619647D01*
X124016565Y-136619647D01*
X124022515Y-136608897D01*
X124063073Y-136522511D01*
X124067952Y-136486446D01*
X124038798Y-136488756D01*
X123983583Y-136536273D01*
X123925870Y-136621103D01*
X123885023Y-136711358D01*
X123876659Y-136755777D01*
X123408305Y-136755777D01*
X123441234Y-136746947D01*
X123633640Y-136633720D01*
X123819971Y-136468697D01*
X123934991Y-136369114D01*
X124055052Y-136296123D01*
X124162124Y-136258442D01*
X124238178Y-136264789D01*
X124239753Y-136265726D01*
X124267585Y-136316757D01*
X124271105Y-136368092D01*
X124268168Y-136464549D01*
X124270159Y-136511345D01*
X124279924Y-136553148D01*
X124311766Y-136549877D01*
X124363752Y-136518055D01*
X124431658Y-136482085D01*
X124491222Y-136485168D01*
X124561521Y-136517219D01*
X124701342Y-136564630D01*
X124841311Y-136557517D01*
X124989393Y-136492782D01*
X125153553Y-136367325D01*
X125289849Y-136233799D01*
X125387748Y-136148225D01*
X125470780Y-136107023D01*
X125527280Y-136113422D01*
X125545802Y-136162937D01*
X125522667Y-136235910D01*
X125484635Y-136291169D01*
X125450466Y-136337076D01*
X125454752Y-136376720D01*
X125504466Y-136432289D01*
X125539064Y-136464338D01*
X125625250Y-136568751D01*
X125654659Y-136662678D01*
X125671312Y-136734052D01*
X125703684Y-136755437D01*
X125769867Y-136737102D01*
X125873421Y-136690210D01*
X125991651Y-136626934D01*
X126101864Y-136559446D01*
X126181365Y-136499917D01*
X126183141Y-136498285D01*
X126267668Y-136442265D01*
X126338205Y-136433243D01*
X126377326Y-136471484D01*
X126380374Y-136495286D01*
X126349143Y-136559367D01*
X126265114Y-136640046D01*
X126142786Y-136726756D01*
X125996653Y-136808928D01*
X125876355Y-136862725D01*
X125693400Y-136915532D01*
X125503307Y-136938042D01*
X125326945Y-136930284D01*
X125185180Y-136892289D01*
X125133410Y-136861661D01*
X125067790Y-136797686D01*
X125037969Y-136744214D01*
X125037802Y-136741417D01*
X125013868Y-136715768D01*
X124935839Y-136707110D01*
X124825165Y-136711759D01*
X124696339Y-136713814D01*
X124588289Y-136702908D01*
X124540381Y-136688528D01*
X124458820Y-136681354D01*
X124375165Y-136740323D01*
X124293914Y-136859306D01*
X124219565Y-137032172D01*
X124171717Y-137190866D01*
X124097484Y-137447709D01*
X124024305Y-137636323D01*
X123949933Y-137760976D01*
X123872123Y-137825934D01*
X123831609Y-137837318D01*
X123747113Y-137828757D01*
X123694674Y-137766255D01*
X123690400Y-137757182D01*
X123671351Y-137634743D01*
X123680187Y-137590009D01*
X123844586Y-137590009D01*
X123857330Y-137591607D01*
X123887380Y-137546411D01*
X123924511Y-137474775D01*
X123958497Y-137397051D01*
X123979114Y-137333593D01*
X123981304Y-137317866D01*
X123967238Y-137322568D01*
X123930528Y-137377581D01*
X123912945Y-137408580D01*
X123868273Y-137503674D01*
X123845406Y-137578855D01*
X123844586Y-137590009D01*
X123680187Y-137590009D01*
X123703156Y-137473725D01*
X123782851Y-137284237D01*
X123805454Y-137245295D01*
X123985516Y-137245295D01*
X124003659Y-137263437D01*
X124021802Y-137245295D01*
X124003659Y-137227152D01*
X123985516Y-137245295D01*
X123805454Y-137245295D01*
X123876251Y-137123328D01*
X124009903Y-136916542D01*
X123886564Y-136930941D01*
X123798374Y-136932563D01*
X123755889Y-136902901D01*
X123743466Y-136869786D01*
X123728078Y-136824031D01*
X123701277Y-136813019D01*
X123642406Y-136836070D01*
X123585799Y-136864587D01*
X123373378Y-136943083D01*
X123175524Y-136957830D01*
X123000174Y-136909928D01*
X122855268Y-136800474D01*
X122821102Y-136758773D01*
X122756946Y-136686140D01*
X122703009Y-136648181D01*
X122694474Y-136646580D01*
X122647123Y-136669399D01*
X122564884Y-136729235D01*
X122465518Y-136813160D01*
X122465036Y-136813593D01*
X122341770Y-136911484D01*
X122251011Y-136956582D01*
X122197247Y-136948313D01*
X122184962Y-136886102D01*
X122192021Y-136848522D01*
X122214594Y-136758584D01*
X122011720Y-136868465D01*
X121793347Y-136961484D01*
X121588755Y-136999867D01*
X121409223Y-136982514D01*
X121305571Y-136937290D01*
X121222277Y-136871378D01*
X121170734Y-136805565D01*
X121166225Y-136793562D01*
X121151529Y-136759579D01*
X121121221Y-136752606D01*
X121059447Y-136775421D01*
X120950352Y-136830801D01*
X120948700Y-136831670D01*
X120763718Y-136909416D01*
X120591064Y-136936603D01*
X120571079Y-136936866D01*
X120454012Y-136929300D01*
X120365791Y-136897317D01*
X120272186Y-136826992D01*
X120247902Y-136805382D01*
X120102365Y-136673897D01*
X119934595Y-136841667D01*
X119817965Y-136949754D01*
X119738788Y-137000042D01*
X119691515Y-136993193D01*
X119670598Y-136929865D01*
X119668302Y-136873366D01*
X119680420Y-136727798D01*
X119712395Y-136540321D01*
X119759722Y-136327024D01*
X119794676Y-136193009D01*
X119921517Y-136193009D01*
X119939659Y-136211152D01*
X119957802Y-136193009D01*
X119939659Y-136174866D01*
X119921517Y-136193009D01*
X119794676Y-136193009D01*
X119811991Y-136126626D01*
X119960923Y-136126626D01*
X119975462Y-136113738D01*
X120010011Y-136051269D01*
X120056462Y-135956539D01*
X120106709Y-135846872D01*
X120152645Y-135739589D01*
X120186165Y-135652013D01*
X120193064Y-135630580D01*
X120204047Y-135571628D01*
X120184134Y-135576152D01*
X120154303Y-135625831D01*
X120109880Y-135720760D01*
X120059596Y-135839401D01*
X120012187Y-135960213D01*
X119976387Y-136061659D01*
X119960928Y-136122199D01*
X119960923Y-136126626D01*
X119811991Y-136126626D01*
X119817893Y-136104000D01*
X119882404Y-135887340D01*
X119948749Y-135693135D01*
X120012422Y-135537478D01*
X120068918Y-135436458D01*
X120071635Y-135432925D01*
X120162047Y-135353617D01*
X120245823Y-135341505D01*
X120312351Y-135391322D01*
G36*
X137627607Y-136264789D02*
G01*
X137629182Y-136265726D01*
X137657014Y-136316757D01*
X137660533Y-136368092D01*
X137657597Y-136464549D01*
X137659587Y-136511345D01*
X137669353Y-136553148D01*
X137701195Y-136549877D01*
X137753180Y-136518055D01*
X137821087Y-136482085D01*
X137880650Y-136485168D01*
X137950950Y-136517219D01*
X138118453Y-136569103D01*
X138279218Y-136549226D01*
X138371117Y-136502885D01*
X138458537Y-136458336D01*
X138516491Y-136464856D01*
X138525331Y-136471281D01*
X138567000Y-136523662D01*
X138550919Y-136574509D01*
X138472194Y-136635954D01*
X138454445Y-136646978D01*
X138334733Y-136693733D01*
X138185585Y-136717295D01*
X138038515Y-136715440D01*
X137925041Y-136685943D01*
X137922347Y-136684534D01*
X137845660Y-136680287D01*
X137764827Y-136740581D01*
X137685137Y-136858002D01*
X137611880Y-137025134D01*
X137561145Y-137190866D01*
X137486913Y-137447709D01*
X137413733Y-137636323D01*
X137339361Y-137760976D01*
X137261552Y-137825934D01*
X137221038Y-137837318D01*
X137127237Y-137821897D01*
X137073781Y-137755035D01*
X137060137Y-137645254D01*
X137069959Y-137590009D01*
X137234014Y-137590009D01*
X137246759Y-137591607D01*
X137276809Y-137546411D01*
X137313939Y-137474775D01*
X137347925Y-137397051D01*
X137368542Y-137333593D01*
X137370733Y-137317866D01*
X137356666Y-137322568D01*
X137319957Y-137377581D01*
X137302374Y-137408580D01*
X137257702Y-137503674D01*
X137234835Y-137578855D01*
X137234014Y-137590009D01*
X137069959Y-137590009D01*
X137085771Y-137501075D01*
X137150151Y-137331021D01*
X137197081Y-137245295D01*
X137374945Y-137245295D01*
X137393088Y-137263437D01*
X137411231Y-137245295D01*
X137393088Y-137227152D01*
X137374945Y-137245295D01*
X137197081Y-137245295D01*
X137252745Y-137143615D01*
X137265679Y-137123328D01*
X137399332Y-136916542D01*
X137275992Y-136930941D01*
X137187802Y-136932563D01*
X137145318Y-136902901D01*
X137132895Y-136869786D01*
X137117507Y-136824031D01*
X137090705Y-136813019D01*
X137031835Y-136836070D01*
X136975228Y-136864587D01*
X136762806Y-136943083D01*
X136564952Y-136957830D01*
X136389603Y-136909928D01*
X136244696Y-136800474D01*
X136210531Y-136758773D01*
X136146375Y-136686140D01*
X136092437Y-136648181D01*
X136083903Y-136646580D01*
X136036552Y-136669399D01*
X135954313Y-136729235D01*
X135854946Y-136813160D01*
X135854464Y-136813593D01*
X135731198Y-136911484D01*
X135640440Y-136956582D01*
X135586675Y-136948313D01*
X135574390Y-136886102D01*
X135581450Y-136848522D01*
X135604023Y-136758584D01*
X135401149Y-136868465D01*
X135176272Y-136964791D01*
X134970655Y-137002043D01*
X134791883Y-136979563D01*
X134689802Y-136930014D01*
X134606884Y-136857196D01*
X134556423Y-136781934D01*
X134551207Y-136763262D01*
X134541268Y-136709779D01*
X134520451Y-136689476D01*
X134471915Y-136702158D01*
X134378814Y-136747631D01*
X134352714Y-136760976D01*
X134211691Y-136814077D01*
X134040303Y-136839081D01*
X133945945Y-136842619D01*
X133782507Y-136851934D01*
X133683762Y-136875230D01*
X133650840Y-136898766D01*
X133582712Y-136936797D01*
X133478586Y-136949831D01*
X133370747Y-136937447D01*
X133296193Y-136903394D01*
X133248069Y-136828853D01*
X133238423Y-136778209D01*
X133231881Y-136734063D01*
X133200433Y-136712950D01*
X133126456Y-136709029D01*
X133042361Y-136713235D01*
X132917793Y-136713415D01*
X132814326Y-136700469D01*
X132785839Y-136691050D01*
X133395293Y-136691050D01*
X133406835Y-136756078D01*
X133460188Y-136790913D01*
X133472194Y-136791723D01*
X133507680Y-136776864D01*
X133499642Y-136720820D01*
X133493792Y-136704740D01*
X133474141Y-136631273D01*
X133476115Y-136595451D01*
X133466390Y-136597304D01*
X133432551Y-136625192D01*
X133395293Y-136691050D01*
X132785839Y-136691050D01*
X132775670Y-136687688D01*
X132695130Y-136681135D01*
X132612059Y-136740393D01*
X132531126Y-136859061D01*
X132457001Y-137030738D01*
X132408574Y-137190866D01*
X132334341Y-137447709D01*
X132261162Y-137636323D01*
X132186790Y-137760976D01*
X132108980Y-137825934D01*
X132068466Y-137837318D01*
X131983970Y-137828757D01*
X131931531Y-137766255D01*
X131927257Y-137757182D01*
X131908216Y-137634844D01*
X131917050Y-137590009D01*
X132081443Y-137590009D01*
X132094187Y-137591607D01*
X132124237Y-137546411D01*
X132161368Y-137474775D01*
X132195354Y-137397051D01*
X132215971Y-137333593D01*
X132218162Y-137317866D01*
X132204095Y-137322568D01*
X132167386Y-137377581D01*
X132149802Y-137408580D01*
X132105130Y-137503674D01*
X132082264Y-137578855D01*
X132081443Y-137590009D01*
X131917050Y-137590009D01*
X131939910Y-137473991D01*
X132019336Y-137284885D01*
X132042310Y-137245295D01*
X132222374Y-137245295D01*
X132240516Y-137263437D01*
X132258659Y-137245295D01*
X132240516Y-137227152D01*
X132222374Y-137245295D01*
X132042310Y-137245295D01*
X132112458Y-137124419D01*
X132245461Y-136918723D01*
X131986516Y-136918723D01*
X131987809Y-136755777D01*
X132113516Y-136755777D01*
X132128319Y-136783307D01*
X132167019Y-136754551D01*
X132221056Y-136678130D01*
X132259372Y-136608897D01*
X132299930Y-136522511D01*
X132304809Y-136486446D01*
X132275655Y-136488756D01*
X132220440Y-136536273D01*
X132162728Y-136621103D01*
X132121880Y-136711358D01*
X132113516Y-136755777D01*
X131987809Y-136755777D01*
X131988022Y-136729034D01*
X131996553Y-136602081D01*
X132027404Y-136514072D01*
X132092209Y-136432173D01*
X132093793Y-136430516D01*
X132190708Y-136350968D01*
X132301915Y-136290432D01*
X132404683Y-136258690D01*
X132476285Y-136265527D01*
X132476610Y-136265726D01*
X132504443Y-136316757D01*
X132507962Y-136368092D01*
X132505026Y-136464549D01*
X132507016Y-136511345D01*
X132516781Y-136553148D01*
X132548624Y-136549877D01*
X132600609Y-136518055D01*
X132668516Y-136482085D01*
X132728079Y-136485168D01*
X132798378Y-136517219D01*
X132916187Y-136562411D01*
X133031467Y-136566200D01*
X133165081Y-136526422D01*
X133291069Y-136466063D01*
X133426017Y-136403074D01*
X133515340Y-136381918D01*
X133557826Y-136390843D01*
X133646514Y-136430410D01*
X133682874Y-136443221D01*
X133734732Y-136495235D01*
X133746374Y-136570425D01*
X133767337Y-136659538D01*
X133834668Y-136704527D01*
X133955024Y-136708429D01*
X134026002Y-136698003D01*
X134154551Y-136662173D01*
X134297269Y-136603918D01*
X134428758Y-136535444D01*
X134523622Y-136468959D01*
X134542310Y-136449839D01*
X134615420Y-136401614D01*
X134661364Y-136392580D01*
X134702716Y-136399563D01*
X134719472Y-136432475D01*
X134716223Y-136509265D01*
X134707889Y-136574414D01*
X134682881Y-136756248D01*
X134814668Y-136811313D01*
X134939534Y-136846384D01*
X135062814Y-136834796D01*
X135081758Y-136829944D01*
X135218701Y-136775980D01*
X135378001Y-136688202D01*
X135530600Y-136584010D01*
X135622642Y-136506071D01*
X135712706Y-136439486D01*
X135777603Y-136431029D01*
X135808612Y-136479327D01*
X135807303Y-136535112D01*
X135791709Y-136641358D01*
X135880649Y-136571398D01*
X136013455Y-136505526D01*
X136146011Y-136509698D01*
X136266314Y-136582344D01*
X136305891Y-136627015D01*
X136383884Y-136711939D01*
X136461083Y-136769937D01*
X136480095Y-136778372D01*
X136647648Y-136796023D01*
X136797733Y-136755777D01*
X137266088Y-136755777D01*
X137280891Y-136783307D01*
X137319591Y-136754551D01*
X137373627Y-136678130D01*
X137411944Y-136608897D01*
X137452501Y-136522511D01*
X137457381Y-136486446D01*
X137428226Y-136488756D01*
X137373011Y-136536273D01*
X137315299Y-136621103D01*
X137274452Y-136711358D01*
X137266088Y-136755777D01*
X136797733Y-136755777D01*
X136830662Y-136746947D01*
X137023068Y-136633720D01*
X137209399Y-136468697D01*
X137324420Y-136369114D01*
X137444481Y-136296123D01*
X137551553Y-136258442D01*
X137627607Y-136264789D01*
G37*
X137627607Y-136264789D02*
X137629182Y-136265726D01*
X137657014Y-136316757D01*
X137660533Y-136368092D01*
X137657597Y-136464549D01*
X137659587Y-136511345D01*
X137669353Y-136553148D01*
X137701195Y-136549877D01*
X137753180Y-136518055D01*
X137821087Y-136482085D01*
X137880650Y-136485168D01*
X137950950Y-136517219D01*
X138118453Y-136569103D01*
X138279218Y-136549226D01*
X138371117Y-136502885D01*
X138458537Y-136458336D01*
X138516491Y-136464856D01*
X138525331Y-136471281D01*
X138567000Y-136523662D01*
X138550919Y-136574509D01*
X138472194Y-136635954D01*
X138454445Y-136646978D01*
X138334733Y-136693733D01*
X138185585Y-136717295D01*
X138038515Y-136715440D01*
X137925041Y-136685943D01*
X137922347Y-136684534D01*
X137845660Y-136680287D01*
X137764827Y-136740581D01*
X137685137Y-136858002D01*
X137611880Y-137025134D01*
X137561145Y-137190866D01*
X137486913Y-137447709D01*
X137413733Y-137636323D01*
X137339361Y-137760976D01*
X137261552Y-137825934D01*
X137221038Y-137837318D01*
X137127237Y-137821897D01*
X137073781Y-137755035D01*
X137060137Y-137645254D01*
X137069959Y-137590009D01*
X137234014Y-137590009D01*
X137246759Y-137591607D01*
X137276809Y-137546411D01*
X137313939Y-137474775D01*
X137347925Y-137397051D01*
X137368542Y-137333593D01*
X137370733Y-137317866D01*
X137356666Y-137322568D01*
X137319957Y-137377581D01*
X137302374Y-137408580D01*
X137257702Y-137503674D01*
X137234835Y-137578855D01*
X137234014Y-137590009D01*
X137069959Y-137590009D01*
X137085771Y-137501075D01*
X137150151Y-137331021D01*
X137197081Y-137245295D01*
X137374945Y-137245295D01*
X137393088Y-137263437D01*
X137411231Y-137245295D01*
X137393088Y-137227152D01*
X137374945Y-137245295D01*
X137197081Y-137245295D01*
X137252745Y-137143615D01*
X137265679Y-137123328D01*
X137399332Y-136916542D01*
X137275992Y-136930941D01*
X137187802Y-136932563D01*
X137145318Y-136902901D01*
X137132895Y-136869786D01*
X137117507Y-136824031D01*
X137090705Y-136813019D01*
X137031835Y-136836070D01*
X136975228Y-136864587D01*
X136762806Y-136943083D01*
X136564952Y-136957830D01*
X136389603Y-136909928D01*
X136244696Y-136800474D01*
X136210531Y-136758773D01*
X136146375Y-136686140D01*
X136092437Y-136648181D01*
X136083903Y-136646580D01*
X136036552Y-136669399D01*
X135954313Y-136729235D01*
X135854946Y-136813160D01*
X135854464Y-136813593D01*
X135731198Y-136911484D01*
X135640440Y-136956582D01*
X135586675Y-136948313D01*
X135574390Y-136886102D01*
X135581450Y-136848522D01*
X135604023Y-136758584D01*
X135401149Y-136868465D01*
X135176272Y-136964791D01*
X134970655Y-137002043D01*
X134791883Y-136979563D01*
X134689802Y-136930014D01*
X134606884Y-136857196D01*
X134556423Y-136781934D01*
X134551207Y-136763262D01*
X134541268Y-136709779D01*
X134520451Y-136689476D01*
X134471915Y-136702158D01*
X134378814Y-136747631D01*
X134352714Y-136760976D01*
X134211691Y-136814077D01*
X134040303Y-136839081D01*
X133945945Y-136842619D01*
X133782507Y-136851934D01*
X133683762Y-136875230D01*
X133650840Y-136898766D01*
X133582712Y-136936797D01*
X133478586Y-136949831D01*
X133370747Y-136937447D01*
X133296193Y-136903394D01*
X133248069Y-136828853D01*
X133238423Y-136778209D01*
X133231881Y-136734063D01*
X133200433Y-136712950D01*
X133126456Y-136709029D01*
X133042361Y-136713235D01*
X132917793Y-136713415D01*
X132814326Y-136700469D01*
X132785839Y-136691050D01*
X133395293Y-136691050D01*
X133406835Y-136756078D01*
X133460188Y-136790913D01*
X133472194Y-136791723D01*
X133507680Y-136776864D01*
X133499642Y-136720820D01*
X133493792Y-136704740D01*
X133474141Y-136631273D01*
X133476115Y-136595451D01*
X133466390Y-136597304D01*
X133432551Y-136625192D01*
X133395293Y-136691050D01*
X132785839Y-136691050D01*
X132775670Y-136687688D01*
X132695130Y-136681135D01*
X132612059Y-136740393D01*
X132531126Y-136859061D01*
X132457001Y-137030738D01*
X132408574Y-137190866D01*
X132334341Y-137447709D01*
X132261162Y-137636323D01*
X132186790Y-137760976D01*
X132108980Y-137825934D01*
X132068466Y-137837318D01*
X131983970Y-137828757D01*
X131931531Y-137766255D01*
X131927257Y-137757182D01*
X131908216Y-137634844D01*
X131917050Y-137590009D01*
X132081443Y-137590009D01*
X132094187Y-137591607D01*
X132124237Y-137546411D01*
X132161368Y-137474775D01*
X132195354Y-137397051D01*
X132215971Y-137333593D01*
X132218162Y-137317866D01*
X132204095Y-137322568D01*
X132167386Y-137377581D01*
X132149802Y-137408580D01*
X132105130Y-137503674D01*
X132082264Y-137578855D01*
X132081443Y-137590009D01*
X131917050Y-137590009D01*
X131939910Y-137473991D01*
X132019336Y-137284885D01*
X132042310Y-137245295D01*
X132222374Y-137245295D01*
X132240516Y-137263437D01*
X132258659Y-137245295D01*
X132240516Y-137227152D01*
X132222374Y-137245295D01*
X132042310Y-137245295D01*
X132112458Y-137124419D01*
X132245461Y-136918723D01*
X131986516Y-136918723D01*
X131987809Y-136755777D01*
X132113516Y-136755777D01*
X132128319Y-136783307D01*
X132167019Y-136754551D01*
X132221056Y-136678130D01*
X132259372Y-136608897D01*
X132299930Y-136522511D01*
X132304809Y-136486446D01*
X132275655Y-136488756D01*
X132220440Y-136536273D01*
X132162728Y-136621103D01*
X132121880Y-136711358D01*
X132113516Y-136755777D01*
X131987809Y-136755777D01*
X131988022Y-136729034D01*
X131996553Y-136602081D01*
X132027404Y-136514072D01*
X132092209Y-136432173D01*
X132093793Y-136430516D01*
X132190708Y-136350968D01*
X132301915Y-136290432D01*
X132404683Y-136258690D01*
X132476285Y-136265527D01*
X132476610Y-136265726D01*
X132504443Y-136316757D01*
X132507962Y-136368092D01*
X132505026Y-136464549D01*
X132507016Y-136511345D01*
X132516781Y-136553148D01*
X132548624Y-136549877D01*
X132600609Y-136518055D01*
X132668516Y-136482085D01*
X132728079Y-136485168D01*
X132798378Y-136517219D01*
X132916187Y-136562411D01*
X133031467Y-136566200D01*
X133165081Y-136526422D01*
X133291069Y-136466063D01*
X133426017Y-136403074D01*
X133515340Y-136381918D01*
X133557826Y-136390843D01*
X133646514Y-136430410D01*
X133682874Y-136443221D01*
X133734732Y-136495235D01*
X133746374Y-136570425D01*
X133767337Y-136659538D01*
X133834668Y-136704527D01*
X133955024Y-136708429D01*
X134026002Y-136698003D01*
X134154551Y-136662173D01*
X134297269Y-136603918D01*
X134428758Y-136535444D01*
X134523622Y-136468959D01*
X134542310Y-136449839D01*
X134615420Y-136401614D01*
X134661364Y-136392580D01*
X134702716Y-136399563D01*
X134719472Y-136432475D01*
X134716223Y-136509265D01*
X134707889Y-136574414D01*
X134682881Y-136756248D01*
X134814668Y-136811313D01*
X134939534Y-136846384D01*
X135062814Y-136834796D01*
X135081758Y-136829944D01*
X135218701Y-136775980D01*
X135378001Y-136688202D01*
X135530600Y-136584010D01*
X135622642Y-136506071D01*
X135712706Y-136439486D01*
X135777603Y-136431029D01*
X135808612Y-136479327D01*
X135807303Y-136535112D01*
X135791709Y-136641358D01*
X135880649Y-136571398D01*
X136013455Y-136505526D01*
X136146011Y-136509698D01*
X136266314Y-136582344D01*
X136305891Y-136627015D01*
X136383884Y-136711939D01*
X136461083Y-136769937D01*
X136480095Y-136778372D01*
X136647648Y-136796023D01*
X136797733Y-136755777D01*
X137266088Y-136755777D01*
X137280891Y-136783307D01*
X137319591Y-136754551D01*
X137373627Y-136678130D01*
X137411944Y-136608897D01*
X137452501Y-136522511D01*
X137457381Y-136486446D01*
X137428226Y-136488756D01*
X137373011Y-136536273D01*
X137315299Y-136621103D01*
X137274452Y-136711358D01*
X137266088Y-136755777D01*
X136797733Y-136755777D01*
X136830662Y-136746947D01*
X137023068Y-136633720D01*
X137209399Y-136468697D01*
X137324420Y-136369114D01*
X137444481Y-136296123D01*
X137551553Y-136258442D01*
X137627607Y-136264789D01*
G36*
X128565418Y-136116430D02*
G01*
X128603602Y-136186947D01*
X128611945Y-136275492D01*
X128620288Y-136380371D01*
X128654255Y-136423619D01*
X128727249Y-136413429D01*
X128793007Y-136386145D01*
X128871654Y-136362237D01*
X128927509Y-136385236D01*
X128942492Y-136399147D01*
X128975935Y-136444274D01*
X128975702Y-136498021D01*
X128944596Y-136583198D01*
X128918637Y-136692419D01*
X128949617Y-136761873D01*
X129038799Y-136792030D01*
X129187444Y-136783357D01*
X129373945Y-136742516D01*
X129576704Y-136675881D01*
X129749526Y-136586090D01*
X129863347Y-136501908D01*
X130135654Y-136501908D01*
X130145947Y-136515786D01*
X130205179Y-136496354D01*
X130206205Y-136495888D01*
X130273869Y-136455045D01*
X130299231Y-136421765D01*
X130275061Y-136411624D01*
X130220646Y-136432608D01*
X130163127Y-136471420D01*
X130135654Y-136501908D01*
X129863347Y-136501908D01*
X129926547Y-136455166D01*
X129938564Y-136445179D01*
X130103202Y-136327070D01*
X130244504Y-136264777D01*
X130357079Y-136258952D01*
X130435539Y-136310246D01*
X130467458Y-136381209D01*
X130458017Y-136479127D01*
X130388478Y-136568071D01*
X130271272Y-136636694D01*
X130151690Y-136669315D01*
X130061311Y-136694960D01*
X130039503Y-136729063D01*
X130083342Y-136767648D01*
X130189901Y-136806737D01*
X130266538Y-136825390D01*
X130492187Y-136843559D01*
X130733899Y-136802616D01*
X130998448Y-136700846D01*
X131211120Y-136586425D01*
X131366178Y-136503329D01*
X131469760Y-136469117D01*
X131523672Y-136483400D01*
X131532945Y-136516947D01*
X131500131Y-136583629D01*
X131410596Y-136662165D01*
X131277703Y-136745564D01*
X131114813Y-136826835D01*
X130935288Y-136898988D01*
X130752490Y-136955032D01*
X130654237Y-136976671D01*
X130418768Y-136999635D01*
X130209778Y-136980197D01*
X130039919Y-136920878D01*
X129928044Y-136831991D01*
X129845659Y-136731988D01*
X129646806Y-136822769D01*
X129430717Y-136895202D01*
X129176494Y-136928547D01*
X129175092Y-136928624D01*
X129030804Y-136934175D01*
X128938041Y-136928747D01*
X128876116Y-136908555D01*
X128824338Y-136869809D01*
X128817147Y-136863093D01*
X128752410Y-136769361D01*
X128746867Y-136681629D01*
X128751618Y-136615672D01*
X128726307Y-136592100D01*
X128651938Y-136597424D01*
X128632379Y-136600334D01*
X128514499Y-136636425D01*
X128397612Y-136698731D01*
X128385752Y-136707204D01*
X128213626Y-136815904D01*
X128026108Y-136902862D01*
X127847782Y-136958115D01*
X127730215Y-136972797D01*
X127573248Y-136953082D01*
X127436152Y-136899778D01*
X127342258Y-136822737D01*
X127329833Y-136803789D01*
X127303358Y-136774493D01*
X127267089Y-136786169D01*
X127206185Y-136845963D01*
X127179128Y-136876360D01*
X127066657Y-136974541D01*
X126961606Y-137008811D01*
X126871614Y-136977030D01*
X126859345Y-136965894D01*
X126822711Y-136884409D01*
X126820504Y-136777490D01*
X126960945Y-136777490D01*
X126976269Y-136812590D01*
X127016215Y-136792280D01*
X127071745Y-136725441D01*
X127133819Y-136620957D01*
X127147076Y-136594579D01*
X127219047Y-136447009D01*
X127089996Y-136582547D01*
X127015717Y-136671461D01*
X126969068Y-136748268D01*
X126960945Y-136777490D01*
X126820504Y-136777490D01*
X126820269Y-136766153D01*
X126850065Y-136637286D01*
X126890203Y-136552906D01*
X126981106Y-136443030D01*
X127096467Y-136353465D01*
X127213783Y-136298828D01*
X127294650Y-136290195D01*
X127349635Y-136311655D01*
X127374359Y-136368923D01*
X127380165Y-136439684D01*
X127414731Y-136592157D01*
X127497892Y-136720815D01*
X127614715Y-136803242D01*
X127624930Y-136807118D01*
X127756728Y-136818543D01*
X127922639Y-136775531D01*
X128112534Y-136681173D01*
X128182033Y-136637095D01*
X128281313Y-136566667D01*
X128332273Y-136512501D01*
X128348762Y-136453425D01*
X128346241Y-136386068D01*
X128354038Y-136266843D01*
X128409127Y-136178147D01*
X128412045Y-136175195D01*
X128500151Y-136111802D01*
X128565418Y-136116430D01*
G37*
X128565418Y-136116430D02*
X128603602Y-136186947D01*
X128611945Y-136275492D01*
X128620288Y-136380371D01*
X128654255Y-136423619D01*
X128727249Y-136413429D01*
X128793007Y-136386145D01*
X128871654Y-136362237D01*
X128927509Y-136385236D01*
X128942492Y-136399147D01*
X128975935Y-136444274D01*
X128975702Y-136498021D01*
X128944596Y-136583198D01*
X128918637Y-136692419D01*
X128949617Y-136761873D01*
X129038799Y-136792030D01*
X129187444Y-136783357D01*
X129373945Y-136742516D01*
X129576704Y-136675881D01*
X129749526Y-136586090D01*
X129863347Y-136501908D01*
X130135654Y-136501908D01*
X130145947Y-136515786D01*
X130205179Y-136496354D01*
X130206205Y-136495888D01*
X130273869Y-136455045D01*
X130299231Y-136421765D01*
X130275061Y-136411624D01*
X130220646Y-136432608D01*
X130163127Y-136471420D01*
X130135654Y-136501908D01*
X129863347Y-136501908D01*
X129926547Y-136455166D01*
X129938564Y-136445179D01*
X130103202Y-136327070D01*
X130244504Y-136264777D01*
X130357079Y-136258952D01*
X130435539Y-136310246D01*
X130467458Y-136381209D01*
X130458017Y-136479127D01*
X130388478Y-136568071D01*
X130271272Y-136636694D01*
X130151690Y-136669315D01*
X130061311Y-136694960D01*
X130039503Y-136729063D01*
X130083342Y-136767648D01*
X130189901Y-136806737D01*
X130266538Y-136825390D01*
X130492187Y-136843559D01*
X130733899Y-136802616D01*
X130998448Y-136700846D01*
X131211120Y-136586425D01*
X131366178Y-136503329D01*
X131469760Y-136469117D01*
X131523672Y-136483400D01*
X131532945Y-136516947D01*
X131500131Y-136583629D01*
X131410596Y-136662165D01*
X131277703Y-136745564D01*
X131114813Y-136826835D01*
X130935288Y-136898988D01*
X130752490Y-136955032D01*
X130654237Y-136976671D01*
X130418768Y-136999635D01*
X130209778Y-136980197D01*
X130039919Y-136920878D01*
X129928044Y-136831991D01*
X129845659Y-136731988D01*
X129646806Y-136822769D01*
X129430717Y-136895202D01*
X129176494Y-136928547D01*
X129175092Y-136928624D01*
X129030804Y-136934175D01*
X128938041Y-136928747D01*
X128876116Y-136908555D01*
X128824338Y-136869809D01*
X128817147Y-136863093D01*
X128752410Y-136769361D01*
X128746867Y-136681629D01*
X128751618Y-136615672D01*
X128726307Y-136592100D01*
X128651938Y-136597424D01*
X128632379Y-136600334D01*
X128514499Y-136636425D01*
X128397612Y-136698731D01*
X128385752Y-136707204D01*
X128213626Y-136815904D01*
X128026108Y-136902862D01*
X127847782Y-136958115D01*
X127730215Y-136972797D01*
X127573248Y-136953082D01*
X127436152Y-136899778D01*
X127342258Y-136822737D01*
X127329833Y-136803789D01*
X127303358Y-136774493D01*
X127267089Y-136786169D01*
X127206185Y-136845963D01*
X127179128Y-136876360D01*
X127066657Y-136974541D01*
X126961606Y-137008811D01*
X126871614Y-136977030D01*
X126859345Y-136965894D01*
X126822711Y-136884409D01*
X126820504Y-136777490D01*
X126960945Y-136777490D01*
X126976269Y-136812590D01*
X127016215Y-136792280D01*
X127071745Y-136725441D01*
X127133819Y-136620957D01*
X127147076Y-136594579D01*
X127219047Y-136447009D01*
X127089996Y-136582547D01*
X127015717Y-136671461D01*
X126969068Y-136748268D01*
X126960945Y-136777490D01*
X126820504Y-136777490D01*
X126820269Y-136766153D01*
X126850065Y-136637286D01*
X126890203Y-136552906D01*
X126981106Y-136443030D01*
X127096467Y-136353465D01*
X127213783Y-136298828D01*
X127294650Y-136290195D01*
X127349635Y-136311655D01*
X127374359Y-136368923D01*
X127380165Y-136439684D01*
X127414731Y-136592157D01*
X127497892Y-136720815D01*
X127614715Y-136803242D01*
X127624930Y-136807118D01*
X127756728Y-136818543D01*
X127922639Y-136775531D01*
X128112534Y-136681173D01*
X128182033Y-136637095D01*
X128281313Y-136566667D01*
X128332273Y-136512501D01*
X128348762Y-136453425D01*
X128346241Y-136386068D01*
X128354038Y-136266843D01*
X128409127Y-136178147D01*
X128412045Y-136175195D01*
X128500151Y-136111802D01*
X128565418Y-136116430D01*
G36*
X144010452Y-135290489D02*
G01*
X144071638Y-135362612D01*
X144087802Y-135470729D01*
X144072507Y-135594833D01*
X144030284Y-135765900D01*
X143966632Y-135965969D01*
X143887047Y-136177077D01*
X143832719Y-136304279D01*
X143776572Y-136437945D01*
X143751286Y-136526473D01*
X143752972Y-136588438D01*
X143766137Y-136622206D01*
X143845354Y-136744678D01*
X143934508Y-136808748D01*
X144052896Y-136827980D01*
X144058942Y-136828009D01*
X144181232Y-136814762D01*
X144307835Y-136770228D01*
X144454373Y-136687217D01*
X144623720Y-136568079D01*
X144751243Y-136482863D01*
X144834751Y-136451670D01*
X144877911Y-136473817D01*
X144886088Y-136519292D01*
X144857262Y-136573048D01*
X144781164Y-136650357D01*
X144673365Y-136738475D01*
X144549433Y-136824660D01*
X144426775Y-136895244D01*
X144218555Y-136974074D01*
X144027274Y-136996297D01*
X143862146Y-136963246D01*
X143732388Y-136876255D01*
X143668312Y-136785510D01*
X143625165Y-136703268D01*
X143597000Y-136654234D01*
X143594318Y-136650592D01*
X143560811Y-136661433D01*
X143491928Y-136705570D01*
X143462861Y-136726999D01*
X143245411Y-136867733D01*
X143035454Y-136956935D01*
X142841207Y-136994080D01*
X142670885Y-136978647D01*
X142532706Y-136910112D01*
X142437084Y-136792267D01*
X142391967Y-136719962D01*
X142357012Y-136689136D01*
X142353031Y-136689623D01*
X142310071Y-136710039D01*
X142220457Y-136753129D01*
X142102844Y-136809921D01*
X142092088Y-136815124D01*
X141777105Y-136939843D01*
X141484668Y-136997473D01*
X141211067Y-136988579D01*
X141103543Y-136965854D01*
X140987453Y-136913435D01*
X140887754Y-136834437D01*
X140881342Y-136827126D01*
X140825694Y-136765800D01*
X140778819Y-136743366D01*
X140712338Y-136754372D01*
X140636173Y-136780019D01*
X140505711Y-136811607D01*
X140342054Y-136823107D01*
X140161815Y-136818306D01*
X140007213Y-136811415D01*
X139907034Y-136813211D01*
X139843359Y-136826598D01*
X139798270Y-136854483D01*
X139770431Y-136881768D01*
X139718179Y-136925668D01*
X139651152Y-136950288D01*
X139548201Y-136960779D01*
X139439259Y-136962479D01*
X139302014Y-136959930D01*
X139217599Y-136948644D01*
X139166349Y-136923168D01*
X139128596Y-136878048D01*
X139127205Y-136875935D01*
X139095899Y-136815792D01*
X139089225Y-136751375D01*
X139106583Y-136656058D01*
X139120988Y-136600057D01*
X139157720Y-136484822D01*
X139196818Y-136423909D01*
X139250249Y-136399709D01*
X139257991Y-136398464D01*
X139319487Y-136398542D01*
X139327994Y-136437746D01*
X139319405Y-136471036D01*
X139297024Y-136564204D01*
X139275105Y-136681235D01*
X139272531Y-136697492D01*
X139267018Y-136789171D01*
X139286999Y-136815183D01*
X139329645Y-136776679D01*
X139392128Y-136674810D01*
X139409371Y-136641825D01*
X139476803Y-136540779D01*
X139536902Y-136503257D01*
X139580023Y-136528491D01*
X139596522Y-136615716D01*
X139594607Y-136656559D01*
X139594452Y-136743408D01*
X139608985Y-136789482D01*
X139614565Y-136791723D01*
X139678390Y-136760348D01*
X139710403Y-136678024D01*
X139708229Y-136591438D01*
X139704976Y-136499520D01*
X139743845Y-136439392D01*
X139783496Y-136410301D01*
X139884463Y-136366327D01*
X139952300Y-136386722D01*
X139984849Y-136470349D01*
X139987516Y-136517750D01*
X139996741Y-136608090D01*
X140035023Y-136652642D01*
X140081457Y-136668775D01*
X140212691Y-136681281D01*
X140377703Y-136669826D01*
X140543451Y-136638754D01*
X140676888Y-136592406D01*
X140681934Y-136589862D01*
X140785668Y-136526544D01*
X140819501Y-136501908D01*
X141093940Y-136501908D01*
X141104232Y-136515786D01*
X141163464Y-136496354D01*
X141164491Y-136495888D01*
X141232155Y-136455045D01*
X141257516Y-136421765D01*
X141233347Y-136411624D01*
X141178932Y-136432608D01*
X141121413Y-136471420D01*
X141093940Y-136501908D01*
X140819501Y-136501908D01*
X140902623Y-136441384D01*
X140944271Y-136407338D01*
X141099038Y-136302017D01*
X141240185Y-136259046D01*
X141360423Y-136280591D01*
X141364245Y-136282584D01*
X141430185Y-136347289D01*
X141437488Y-136428500D01*
X141394215Y-136514113D01*
X141308423Y-136592023D01*
X141188172Y-136650126D01*
X141106391Y-136669888D01*
X141017968Y-136695357D01*
X140997843Y-136729478D01*
X141042875Y-136768130D01*
X141149925Y-136807189D01*
X141224824Y-136825390D01*
X141461068Y-136842436D01*
X141716817Y-136795269D01*
X141995868Y-136682967D01*
X142146516Y-136601403D01*
X142327945Y-136495557D01*
X142315687Y-136260592D01*
X142317775Y-136157246D01*
X142459080Y-136157246D01*
X142459693Y-136229462D01*
X142466513Y-136247437D01*
X142486449Y-136215355D01*
X142520475Y-136130040D01*
X142562240Y-136007895D01*
X142575422Y-135966223D01*
X142641624Y-135741747D01*
X142680441Y-135582205D01*
X142692277Y-135485489D01*
X142677535Y-135449495D01*
X142674359Y-135449152D01*
X142641145Y-135481706D01*
X142599106Y-135567542D01*
X142554339Y-135688922D01*
X142512941Y-135828107D01*
X142481009Y-135967359D01*
X142468321Y-136048615D01*
X142459080Y-136157246D01*
X142317775Y-136157246D01*
X142319597Y-136067067D01*
X142346337Y-135854645D01*
X142390912Y-135648237D01*
X142448324Y-135472755D01*
X142491232Y-135385300D01*
X142561979Y-135298996D01*
X142644460Y-135268513D01*
X142664869Y-135267723D01*
X142776738Y-135290489D01*
X142837923Y-135362612D01*
X142854088Y-135470729D01*
X142838792Y-135594833D01*
X142796570Y-135765900D01*
X142732918Y-135965969D01*
X142653333Y-136177077D01*
X142599005Y-136304279D01*
X142542857Y-136437945D01*
X142517572Y-136526473D01*
X142519258Y-136588438D01*
X142532423Y-136622206D01*
X142611640Y-136744678D01*
X142700794Y-136808748D01*
X142819181Y-136827980D01*
X142825228Y-136828009D01*
X142950059Y-136813910D01*
X143080829Y-136766839D01*
X143233581Y-136679637D01*
X143371159Y-136584366D01*
X143543516Y-136458971D01*
X143543516Y-136224296D01*
X143547493Y-136157246D01*
X143692794Y-136157246D01*
X143693408Y-136229462D01*
X143700228Y-136247437D01*
X143720163Y-136215355D01*
X143754190Y-136130040D01*
X143795955Y-136007895D01*
X143809137Y-135966223D01*
X143875338Y-135741747D01*
X143914155Y-135582205D01*
X143925991Y-135485489D01*
X143911249Y-135449495D01*
X143908074Y-135449152D01*
X143874859Y-135481706D01*
X143832820Y-135567542D01*
X143788054Y-135688922D01*
X143746655Y-135828107D01*
X143714723Y-135967359D01*
X143702035Y-136048615D01*
X143692794Y-136157246D01*
X143547493Y-136157246D01*
X143555714Y-136018687D01*
X143588848Y-135803209D01*
X143637736Y-135601784D01*
X143697190Y-135438338D01*
X143725570Y-135384276D01*
X143796515Y-135298319D01*
X143879931Y-135268378D01*
X143898583Y-135267723D01*
X144010452Y-135290489D01*
G37*
X144010452Y-135290489D02*
X144071638Y-135362612D01*
X144087802Y-135470729D01*
X144072507Y-135594833D01*
X144030284Y-135765900D01*
X143966632Y-135965969D01*
X143887047Y-136177077D01*
X143832719Y-136304279D01*
X143776572Y-136437945D01*
X143751286Y-136526473D01*
X143752972Y-136588438D01*
X143766137Y-136622206D01*
X143845354Y-136744678D01*
X143934508Y-136808748D01*
X144052896Y-136827980D01*
X144058942Y-136828009D01*
X144181232Y-136814762D01*
X144307835Y-136770228D01*
X144454373Y-136687217D01*
X144623720Y-136568079D01*
X144751243Y-136482863D01*
X144834751Y-136451670D01*
X144877911Y-136473817D01*
X144886088Y-136519292D01*
X144857262Y-136573048D01*
X144781164Y-136650357D01*
X144673365Y-136738475D01*
X144549433Y-136824660D01*
X144426775Y-136895244D01*
X144218555Y-136974074D01*
X144027274Y-136996297D01*
X143862146Y-136963246D01*
X143732388Y-136876255D01*
X143668312Y-136785510D01*
X143625165Y-136703268D01*
X143597000Y-136654234D01*
X143594318Y-136650592D01*
X143560811Y-136661433D01*
X143491928Y-136705570D01*
X143462861Y-136726999D01*
X143245411Y-136867733D01*
X143035454Y-136956935D01*
X142841207Y-136994080D01*
X142670885Y-136978647D01*
X142532706Y-136910112D01*
X142437084Y-136792267D01*
X142391967Y-136719962D01*
X142357012Y-136689136D01*
X142353031Y-136689623D01*
X142310071Y-136710039D01*
X142220457Y-136753129D01*
X142102844Y-136809921D01*
X142092088Y-136815124D01*
X141777105Y-136939843D01*
X141484668Y-136997473D01*
X141211067Y-136988579D01*
X141103543Y-136965854D01*
X140987453Y-136913435D01*
X140887754Y-136834437D01*
X140881342Y-136827126D01*
X140825694Y-136765800D01*
X140778819Y-136743366D01*
X140712338Y-136754372D01*
X140636173Y-136780019D01*
X140505711Y-136811607D01*
X140342054Y-136823107D01*
X140161815Y-136818306D01*
X140007213Y-136811415D01*
X139907034Y-136813211D01*
X139843359Y-136826598D01*
X139798270Y-136854483D01*
X139770431Y-136881768D01*
X139718179Y-136925668D01*
X139651152Y-136950288D01*
X139548201Y-136960779D01*
X139439259Y-136962479D01*
X139302014Y-136959930D01*
X139217599Y-136948644D01*
X139166349Y-136923168D01*
X139128596Y-136878048D01*
X139127205Y-136875935D01*
X139095899Y-136815792D01*
X139089225Y-136751375D01*
X139106583Y-136656058D01*
X139120988Y-136600057D01*
X139157720Y-136484822D01*
X139196818Y-136423909D01*
X139250249Y-136399709D01*
X139257991Y-136398464D01*
X139319487Y-136398542D01*
X139327994Y-136437746D01*
X139319405Y-136471036D01*
X139297024Y-136564204D01*
X139275105Y-136681235D01*
X139272531Y-136697492D01*
X139267018Y-136789171D01*
X139286999Y-136815183D01*
X139329645Y-136776679D01*
X139392128Y-136674810D01*
X139409371Y-136641825D01*
X139476803Y-136540779D01*
X139536902Y-136503257D01*
X139580023Y-136528491D01*
X139596522Y-136615716D01*
X139594607Y-136656559D01*
X139594452Y-136743408D01*
X139608985Y-136789482D01*
X139614565Y-136791723D01*
X139678390Y-136760348D01*
X139710403Y-136678024D01*
X139708229Y-136591438D01*
X139704976Y-136499520D01*
X139743845Y-136439392D01*
X139783496Y-136410301D01*
X139884463Y-136366327D01*
X139952300Y-136386722D01*
X139984849Y-136470349D01*
X139987516Y-136517750D01*
X139996741Y-136608090D01*
X140035023Y-136652642D01*
X140081457Y-136668775D01*
X140212691Y-136681281D01*
X140377703Y-136669826D01*
X140543451Y-136638754D01*
X140676888Y-136592406D01*
X140681934Y-136589862D01*
X140785668Y-136526544D01*
X140819501Y-136501908D01*
X141093940Y-136501908D01*
X141104232Y-136515786D01*
X141163464Y-136496354D01*
X141164491Y-136495888D01*
X141232155Y-136455045D01*
X141257516Y-136421765D01*
X141233347Y-136411624D01*
X141178932Y-136432608D01*
X141121413Y-136471420D01*
X141093940Y-136501908D01*
X140819501Y-136501908D01*
X140902623Y-136441384D01*
X140944271Y-136407338D01*
X141099038Y-136302017D01*
X141240185Y-136259046D01*
X141360423Y-136280591D01*
X141364245Y-136282584D01*
X141430185Y-136347289D01*
X141437488Y-136428500D01*
X141394215Y-136514113D01*
X141308423Y-136592023D01*
X141188172Y-136650126D01*
X141106391Y-136669888D01*
X141017968Y-136695357D01*
X140997843Y-136729478D01*
X141042875Y-136768130D01*
X141149925Y-136807189D01*
X141224824Y-136825390D01*
X141461068Y-136842436D01*
X141716817Y-136795269D01*
X141995868Y-136682967D01*
X142146516Y-136601403D01*
X142327945Y-136495557D01*
X142315687Y-136260592D01*
X142317775Y-136157246D01*
X142459080Y-136157246D01*
X142459693Y-136229462D01*
X142466513Y-136247437D01*
X142486449Y-136215355D01*
X142520475Y-136130040D01*
X142562240Y-136007895D01*
X142575422Y-135966223D01*
X142641624Y-135741747D01*
X142680441Y-135582205D01*
X142692277Y-135485489D01*
X142677535Y-135449495D01*
X142674359Y-135449152D01*
X142641145Y-135481706D01*
X142599106Y-135567542D01*
X142554339Y-135688922D01*
X142512941Y-135828107D01*
X142481009Y-135967359D01*
X142468321Y-136048615D01*
X142459080Y-136157246D01*
X142317775Y-136157246D01*
X142319597Y-136067067D01*
X142346337Y-135854645D01*
X142390912Y-135648237D01*
X142448324Y-135472755D01*
X142491232Y-135385300D01*
X142561979Y-135298996D01*
X142644460Y-135268513D01*
X142664869Y-135267723D01*
X142776738Y-135290489D01*
X142837923Y-135362612D01*
X142854088Y-135470729D01*
X142838792Y-135594833D01*
X142796570Y-135765900D01*
X142732918Y-135965969D01*
X142653333Y-136177077D01*
X142599005Y-136304279D01*
X142542857Y-136437945D01*
X142517572Y-136526473D01*
X142519258Y-136588438D01*
X142532423Y-136622206D01*
X142611640Y-136744678D01*
X142700794Y-136808748D01*
X142819181Y-136827980D01*
X142825228Y-136828009D01*
X142950059Y-136813910D01*
X143080829Y-136766839D01*
X143233581Y-136679637D01*
X143371159Y-136584366D01*
X143543516Y-136458971D01*
X143543516Y-136224296D01*
X143547493Y-136157246D01*
X143692794Y-136157246D01*
X143693408Y-136229462D01*
X143700228Y-136247437D01*
X143720163Y-136215355D01*
X143754190Y-136130040D01*
X143795955Y-136007895D01*
X143809137Y-135966223D01*
X143875338Y-135741747D01*
X143914155Y-135582205D01*
X143925991Y-135485489D01*
X143911249Y-135449495D01*
X143908074Y-135449152D01*
X143874859Y-135481706D01*
X143832820Y-135567542D01*
X143788054Y-135688922D01*
X143746655Y-135828107D01*
X143714723Y-135967359D01*
X143702035Y-136048615D01*
X143692794Y-136157246D01*
X143547493Y-136157246D01*
X143555714Y-136018687D01*
X143588848Y-135803209D01*
X143637736Y-135601784D01*
X143697190Y-135438338D01*
X143725570Y-135384276D01*
X143796515Y-135298319D01*
X143879931Y-135268378D01*
X143898583Y-135267723D01*
X144010452Y-135290489D01*
G36*
X119545962Y-134862836D02*
G01*
X119657348Y-134871269D01*
X119769180Y-134890172D01*
X119898506Y-134923196D01*
X120062373Y-134973989D01*
X120270688Y-135043769D01*
X120517775Y-135126858D01*
X120708062Y-135187270D01*
X120852978Y-135227050D01*
X120963955Y-135248243D01*
X121052421Y-135252893D01*
X121129808Y-135243048D01*
X121207546Y-135220750D01*
X121225285Y-135214571D01*
X121349278Y-135183188D01*
X121419797Y-135194950D01*
X121434162Y-135249042D01*
X121426241Y-135275733D01*
X121371849Y-135328328D01*
X121265407Y-135370381D01*
X121127200Y-135397197D01*
X120977512Y-135404081D01*
X120898722Y-135397815D01*
X120782356Y-135374247D01*
X120624549Y-135331526D01*
X120451413Y-135277024D01*
X120368151Y-135247984D01*
X120217845Y-135195092D01*
X120090897Y-135153222D01*
X120004119Y-135127768D01*
X119977112Y-135122580D01*
X119947811Y-135155747D01*
X119908837Y-135246017D01*
X119865773Y-135379542D01*
X119849145Y-135440080D01*
X119790069Y-135654589D01*
X119717538Y-135902045D01*
X119638337Y-136160608D01*
X119559256Y-136408440D01*
X119487081Y-136623700D01*
X119443161Y-136746366D01*
X119390091Y-136866218D01*
X119340313Y-136925487D01*
X119302052Y-136936866D01*
X119244522Y-136920999D01*
X119232088Y-136900191D01*
X119243332Y-136853201D01*
X119273923Y-136752663D01*
X119319146Y-136613492D01*
X119372537Y-136455691D01*
X119446799Y-136233551D01*
X119519799Y-136003451D01*
X119588525Y-135776203D01*
X119649965Y-135562615D01*
X119701108Y-135373497D01*
X119738943Y-135219657D01*
X119760458Y-135111907D01*
X119762642Y-135061055D01*
X119761533Y-135059359D01*
X119714873Y-135044686D01*
X119616881Y-135030560D01*
X119488757Y-135020037D01*
X119488518Y-135020023D01*
X119241014Y-135026270D01*
X119021940Y-135071183D01*
X118841489Y-135150232D01*
X118709853Y-135258885D01*
X118637223Y-135392612D01*
X118635485Y-135399230D01*
X118637333Y-135524850D01*
X118691118Y-135651148D01*
X118781576Y-135751416D01*
X118860159Y-135792298D01*
X118948041Y-135836394D01*
X118981968Y-135889943D01*
X118960493Y-135935854D01*
X118882167Y-135957036D01*
X118874124Y-135957152D01*
X118736582Y-135924290D01*
X118621356Y-135836089D01*
X118535355Y-135708130D01*
X118485489Y-135555992D01*
X118478669Y-135395252D01*
X118521802Y-135241492D01*
X118541063Y-135206195D01*
X118673232Y-135056284D01*
X118861454Y-134949137D01*
X119106915Y-134884286D01*
X119410802Y-134861264D01*
X119417974Y-134861225D01*
X119545962Y-134862836D01*
G37*
X119545962Y-134862836D02*
X119657348Y-134871269D01*
X119769180Y-134890172D01*
X119898506Y-134923196D01*
X120062373Y-134973989D01*
X120270688Y-135043769D01*
X120517775Y-135126858D01*
X120708062Y-135187270D01*
X120852978Y-135227050D01*
X120963955Y-135248243D01*
X121052421Y-135252893D01*
X121129808Y-135243048D01*
X121207546Y-135220750D01*
X121225285Y-135214571D01*
X121349278Y-135183188D01*
X121419797Y-135194950D01*
X121434162Y-135249042D01*
X121426241Y-135275733D01*
X121371849Y-135328328D01*
X121265407Y-135370381D01*
X121127200Y-135397197D01*
X120977512Y-135404081D01*
X120898722Y-135397815D01*
X120782356Y-135374247D01*
X120624549Y-135331526D01*
X120451413Y-135277024D01*
X120368151Y-135247984D01*
X120217845Y-135195092D01*
X120090897Y-135153222D01*
X120004119Y-135127768D01*
X119977112Y-135122580D01*
X119947811Y-135155747D01*
X119908837Y-135246017D01*
X119865773Y-135379542D01*
X119849145Y-135440080D01*
X119790069Y-135654589D01*
X119717538Y-135902045D01*
X119638337Y-136160608D01*
X119559256Y-136408440D01*
X119487081Y-136623700D01*
X119443161Y-136746366D01*
X119390091Y-136866218D01*
X119340313Y-136925487D01*
X119302052Y-136936866D01*
X119244522Y-136920999D01*
X119232088Y-136900191D01*
X119243332Y-136853201D01*
X119273923Y-136752663D01*
X119319146Y-136613492D01*
X119372537Y-136455691D01*
X119446799Y-136233551D01*
X119519799Y-136003451D01*
X119588525Y-135776203D01*
X119649965Y-135562615D01*
X119701108Y-135373497D01*
X119738943Y-135219657D01*
X119760458Y-135111907D01*
X119762642Y-135061055D01*
X119761533Y-135059359D01*
X119714873Y-135044686D01*
X119616881Y-135030560D01*
X119488757Y-135020037D01*
X119488518Y-135020023D01*
X119241014Y-135026270D01*
X119021940Y-135071183D01*
X118841489Y-135150232D01*
X118709853Y-135258885D01*
X118637223Y-135392612D01*
X118635485Y-135399230D01*
X118637333Y-135524850D01*
X118691118Y-135651148D01*
X118781576Y-135751416D01*
X118860159Y-135792298D01*
X118948041Y-135836394D01*
X118981968Y-135889943D01*
X118960493Y-135935854D01*
X118882167Y-135957036D01*
X118874124Y-135957152D01*
X118736582Y-135924290D01*
X118621356Y-135836089D01*
X118535355Y-135708130D01*
X118485489Y-135555992D01*
X118478669Y-135395252D01*
X118521802Y-135241492D01*
X118541063Y-135206195D01*
X118673232Y-135056284D01*
X118861454Y-134949137D01*
X119106915Y-134884286D01*
X119410802Y-134861264D01*
X119417974Y-134861225D01*
X119545962Y-134862836D01*
G36*
X121376001Y-136158279D02*
G01*
X121387118Y-136210636D01*
X121337983Y-136282400D01*
X121249443Y-136344527D01*
X121173432Y-136349698D01*
X121135675Y-136317722D01*
X121138784Y-136263779D01*
X121185093Y-136200780D01*
X121252803Y-136151945D01*
X121303856Y-136138580D01*
X121376001Y-136158279D01*
G37*
X121376001Y-136158279D02*
X121387118Y-136210636D01*
X121337983Y-136282400D01*
X121249443Y-136344527D01*
X121173432Y-136349698D01*
X121135675Y-136317722D01*
X121138784Y-136263779D01*
X121185093Y-136200780D01*
X121252803Y-136151945D01*
X121303856Y-136138580D01*
X121376001Y-136158279D01*
G36*
X134765430Y-136158279D02*
G01*
X134776546Y-136210636D01*
X134727411Y-136282400D01*
X134638872Y-136344527D01*
X134562860Y-136349698D01*
X134525103Y-136317722D01*
X134528213Y-136263779D01*
X134574522Y-136200780D01*
X134642232Y-136151945D01*
X134693285Y-136138580D01*
X134765430Y-136158279D01*
G37*
X134765430Y-136158279D02*
X134776546Y-136210636D01*
X134727411Y-136282400D01*
X134638872Y-136344527D01*
X134562860Y-136349698D01*
X134525103Y-136317722D01*
X134528213Y-136263779D01*
X134574522Y-136200780D01*
X134642232Y-136151945D01*
X134693285Y-136138580D01*
X134765430Y-136158279D01*
G36*
X201529555Y-141982999D02*
G01*
X186526622Y-141982999D01*
X186526622Y-136107132D01*
X186662088Y-136107132D01*
X186662088Y-141830599D01*
X201394088Y-141830599D01*
X201394088Y-136107132D01*
X186662088Y-136107132D01*
X186526622Y-136107132D01*
X186526622Y-135971666D01*
X201529555Y-135971666D01*
X201529555Y-141982999D01*
G37*
X201529555Y-141982999D02*
X186526622Y-141982999D01*
X186526622Y-136107132D01*
X186662088Y-136107132D01*
X186662088Y-141830599D01*
X201394088Y-141830599D01*
X201394088Y-136107132D01*
X186662088Y-136107132D01*
X186526622Y-136107132D01*
X186526622Y-135971666D01*
X201529555Y-135971666D01*
X201529555Y-141982999D01*
G36*
X190768525Y-137939714D02*
G01*
X190893247Y-137958949D01*
X190934354Y-137969980D01*
X191071789Y-138029768D01*
X191193087Y-138118474D01*
X191296718Y-138234459D01*
X191381152Y-138376085D01*
X191432664Y-138503199D01*
X191449318Y-138555110D01*
X191461349Y-138600951D01*
X191469519Y-138647864D01*
X191474589Y-138702990D01*
X191477323Y-138773470D01*
X191478480Y-138866446D01*
X191478733Y-138934999D01*
X191477609Y-139071261D01*
X191472578Y-139181626D01*
X191462151Y-139273978D01*
X191444840Y-139356199D01*
X191419157Y-139436173D01*
X191383614Y-139521783D01*
X191357256Y-139578465D01*
X191276795Y-139712246D01*
X191173044Y-139830091D01*
X191051682Y-139927276D01*
X190918385Y-139999080D01*
X190808862Y-140034640D01*
X190722754Y-140047675D01*
X190620088Y-140052912D01*
X190512438Y-140050708D01*
X190411377Y-140041419D01*
X190328480Y-140025403D01*
X190308498Y-140019205D01*
X190192656Y-139963022D01*
X190084994Y-139881700D01*
X190014547Y-139806637D01*
X189964088Y-139743142D01*
X189964088Y-140933132D01*
X189625422Y-140933132D01*
X189625422Y-138995546D01*
X189966172Y-138995546D01*
X189967111Y-139076448D01*
X189969647Y-139179976D01*
X189972771Y-139256400D01*
X189977452Y-139312483D01*
X189984658Y-139354985D01*
X189995359Y-139390669D01*
X190010522Y-139426295D01*
X190020089Y-139446219D01*
X190070422Y-139526686D01*
X190138711Y-139605447D01*
X190215929Y-139673867D01*
X190293047Y-139723314D01*
X190323639Y-139736490D01*
X190401176Y-139754190D01*
X190497147Y-139762217D01*
X190597519Y-139760527D01*
X190688258Y-139749075D01*
X190731440Y-139737774D01*
X190817023Y-139694416D01*
X190902025Y-139626258D01*
X190977711Y-139541369D01*
X191026538Y-139465225D01*
X191080457Y-139344207D01*
X191115828Y-139215593D01*
X191134617Y-139070552D01*
X191138901Y-138960399D01*
X191133713Y-138801099D01*
X191113344Y-138667426D01*
X191076093Y-138553939D01*
X191020259Y-138455196D01*
X190957151Y-138379035D01*
X190892936Y-138317438D01*
X190833082Y-138275488D01*
X190768406Y-138249673D01*
X190689726Y-138236479D01*
X190587858Y-138232395D01*
X190573688Y-138232350D01*
X190458949Y-138236733D01*
X190368128Y-138252142D01*
X190292190Y-138281781D01*
X190222102Y-138328857D01*
X190169937Y-138375591D01*
X190101278Y-138450800D01*
X190048526Y-138530249D01*
X190010161Y-138619192D01*
X189984661Y-138722886D01*
X189970505Y-138846585D01*
X189966172Y-138995546D01*
X189625422Y-138995546D01*
X189625422Y-137986732D01*
X189962817Y-137986732D01*
X189967686Y-138140545D01*
X189972555Y-138294359D01*
X190023355Y-138224641D01*
X190100022Y-138140258D01*
X190198168Y-138062624D01*
X190305463Y-138000487D01*
X190382050Y-137970074D01*
X190498991Y-137945279D01*
X190632461Y-137935158D01*
X190768525Y-137939714D01*
G37*
X190768525Y-137939714D02*
X190893247Y-137958949D01*
X190934354Y-137969980D01*
X191071789Y-138029768D01*
X191193087Y-138118474D01*
X191296718Y-138234459D01*
X191381152Y-138376085D01*
X191432664Y-138503199D01*
X191449318Y-138555110D01*
X191461349Y-138600951D01*
X191469519Y-138647864D01*
X191474589Y-138702990D01*
X191477323Y-138773470D01*
X191478480Y-138866446D01*
X191478733Y-138934999D01*
X191477609Y-139071261D01*
X191472578Y-139181626D01*
X191462151Y-139273978D01*
X191444840Y-139356199D01*
X191419157Y-139436173D01*
X191383614Y-139521783D01*
X191357256Y-139578465D01*
X191276795Y-139712246D01*
X191173044Y-139830091D01*
X191051682Y-139927276D01*
X190918385Y-139999080D01*
X190808862Y-140034640D01*
X190722754Y-140047675D01*
X190620088Y-140052912D01*
X190512438Y-140050708D01*
X190411377Y-140041419D01*
X190328480Y-140025403D01*
X190308498Y-140019205D01*
X190192656Y-139963022D01*
X190084994Y-139881700D01*
X190014547Y-139806637D01*
X189964088Y-139743142D01*
X189964088Y-140933132D01*
X189625422Y-140933132D01*
X189625422Y-138995546D01*
X189966172Y-138995546D01*
X189967111Y-139076448D01*
X189969647Y-139179976D01*
X189972771Y-139256400D01*
X189977452Y-139312483D01*
X189984658Y-139354985D01*
X189995359Y-139390669D01*
X190010522Y-139426295D01*
X190020089Y-139446219D01*
X190070422Y-139526686D01*
X190138711Y-139605447D01*
X190215929Y-139673867D01*
X190293047Y-139723314D01*
X190323639Y-139736490D01*
X190401176Y-139754190D01*
X190497147Y-139762217D01*
X190597519Y-139760527D01*
X190688258Y-139749075D01*
X190731440Y-139737774D01*
X190817023Y-139694416D01*
X190902025Y-139626258D01*
X190977711Y-139541369D01*
X191026538Y-139465225D01*
X191080457Y-139344207D01*
X191115828Y-139215593D01*
X191134617Y-139070552D01*
X191138901Y-138960399D01*
X191133713Y-138801099D01*
X191113344Y-138667426D01*
X191076093Y-138553939D01*
X191020259Y-138455196D01*
X190957151Y-138379035D01*
X190892936Y-138317438D01*
X190833082Y-138275488D01*
X190768406Y-138249673D01*
X190689726Y-138236479D01*
X190587858Y-138232395D01*
X190573688Y-138232350D01*
X190458949Y-138236733D01*
X190368128Y-138252142D01*
X190292190Y-138281781D01*
X190222102Y-138328857D01*
X190169937Y-138375591D01*
X190101278Y-138450800D01*
X190048526Y-138530249D01*
X190010161Y-138619192D01*
X189984661Y-138722886D01*
X189970505Y-138846585D01*
X189966172Y-138995546D01*
X189625422Y-138995546D01*
X189625422Y-137986732D01*
X189962817Y-137986732D01*
X189967686Y-138140545D01*
X189972555Y-138294359D01*
X190023355Y-138224641D01*
X190100022Y-138140258D01*
X190198168Y-138062624D01*
X190305463Y-138000487D01*
X190382050Y-137970074D01*
X190498991Y-137945279D01*
X190632461Y-137935158D01*
X190768525Y-137939714D01*
G36*
X189320622Y-140594466D02*
G01*
X187644222Y-140594466D01*
X187644222Y-140357399D01*
X189320622Y-140357399D01*
X189320622Y-140594466D01*
G37*
X189320622Y-140594466D02*
X187644222Y-140594466D01*
X187644222Y-140357399D01*
X189320622Y-140357399D01*
X189320622Y-140594466D01*
G36*
X192763968Y-137938755D02*
G01*
X192858484Y-137941951D01*
X192927505Y-137946463D01*
X192979405Y-137953667D01*
X193022556Y-137964938D01*
X193065330Y-137981653D01*
X193088288Y-137992062D01*
X193209392Y-138065104D01*
X193305430Y-138159263D01*
X193361990Y-138246979D01*
X193382427Y-138289209D01*
X193399531Y-138331344D01*
X193413595Y-138376756D01*
X193424915Y-138428815D01*
X193433785Y-138490894D01*
X193440500Y-138566364D01*
X193445354Y-138658596D01*
X193448642Y-138770962D01*
X193450658Y-138906832D01*
X193451697Y-139069579D01*
X193452054Y-139262574D01*
X193452061Y-139277899D01*
X193452355Y-140001799D01*
X193113688Y-140001799D01*
X193113500Y-139862099D01*
X193113313Y-139722399D01*
X193066992Y-139781665D01*
X192962044Y-139893835D01*
X192842605Y-139978431D01*
X192809932Y-139995794D01*
X192765708Y-140016390D01*
X192724797Y-140030307D01*
X192678357Y-140039100D01*
X192617549Y-140044324D01*
X192533535Y-140047531D01*
X192512555Y-140048083D01*
X192415580Y-140049346D01*
X192343578Y-140046947D01*
X192287779Y-140040095D01*
X192239413Y-140028005D01*
X192221299Y-140021923D01*
X192093139Y-139960945D01*
X191991226Y-139878735D01*
X191915965Y-139775951D01*
X191867761Y-139653250D01*
X191847019Y-139511290D01*
X191847294Y-139484633D01*
X192195474Y-139484633D01*
X192221612Y-139580431D01*
X192274766Y-139658408D01*
X192352955Y-139716493D01*
X192454197Y-139752617D01*
X192573350Y-139764719D01*
X192648884Y-139762427D01*
X192706581Y-139753167D01*
X192762299Y-139733391D01*
X192806098Y-139712653D01*
X192914868Y-139643257D01*
X192998497Y-139555290D01*
X193058227Y-139446560D01*
X193095304Y-139314870D01*
X193110270Y-139176299D01*
X193113373Y-139098116D01*
X193113606Y-139047708D01*
X193110136Y-139019044D01*
X193102129Y-139006093D01*
X193088750Y-139002824D01*
X193086274Y-139002796D01*
X193059511Y-139005179D01*
X193005493Y-139011740D01*
X192930460Y-139021659D01*
X192840654Y-139034117D01*
X192766947Y-139044695D01*
X192611604Y-139070249D01*
X192486791Y-139098214D01*
X192389178Y-139130514D01*
X192315432Y-139169072D01*
X192262221Y-139215814D01*
X192226214Y-139272663D01*
X192204079Y-139341544D01*
X192198334Y-139373083D01*
X192195474Y-139484633D01*
X191847294Y-139484633D01*
X191848004Y-139415842D01*
X191870669Y-139267557D01*
X191919025Y-139141139D01*
X191993453Y-139035951D01*
X192094334Y-138951357D01*
X192143658Y-138922358D01*
X192200774Y-138893864D01*
X192257376Y-138870176D01*
X192318912Y-138849978D01*
X192390827Y-138831954D01*
X192478568Y-138814788D01*
X192587583Y-138797165D01*
X192723318Y-138777770D01*
X192766796Y-138771850D01*
X193117237Y-138724499D01*
X193105687Y-138622412D01*
X193078863Y-138494140D01*
X193030795Y-138387835D01*
X192963092Y-138305906D01*
X192877367Y-138250759D01*
X192850074Y-138240353D01*
X192784268Y-138228209D01*
X192696898Y-138225194D01*
X192598785Y-138230528D01*
X192500748Y-138243431D01*
X192413608Y-138263123D01*
X192380215Y-138274226D01*
X192314823Y-138303608D01*
X192238910Y-138344247D01*
X192170539Y-138386296D01*
X192117689Y-138421246D01*
X192076719Y-138447420D01*
X192054790Y-138460268D01*
X192053113Y-138460866D01*
X192050550Y-138445102D01*
X192048500Y-138402490D01*
X192047209Y-138340046D01*
X192046888Y-138284127D01*
X192046888Y-138107388D01*
X192152722Y-138055553D01*
X192288550Y-137998666D01*
X192427480Y-137961328D01*
X192578501Y-137941820D01*
X192750601Y-137938425D01*
X192763968Y-137938755D01*
G37*
X192763968Y-137938755D02*
X192858484Y-137941951D01*
X192927505Y-137946463D01*
X192979405Y-137953667D01*
X193022556Y-137964938D01*
X193065330Y-137981653D01*
X193088288Y-137992062D01*
X193209392Y-138065104D01*
X193305430Y-138159263D01*
X193361990Y-138246979D01*
X193382427Y-138289209D01*
X193399531Y-138331344D01*
X193413595Y-138376756D01*
X193424915Y-138428815D01*
X193433785Y-138490894D01*
X193440500Y-138566364D01*
X193445354Y-138658596D01*
X193448642Y-138770962D01*
X193450658Y-138906832D01*
X193451697Y-139069579D01*
X193452054Y-139262574D01*
X193452061Y-139277899D01*
X193452355Y-140001799D01*
X193113688Y-140001799D01*
X193113500Y-139862099D01*
X193113313Y-139722399D01*
X193066992Y-139781665D01*
X192962044Y-139893835D01*
X192842605Y-139978431D01*
X192809932Y-139995794D01*
X192765708Y-140016390D01*
X192724797Y-140030307D01*
X192678357Y-140039100D01*
X192617549Y-140044324D01*
X192533535Y-140047531D01*
X192512555Y-140048083D01*
X192415580Y-140049346D01*
X192343578Y-140046947D01*
X192287779Y-140040095D01*
X192239413Y-140028005D01*
X192221299Y-140021923D01*
X192093139Y-139960945D01*
X191991226Y-139878735D01*
X191915965Y-139775951D01*
X191867761Y-139653250D01*
X191847019Y-139511290D01*
X191847294Y-139484633D01*
X192195474Y-139484633D01*
X192221612Y-139580431D01*
X192274766Y-139658408D01*
X192352955Y-139716493D01*
X192454197Y-139752617D01*
X192573350Y-139764719D01*
X192648884Y-139762427D01*
X192706581Y-139753167D01*
X192762299Y-139733391D01*
X192806098Y-139712653D01*
X192914868Y-139643257D01*
X192998497Y-139555290D01*
X193058227Y-139446560D01*
X193095304Y-139314870D01*
X193110270Y-139176299D01*
X193113373Y-139098116D01*
X193113606Y-139047708D01*
X193110136Y-139019044D01*
X193102129Y-139006093D01*
X193088750Y-139002824D01*
X193086274Y-139002796D01*
X193059511Y-139005179D01*
X193005493Y-139011740D01*
X192930460Y-139021659D01*
X192840654Y-139034117D01*
X192766947Y-139044695D01*
X192611604Y-139070249D01*
X192486791Y-139098214D01*
X192389178Y-139130514D01*
X192315432Y-139169072D01*
X192262221Y-139215814D01*
X192226214Y-139272663D01*
X192204079Y-139341544D01*
X192198334Y-139373083D01*
X192195474Y-139484633D01*
X191847294Y-139484633D01*
X191848004Y-139415842D01*
X191870669Y-139267557D01*
X191919025Y-139141139D01*
X191993453Y-139035951D01*
X192094334Y-138951357D01*
X192143658Y-138922358D01*
X192200774Y-138893864D01*
X192257376Y-138870176D01*
X192318912Y-138849978D01*
X192390827Y-138831954D01*
X192478568Y-138814788D01*
X192587583Y-138797165D01*
X192723318Y-138777770D01*
X192766796Y-138771850D01*
X193117237Y-138724499D01*
X193105687Y-138622412D01*
X193078863Y-138494140D01*
X193030795Y-138387835D01*
X192963092Y-138305906D01*
X192877367Y-138250759D01*
X192850074Y-138240353D01*
X192784268Y-138228209D01*
X192696898Y-138225194D01*
X192598785Y-138230528D01*
X192500748Y-138243431D01*
X192413608Y-138263123D01*
X192380215Y-138274226D01*
X192314823Y-138303608D01*
X192238910Y-138344247D01*
X192170539Y-138386296D01*
X192117689Y-138421246D01*
X192076719Y-138447420D01*
X192054790Y-138460268D01*
X192053113Y-138460866D01*
X192050550Y-138445102D01*
X192048500Y-138402490D01*
X192047209Y-138340046D01*
X192046888Y-138284127D01*
X192046888Y-138107388D01*
X192152722Y-138055553D01*
X192288550Y-137998666D01*
X192427480Y-137961328D01*
X192578501Y-137941820D01*
X192750601Y-137938425D01*
X192763968Y-137938755D01*
G36*
X198041288Y-140001799D02*
G01*
X197702622Y-140001799D01*
X197702622Y-139712002D01*
X197608757Y-139813386D01*
X197512881Y-139905082D01*
X197415037Y-139971999D01*
X197308240Y-140016921D01*
X197185503Y-140042630D01*
X197039840Y-140051909D01*
X197009515Y-140052046D01*
X196893205Y-140048275D01*
X196803939Y-140037308D01*
X196745667Y-140022140D01*
X196599836Y-139954384D01*
X196472795Y-139859381D01*
X196366107Y-139739045D01*
X196281337Y-139595287D01*
X196220048Y-139430020D01*
X196202333Y-139357736D01*
X196188062Y-139259707D01*
X196180846Y-139141135D01*
X196180347Y-139011671D01*
X196180588Y-139006304D01*
X196521968Y-139006304D01*
X196531918Y-139165783D01*
X196562400Y-139317291D01*
X196613100Y-139453601D01*
X196661213Y-139537213D01*
X196740461Y-139632992D01*
X196829013Y-139700386D01*
X196931937Y-139741779D01*
X197054304Y-139759552D01*
X197135355Y-139760005D01*
X197215495Y-139755735D01*
X197273626Y-139747617D01*
X197321586Y-139733000D01*
X197371211Y-139709237D01*
X197377562Y-139705797D01*
X197481693Y-139633230D01*
X197567655Y-139537584D01*
X197639576Y-139414245D01*
X197641015Y-139411221D01*
X197694155Y-139299065D01*
X197694155Y-138960399D01*
X197694047Y-138845197D01*
X197693317Y-138758329D01*
X197691355Y-138694261D01*
X197687553Y-138647459D01*
X197681300Y-138612392D01*
X197671989Y-138583525D01*
X197659008Y-138555325D01*
X197647010Y-138532254D01*
X197577238Y-138427157D01*
X197489393Y-138337055D01*
X197394291Y-138272268D01*
X197318454Y-138245474D01*
X197222412Y-138229353D01*
X197118303Y-138224541D01*
X197018266Y-138231672D01*
X196942296Y-138248643D01*
X196851160Y-138293538D01*
X196761508Y-138363846D01*
X196681621Y-138451803D01*
X196619778Y-138549644D01*
X196618447Y-138552328D01*
X196564919Y-138692349D01*
X196532864Y-138846083D01*
X196521968Y-139006304D01*
X196180588Y-139006304D01*
X196186225Y-138880965D01*
X196198139Y-138758669D01*
X196215751Y-138654433D01*
X196228840Y-138604799D01*
X196293438Y-138439729D01*
X196375481Y-138298999D01*
X196474955Y-138179867D01*
X196587016Y-138081668D01*
X196706717Y-138010431D01*
X196839609Y-137964006D01*
X196991241Y-137940244D01*
X197104985Y-137935932D01*
X197265933Y-137946945D01*
X197403200Y-137980635D01*
X197519102Y-138037976D01*
X197615958Y-138119947D01*
X197656055Y-138167914D01*
X197702622Y-138229832D01*
X197702622Y-137021532D01*
X198041288Y-137021532D01*
X198041288Y-140001799D01*
G37*
X198041288Y-140001799D02*
X197702622Y-140001799D01*
X197702622Y-139712002D01*
X197608757Y-139813386D01*
X197512881Y-139905082D01*
X197415037Y-139971999D01*
X197308240Y-140016921D01*
X197185503Y-140042630D01*
X197039840Y-140051909D01*
X197009515Y-140052046D01*
X196893205Y-140048275D01*
X196803939Y-140037308D01*
X196745667Y-140022140D01*
X196599836Y-139954384D01*
X196472795Y-139859381D01*
X196366107Y-139739045D01*
X196281337Y-139595287D01*
X196220048Y-139430020D01*
X196202333Y-139357736D01*
X196188062Y-139259707D01*
X196180846Y-139141135D01*
X196180347Y-139011671D01*
X196180588Y-139006304D01*
X196521968Y-139006304D01*
X196531918Y-139165783D01*
X196562400Y-139317291D01*
X196613100Y-139453601D01*
X196661213Y-139537213D01*
X196740461Y-139632992D01*
X196829013Y-139700386D01*
X196931937Y-139741779D01*
X197054304Y-139759552D01*
X197135355Y-139760005D01*
X197215495Y-139755735D01*
X197273626Y-139747617D01*
X197321586Y-139733000D01*
X197371211Y-139709237D01*
X197377562Y-139705797D01*
X197481693Y-139633230D01*
X197567655Y-139537584D01*
X197639576Y-139414245D01*
X197641015Y-139411221D01*
X197694155Y-139299065D01*
X197694155Y-138960399D01*
X197694047Y-138845197D01*
X197693317Y-138758329D01*
X197691355Y-138694261D01*
X197687553Y-138647459D01*
X197681300Y-138612392D01*
X197671989Y-138583525D01*
X197659008Y-138555325D01*
X197647010Y-138532254D01*
X197577238Y-138427157D01*
X197489393Y-138337055D01*
X197394291Y-138272268D01*
X197318454Y-138245474D01*
X197222412Y-138229353D01*
X197118303Y-138224541D01*
X197018266Y-138231672D01*
X196942296Y-138248643D01*
X196851160Y-138293538D01*
X196761508Y-138363846D01*
X196681621Y-138451803D01*
X196619778Y-138549644D01*
X196618447Y-138552328D01*
X196564919Y-138692349D01*
X196532864Y-138846083D01*
X196521968Y-139006304D01*
X196180588Y-139006304D01*
X196186225Y-138880965D01*
X196198139Y-138758669D01*
X196215751Y-138654433D01*
X196228840Y-138604799D01*
X196293438Y-138439729D01*
X196375481Y-138298999D01*
X196474955Y-138179867D01*
X196587016Y-138081668D01*
X196706717Y-138010431D01*
X196839609Y-137964006D01*
X196991241Y-137940244D01*
X197104985Y-137935932D01*
X197265933Y-137946945D01*
X197403200Y-137980635D01*
X197519102Y-138037976D01*
X197615958Y-138119947D01*
X197656055Y-138167914D01*
X197702622Y-138229832D01*
X197702622Y-137021532D01*
X198041288Y-137021532D01*
X198041288Y-140001799D01*
G36*
X199452635Y-137938755D02*
G01*
X199547150Y-137941951D01*
X199616172Y-137946463D01*
X199668072Y-137953667D01*
X199711222Y-137964938D01*
X199753997Y-137981653D01*
X199776955Y-137992062D01*
X199898059Y-138065104D01*
X199994097Y-138159263D01*
X200050657Y-138246979D01*
X200071094Y-138289209D01*
X200088197Y-138331344D01*
X200102262Y-138376756D01*
X200113582Y-138428815D01*
X200122452Y-138490894D01*
X200129167Y-138566364D01*
X200134021Y-138658596D01*
X200137308Y-138770962D01*
X200139325Y-138906832D01*
X200140364Y-139069579D01*
X200140720Y-139262574D01*
X200140727Y-139277899D01*
X200141021Y-140001799D01*
X199802355Y-140001799D01*
X199801979Y-139722399D01*
X199755659Y-139781665D01*
X199650711Y-139893835D01*
X199531272Y-139978431D01*
X199498599Y-139995794D01*
X199454375Y-140016390D01*
X199413463Y-140030307D01*
X199367023Y-140039100D01*
X199306216Y-140044324D01*
X199222201Y-140047531D01*
X199201222Y-140048083D01*
X199104246Y-140049346D01*
X199032245Y-140046947D01*
X198976446Y-140040095D01*
X198928080Y-140028005D01*
X198909965Y-140021923D01*
X198781805Y-139960945D01*
X198679892Y-139878735D01*
X198604632Y-139775951D01*
X198556427Y-139653250D01*
X198535685Y-139511290D01*
X198535960Y-139484633D01*
X198884141Y-139484633D01*
X198910279Y-139580431D01*
X198963433Y-139658408D01*
X199041622Y-139716493D01*
X199142863Y-139752617D01*
X199262017Y-139764719D01*
X199337550Y-139762427D01*
X199395247Y-139753167D01*
X199450966Y-139733391D01*
X199494764Y-139712653D01*
X199603535Y-139643257D01*
X199687163Y-139555290D01*
X199746894Y-139446560D01*
X199783971Y-139314870D01*
X199798937Y-139176299D01*
X199802039Y-139098116D01*
X199802273Y-139047708D01*
X199798803Y-139019044D01*
X199790795Y-139006093D01*
X199777417Y-139002824D01*
X199774941Y-139002796D01*
X199748178Y-139005179D01*
X199694160Y-139011740D01*
X199619127Y-139021659D01*
X199529321Y-139034117D01*
X199455614Y-139044695D01*
X199300270Y-139070249D01*
X199175458Y-139098214D01*
X199077844Y-139130514D01*
X199004098Y-139169072D01*
X198950888Y-139215814D01*
X198914881Y-139272663D01*
X198892746Y-139341544D01*
X198887001Y-139373083D01*
X198884141Y-139484633D01*
X198535960Y-139484633D01*
X198536670Y-139415842D01*
X198559335Y-139267557D01*
X198607691Y-139141139D01*
X198682119Y-139035951D01*
X198783001Y-138951357D01*
X198832325Y-138922358D01*
X198889441Y-138893864D01*
X198946043Y-138870176D01*
X199007578Y-138849978D01*
X199079493Y-138831954D01*
X199167235Y-138814788D01*
X199276250Y-138797165D01*
X199411985Y-138777770D01*
X199455462Y-138771850D01*
X199805903Y-138724499D01*
X199794354Y-138622412D01*
X199767530Y-138494140D01*
X199719461Y-138387835D01*
X199651759Y-138305906D01*
X199566034Y-138250759D01*
X199538741Y-138240353D01*
X199472935Y-138228209D01*
X199385565Y-138225194D01*
X199287451Y-138230528D01*
X199189414Y-138243431D01*
X199102274Y-138263123D01*
X199068882Y-138274226D01*
X199003490Y-138303608D01*
X198927577Y-138344247D01*
X198859206Y-138386296D01*
X198806356Y-138421246D01*
X198765385Y-138447420D01*
X198743457Y-138460268D01*
X198741779Y-138460866D01*
X198739217Y-138445102D01*
X198737167Y-138402490D01*
X198735876Y-138340046D01*
X198735555Y-138284127D01*
X198735555Y-138107388D01*
X198841388Y-138055553D01*
X198977217Y-137998666D01*
X199116147Y-137961328D01*
X199267167Y-137941820D01*
X199439268Y-137938425D01*
X199452635Y-137938755D01*
G37*
X199452635Y-137938755D02*
X199547150Y-137941951D01*
X199616172Y-137946463D01*
X199668072Y-137953667D01*
X199711222Y-137964938D01*
X199753997Y-137981653D01*
X199776955Y-137992062D01*
X199898059Y-138065104D01*
X199994097Y-138159263D01*
X200050657Y-138246979D01*
X200071094Y-138289209D01*
X200088197Y-138331344D01*
X200102262Y-138376756D01*
X200113582Y-138428815D01*
X200122452Y-138490894D01*
X200129167Y-138566364D01*
X200134021Y-138658596D01*
X200137308Y-138770962D01*
X200139325Y-138906832D01*
X200140364Y-139069579D01*
X200140720Y-139262574D01*
X200140727Y-139277899D01*
X200141021Y-140001799D01*
X199802355Y-140001799D01*
X199801979Y-139722399D01*
X199755659Y-139781665D01*
X199650711Y-139893835D01*
X199531272Y-139978431D01*
X199498599Y-139995794D01*
X199454375Y-140016390D01*
X199413463Y-140030307D01*
X199367023Y-140039100D01*
X199306216Y-140044324D01*
X199222201Y-140047531D01*
X199201222Y-140048083D01*
X199104246Y-140049346D01*
X199032245Y-140046947D01*
X198976446Y-140040095D01*
X198928080Y-140028005D01*
X198909965Y-140021923D01*
X198781805Y-139960945D01*
X198679892Y-139878735D01*
X198604632Y-139775951D01*
X198556427Y-139653250D01*
X198535685Y-139511290D01*
X198535960Y-139484633D01*
X198884141Y-139484633D01*
X198910279Y-139580431D01*
X198963433Y-139658408D01*
X199041622Y-139716493D01*
X199142863Y-139752617D01*
X199262017Y-139764719D01*
X199337550Y-139762427D01*
X199395247Y-139753167D01*
X199450966Y-139733391D01*
X199494764Y-139712653D01*
X199603535Y-139643257D01*
X199687163Y-139555290D01*
X199746894Y-139446560D01*
X199783971Y-139314870D01*
X199798937Y-139176299D01*
X199802039Y-139098116D01*
X199802273Y-139047708D01*
X199798803Y-139019044D01*
X199790795Y-139006093D01*
X199777417Y-139002824D01*
X199774941Y-139002796D01*
X199748178Y-139005179D01*
X199694160Y-139011740D01*
X199619127Y-139021659D01*
X199529321Y-139034117D01*
X199455614Y-139044695D01*
X199300270Y-139070249D01*
X199175458Y-139098214D01*
X199077844Y-139130514D01*
X199004098Y-139169072D01*
X198950888Y-139215814D01*
X198914881Y-139272663D01*
X198892746Y-139341544D01*
X198887001Y-139373083D01*
X198884141Y-139484633D01*
X198535960Y-139484633D01*
X198536670Y-139415842D01*
X198559335Y-139267557D01*
X198607691Y-139141139D01*
X198682119Y-139035951D01*
X198783001Y-138951357D01*
X198832325Y-138922358D01*
X198889441Y-138893864D01*
X198946043Y-138870176D01*
X199007578Y-138849978D01*
X199079493Y-138831954D01*
X199167235Y-138814788D01*
X199276250Y-138797165D01*
X199411985Y-138777770D01*
X199455462Y-138771850D01*
X199805903Y-138724499D01*
X199794354Y-138622412D01*
X199767530Y-138494140D01*
X199719461Y-138387835D01*
X199651759Y-138305906D01*
X199566034Y-138250759D01*
X199538741Y-138240353D01*
X199472935Y-138228209D01*
X199385565Y-138225194D01*
X199287451Y-138230528D01*
X199189414Y-138243431D01*
X199102274Y-138263123D01*
X199068882Y-138274226D01*
X199003490Y-138303608D01*
X198927577Y-138344247D01*
X198859206Y-138386296D01*
X198806356Y-138421246D01*
X198765385Y-138447420D01*
X198743457Y-138460268D01*
X198741779Y-138460866D01*
X198739217Y-138445102D01*
X198737167Y-138402490D01*
X198735876Y-138340046D01*
X198735555Y-138284127D01*
X198735555Y-138107388D01*
X198841388Y-138055553D01*
X198977217Y-137998666D01*
X199116147Y-137961328D01*
X199267167Y-137941820D01*
X199439268Y-137938425D01*
X199452635Y-137938755D01*
G36*
X195075133Y-137938692D02*
G01*
X195159996Y-137942251D01*
X195221603Y-137948118D01*
X195270568Y-137958508D01*
X195317501Y-137975636D01*
X195370089Y-138000275D01*
X195480473Y-138070601D01*
X195569855Y-138163467D01*
X195640024Y-138281305D01*
X195692765Y-138426550D01*
X195698450Y-138447632D01*
X195705506Y-138479755D01*
X195711454Y-138519484D01*
X195716436Y-138570124D01*
X195720591Y-138634977D01*
X195724060Y-138717348D01*
X195726984Y-138820539D01*
X195729503Y-138947854D01*
X195731758Y-139102596D01*
X195733782Y-139277899D01*
X195741430Y-140001799D01*
X195402933Y-140001799D01*
X195395156Y-139328699D01*
X195392881Y-139148108D01*
X195390384Y-138997808D01*
X195387326Y-138874225D01*
X195383366Y-138773782D01*
X195378168Y-138692906D01*
X195371391Y-138628020D01*
X195362698Y-138575550D01*
X195351749Y-138531920D01*
X195338205Y-138493556D01*
X195321728Y-138456882D01*
X195310415Y-138434436D01*
X195254013Y-138355732D01*
X195176827Y-138288399D01*
X195100714Y-138247290D01*
X195031783Y-138231302D01*
X194945208Y-138225640D01*
X194853727Y-138229754D01*
X194770075Y-138243093D01*
X194708643Y-138264231D01*
X194627862Y-138318369D01*
X194548951Y-138391722D01*
X194485145Y-138471599D01*
X194474414Y-138488846D01*
X194452378Y-138528278D01*
X194434233Y-138566748D01*
X194419603Y-138607927D01*
X194408111Y-138655487D01*
X194399381Y-138713100D01*
X194393035Y-138784435D01*
X194388697Y-138873165D01*
X194385990Y-138982961D01*
X194384538Y-139117494D01*
X194383964Y-139280436D01*
X194383889Y-139371032D01*
X194383688Y-140001799D01*
X194045021Y-140001799D01*
X194045021Y-137986732D01*
X194382370Y-137986732D01*
X194387262Y-138132228D01*
X194392155Y-138277723D01*
X194451386Y-138198559D01*
X194498365Y-138146080D01*
X194559844Y-138090657D01*
X194610182Y-138052908D01*
X194699334Y-138000159D01*
X194786574Y-137964948D01*
X194881458Y-137944927D01*
X194993545Y-137937747D01*
X195075133Y-137938692D01*
G37*
X195075133Y-137938692D02*
X195159996Y-137942251D01*
X195221603Y-137948118D01*
X195270568Y-137958508D01*
X195317501Y-137975636D01*
X195370089Y-138000275D01*
X195480473Y-138070601D01*
X195569855Y-138163467D01*
X195640024Y-138281305D01*
X195692765Y-138426550D01*
X195698450Y-138447632D01*
X195705506Y-138479755D01*
X195711454Y-138519484D01*
X195716436Y-138570124D01*
X195720591Y-138634977D01*
X195724060Y-138717348D01*
X195726984Y-138820539D01*
X195729503Y-138947854D01*
X195731758Y-139102596D01*
X195733782Y-139277899D01*
X195741430Y-140001799D01*
X195402933Y-140001799D01*
X195395156Y-139328699D01*
X195392881Y-139148108D01*
X195390384Y-138997808D01*
X195387326Y-138874225D01*
X195383366Y-138773782D01*
X195378168Y-138692906D01*
X195371391Y-138628020D01*
X195362698Y-138575550D01*
X195351749Y-138531920D01*
X195338205Y-138493556D01*
X195321728Y-138456882D01*
X195310415Y-138434436D01*
X195254013Y-138355732D01*
X195176827Y-138288399D01*
X195100714Y-138247290D01*
X195031783Y-138231302D01*
X194945208Y-138225640D01*
X194853727Y-138229754D01*
X194770075Y-138243093D01*
X194708643Y-138264231D01*
X194627862Y-138318369D01*
X194548951Y-138391722D01*
X194485145Y-138471599D01*
X194474414Y-138488846D01*
X194452378Y-138528278D01*
X194434233Y-138566748D01*
X194419603Y-138607927D01*
X194408111Y-138655487D01*
X194399381Y-138713100D01*
X194393035Y-138784435D01*
X194388697Y-138873165D01*
X194385990Y-138982961D01*
X194384538Y-139117494D01*
X194383964Y-139280436D01*
X194383889Y-139371032D01*
X194383688Y-140001799D01*
X194045021Y-140001799D01*
X194045021Y-137986732D01*
X194382370Y-137986732D01*
X194387262Y-138132228D01*
X194392155Y-138277723D01*
X194451386Y-138198559D01*
X194498365Y-138146080D01*
X194559844Y-138090657D01*
X194610182Y-138052908D01*
X194699334Y-138000159D01*
X194786574Y-137964948D01*
X194881458Y-137944927D01*
X194993545Y-137937747D01*
X195075133Y-137938692D01*
D11*
X49247254Y-60042400D03*
X55597254Y-57502400D03*
D12*
X58137254Y-62582400D03*
X47977254Y-62582400D03*
D13*
X53057254Y-62582400D03*
D14*
X181201326Y-52020596D03*
X172561326Y-52020596D03*
D15*
X173991326Y-51490596D03*
D16*
X172561326Y-47840596D03*
D15*
X179771326Y-51490596D03*
D16*
X181201326Y-47840596D03*
D13*
X300739003Y-108937365D03*
X276863003Y-108937365D03*
D17*
X276863003Y-93697365D03*
X300739003Y-93697365D03*
D12*
X293881003Y-100682365D03*
X283721003Y-100682365D03*
D11*
X291341003Y-95602365D03*
X284991003Y-98142365D03*
D13*
X288801003Y-100682365D03*
D11*
X158784753Y-98142365D03*
X165134753Y-95602365D03*
D12*
X167674753Y-100682365D03*
X157514753Y-100682365D03*
D13*
X162594753Y-100682365D03*
D11*
X230222253Y-79092365D03*
X236572253Y-76552365D03*
D12*
X239112253Y-81632365D03*
X228952253Y-81632365D03*
D13*
X234032253Y-81632365D03*
D12*
X301024753Y-81632365D03*
X290864753Y-81632365D03*
D11*
X298484753Y-76552365D03*
X292134753Y-79092365D03*
D13*
X295944753Y-81632365D03*
D12*
X43849753Y-81632365D03*
X33689753Y-81632365D03*
D11*
X41309753Y-76552365D03*
X34959753Y-79092365D03*
D13*
X38769753Y-81632365D03*
D12*
X46231102Y-100682392D03*
X36071102Y-100682392D03*
D11*
X43691102Y-95602392D03*
X37341102Y-98142392D03*
D13*
X41151102Y-100682392D03*
D11*
X182597253Y-60042365D03*
X188947253Y-57502365D03*
D12*
X191487253Y-62582365D03*
X181327253Y-62582365D03*
D13*
X186407253Y-62582365D03*
D11*
X163547253Y-60042365D03*
X169897253Y-57502365D03*
D12*
X172437253Y-62582365D03*
X162277253Y-62582365D03*
D13*
X167357253Y-62582365D03*
X303119982Y-70837174D03*
X279243982Y-70837174D03*
D17*
X279243982Y-55597174D03*
X303119982Y-55597174D03*
D12*
X296261982Y-62582174D03*
X286101982Y-62582174D03*
D11*
X293721982Y-57502174D03*
X287371982Y-60042174D03*
D13*
X291181982Y-62582174D03*
D11*
X277847253Y-60042365D03*
X284197253Y-57502365D03*
D12*
X286737253Y-62582365D03*
X276577253Y-62582365D03*
D13*
X281657253Y-62582365D03*
X57851503Y-127987365D03*
X33975503Y-127987365D03*
D17*
X33975503Y-112747365D03*
X57851503Y-112747365D03*
D12*
X50993503Y-119732365D03*
X40833503Y-119732365D03*
D11*
X48453503Y-114652365D03*
X42103503Y-117192365D03*
D13*
X45913503Y-119732365D03*
D12*
X41468446Y-100682142D03*
X31308446Y-100682142D03*
D11*
X38928446Y-95602142D03*
X32578446Y-98142142D03*
D13*
X36388446Y-100682142D03*
X219744753Y-130527365D03*
X105444753Y-130527365D03*
D17*
X105444753Y-145767365D03*
X219744753Y-145767365D03*
D12*
X167674753Y-138782365D03*
X157514753Y-138782365D03*
D11*
X165134753Y-133702365D03*
X158784753Y-136242365D03*
D13*
X162594753Y-138782365D03*
D11*
X206409753Y-117192365D03*
X212759753Y-114652365D03*
D12*
X215299753Y-119732365D03*
X205139753Y-119732365D03*
D13*
X210219753Y-119732365D03*
D11*
X111159753Y-117192365D03*
X117509753Y-114652365D03*
D12*
X120049753Y-119732365D03*
X109889753Y-119732365D03*
D13*
X114969753Y-119732365D03*
D11*
X296897253Y-60042365D03*
X303247253Y-57502365D03*
D12*
X305787253Y-62582365D03*
X295627253Y-62582365D03*
D13*
X300707253Y-62582365D03*
D11*
X315947253Y-136242365D03*
X322297253Y-133702365D03*
D12*
X324837253Y-138782365D03*
X314677253Y-138782365D03*
D13*
X319757253Y-138782365D03*
D11*
X296897253Y-136242365D03*
X303247253Y-133702365D03*
D12*
X305787253Y-138782365D03*
X295627253Y-138782365D03*
D13*
X300707253Y-138782365D03*
D11*
X277847253Y-136242365D03*
X284197253Y-133702365D03*
D12*
X286737253Y-138782365D03*
X276577253Y-138782365D03*
D13*
X281657253Y-138782365D03*
D12*
X248637253Y-138782365D03*
X238477253Y-138782365D03*
D11*
X246097253Y-133702365D03*
X239747253Y-136242365D03*
D13*
X243557253Y-138782365D03*
D12*
X86712253Y-138782365D03*
X76552253Y-138782365D03*
D11*
X84172253Y-133702365D03*
X77822253Y-136242365D03*
D13*
X81632253Y-138782365D03*
D12*
X43849753Y-138782365D03*
X33689753Y-138782365D03*
D11*
X41309753Y-133702365D03*
X34959753Y-136242365D03*
D13*
X38769753Y-138782365D03*
D11*
X315947253Y-117192365D03*
X322297253Y-114652365D03*
D12*
X324837253Y-119732365D03*
X314677253Y-119732365D03*
D13*
X319757253Y-119732365D03*
D11*
X296897253Y-117192365D03*
X303247253Y-114652365D03*
D12*
X305787253Y-119732365D03*
X295627253Y-119732365D03*
D13*
X300707253Y-119732365D03*
D12*
X279593503Y-119732365D03*
X269433503Y-119732365D03*
D11*
X277053503Y-114652365D03*
X270703503Y-117192365D03*
D13*
X274513503Y-119732365D03*
D11*
X244509753Y-117192365D03*
X250859753Y-114652365D03*
D12*
X253399753Y-119732365D03*
X243239753Y-119732365D03*
D13*
X248319753Y-119732365D03*
D11*
X225459753Y-117192365D03*
X231809753Y-114652365D03*
D12*
X234349753Y-119732365D03*
X224189753Y-119732365D03*
D13*
X229269753Y-119732365D03*
D11*
X187359753Y-117192365D03*
X193709753Y-114652365D03*
D12*
X196249753Y-119732365D03*
X186089753Y-119732365D03*
D13*
X191169753Y-119732365D03*
D11*
X168309753Y-117192365D03*
X174659753Y-114652365D03*
D12*
X177199753Y-119732365D03*
X167039753Y-119732365D03*
D13*
X172119753Y-119732365D03*
D11*
X149259753Y-117192365D03*
X155609753Y-114652365D03*
D12*
X158149753Y-119732365D03*
X147989753Y-119732365D03*
D13*
X153069753Y-119732365D03*
D11*
X130209753Y-117192365D03*
X136559753Y-114652365D03*
D12*
X139099753Y-119732365D03*
X128939753Y-119732365D03*
D13*
X134019753Y-119732365D03*
D11*
X92109753Y-117192365D03*
X98459753Y-114652365D03*
D12*
X100999753Y-119732365D03*
X90839753Y-119732365D03*
D13*
X95919753Y-119732365D03*
D11*
X73059753Y-117192365D03*
X79409753Y-114652365D03*
D12*
X81949753Y-119732365D03*
X71789753Y-119732365D03*
D13*
X76869753Y-119732365D03*
D11*
X315947253Y-98142365D03*
X322297253Y-95602365D03*
D12*
X324837253Y-100682365D03*
X314677253Y-100682365D03*
D13*
X319757253Y-100682365D03*
D11*
X254034753Y-98142365D03*
X260384753Y-95602365D03*
D12*
X262924753Y-100682365D03*
X252764753Y-100682365D03*
D13*
X257844753Y-100682365D03*
D11*
X234984753Y-98142365D03*
X241334753Y-95602365D03*
D12*
X243874753Y-100682365D03*
X233714753Y-100682365D03*
D13*
X238794753Y-100682365D03*
D11*
X215934753Y-98142365D03*
X222284753Y-95602365D03*
D12*
X224824753Y-100682365D03*
X214664753Y-100682365D03*
D13*
X219744753Y-100682365D03*
D11*
X196884753Y-98142365D03*
X203234753Y-95602365D03*
D12*
X205774753Y-100682365D03*
X195614753Y-100682365D03*
D13*
X200694753Y-100682365D03*
D11*
X177834753Y-98142365D03*
X184184753Y-95602365D03*
D12*
X186724753Y-100682365D03*
X176564753Y-100682365D03*
D13*
X181644753Y-100682365D03*
D11*
X139734753Y-98142365D03*
X146084753Y-95602365D03*
D12*
X148624753Y-100682365D03*
X138464753Y-100682365D03*
D13*
X143544753Y-100682365D03*
D11*
X120684753Y-98142365D03*
X127034753Y-95602365D03*
D12*
X129574753Y-100682365D03*
X119414753Y-100682365D03*
D13*
X124494753Y-100682365D03*
D11*
X101634753Y-98142365D03*
X107984753Y-95602365D03*
D12*
X110524753Y-100682365D03*
X100364753Y-100682365D03*
D13*
X105444753Y-100682365D03*
D11*
X82584753Y-98142365D03*
X88934753Y-95602365D03*
D12*
X91474753Y-100682365D03*
X81314753Y-100682365D03*
D13*
X86394753Y-100682365D03*
D11*
X63534753Y-98142365D03*
X69884753Y-95602365D03*
D12*
X72424753Y-100682365D03*
X62264753Y-100682365D03*
D13*
X67344753Y-100682365D03*
D11*
X315947253Y-79092365D03*
X322297253Y-76552365D03*
D12*
X324837253Y-81632365D03*
X314677253Y-81632365D03*
D13*
X319757253Y-81632365D03*
D11*
X268322253Y-79092365D03*
X274672253Y-76552365D03*
D12*
X277212253Y-81632365D03*
X267052253Y-81632365D03*
D13*
X272132253Y-81632365D03*
D11*
X249272253Y-79092365D03*
X255622253Y-76552365D03*
D12*
X258162253Y-81632365D03*
X248002253Y-81632365D03*
D13*
X253082253Y-81632365D03*
D11*
X211172253Y-79092365D03*
X217522253Y-76552365D03*
D12*
X220062253Y-81632365D03*
X209902253Y-81632365D03*
D13*
X214982253Y-81632365D03*
D11*
X192122253Y-79092365D03*
X198472253Y-76552365D03*
D12*
X201012253Y-81632365D03*
X190852253Y-81632365D03*
D13*
X195932253Y-81632365D03*
D11*
X173072253Y-79092365D03*
X179422253Y-76552365D03*
D12*
X181962253Y-81632365D03*
X171802253Y-81632365D03*
D13*
X176882253Y-81632365D03*
D11*
X154022253Y-79092365D03*
X160372253Y-76552365D03*
D12*
X162912253Y-81632365D03*
X152752253Y-81632365D03*
D13*
X157832253Y-81632365D03*
D11*
X134972253Y-79092365D03*
X141322253Y-76552365D03*
D12*
X143862253Y-81632365D03*
X133702253Y-81632365D03*
D13*
X138782253Y-81632365D03*
D11*
X115922253Y-79092365D03*
X122272253Y-76552365D03*
D12*
X124812253Y-81632365D03*
X114652253Y-81632365D03*
D13*
X119732253Y-81632365D03*
D11*
X96872253Y-79092365D03*
X103222253Y-76552365D03*
D12*
X105762253Y-81632365D03*
X95602253Y-81632365D03*
D13*
X100682253Y-81632365D03*
D11*
X77822253Y-79092365D03*
X84172253Y-76552365D03*
D12*
X86712253Y-81632365D03*
X76552253Y-81632365D03*
D13*
X81632253Y-81632365D03*
D11*
X58772253Y-79092365D03*
X65122253Y-76552365D03*
D12*
X67662253Y-81632365D03*
X57502253Y-81632365D03*
D13*
X62582253Y-81632365D03*
D11*
X315947253Y-60042365D03*
X322297253Y-57502365D03*
D12*
X324837253Y-62582365D03*
X314677253Y-62582365D03*
D13*
X319757253Y-62582365D03*
D11*
X258797253Y-60042365D03*
X265147253Y-57502365D03*
D12*
X267687253Y-62582365D03*
X257527253Y-62582365D03*
D13*
X262607253Y-62582365D03*
D11*
X239747253Y-60042365D03*
X246097253Y-57502365D03*
D12*
X248637253Y-62582365D03*
X238477253Y-62582365D03*
D13*
X243557253Y-62582365D03*
D11*
X220697253Y-60042365D03*
X227047253Y-57502365D03*
D12*
X229587253Y-62582365D03*
X219427253Y-62582365D03*
D13*
X224507253Y-62582365D03*
D11*
X201647253Y-60042365D03*
X207997253Y-57502365D03*
D12*
X210537253Y-62582365D03*
X200377253Y-62582365D03*
D13*
X205457253Y-62582365D03*
D11*
X144497253Y-60042365D03*
X150847253Y-57502365D03*
D12*
X153387253Y-62582365D03*
X143227253Y-62582365D03*
D13*
X148307253Y-62582365D03*
D11*
X125447253Y-60042365D03*
X131797253Y-57502365D03*
D12*
X134337253Y-62582365D03*
X124177253Y-62582365D03*
D13*
X129257253Y-62582365D03*
D11*
X106397253Y-60042365D03*
X112747253Y-57502365D03*
D12*
X115287253Y-62582365D03*
X105127253Y-62582365D03*
D13*
X110207253Y-62582365D03*
D11*
X87347253Y-60042365D03*
X93697253Y-57502365D03*
D12*
X96237253Y-62582365D03*
X86077253Y-62582365D03*
D13*
X91157253Y-62582365D03*
D11*
X68297253Y-60042365D03*
X74647253Y-57502365D03*
D12*
X77187253Y-62582365D03*
X67027253Y-62582365D03*
D13*
X72107253Y-62582365D03*
D11*
X30197338Y-60042540D03*
X36547338Y-57502540D03*
D12*
X39087338Y-62582540D03*
X28927338Y-62582540D03*
D13*
X34007338Y-62582540D03*
M02*
